<svg xmlns="http://www.w3.org/2000/svg" width="32" height="32"><g fill="none" fill-rule="evenodd"><path fill="#81360E" stroke="#F4BF75" stroke-width="2" d="M5 5v22h22V5H5z"/><path fill="#F4BF75" d="M20.226 11.694c.309 0 .571-.111.788-.334.217-.223.326-.482.327-.779a1.06 1.06 0 0 0-.327-.79 1.096 1.096 0 0 0-.788-.32 1.031 1.031 0 0 0-.774.32 1.09 1.09 0 0 0-.313.79c0 .313.104.577.313.791.209.215.467.322.774.32v.002zM19.167 12.667h2.12v8.167h-2.12zM12.398 18.084l-.001.001-.788 2.75H9.652l2.772-9.667v-1.056h2.638l3.153 10.722h-2.174l-.762-2.75h-2.88zM13.813 12h-.002l-1.06 4.222h2.12L13.814 12z"/></g></svg>