<svg xmlns="http://www.w3.org/2000/svg" width="32" height="32"><path fill="#B8E15E" d="M18.847 9.357h-.95v-.95h.95v.95zm-4.746 0h-.949v-.95h.95v.95zm5.249-2.695l1.243-1.244a.487.487 0 0 0 0-.674.487.487 0 0 0-.673 0L18.514 6.15A5.734 5.734 0 0 0 16 5.56c-.912 0-1.766.219-2.525.598L12.06 4.744a.476.476 0 0 0-.665 0 .47.47 0 0 0 0 .674l1.244 1.244c-1.415 1.044-2.335 2.695-2.335 4.593h11.39c0-1.898-.95-3.559-2.345-4.593zm4.718 5.543c-.787 0-1.424.637-1.424 1.423v6.644a1.424 1.424 0 1 0 2.847 0v-6.644c0-.786-.637-1.423-1.423-1.423zm-16.136 0c-.787 0-1.424.637-1.424 1.423v6.644a1.424 1.424 0 1 0 2.847 0v-6.644c0-.786-.637-1.423-1.423-1.423zm2.372 9.491c0 .524.425.95.95.95h.949v3.321a1.424 1.424 0 1 0 2.847 0v-3.322h1.898v3.322a1.424 1.424 0 1 0 2.848 0v-3.322h.949a.95.95 0 0 0 .95-.949v-9.491h-11.39v9.491z"/></svg>