<svg xmlns="http://www.w3.org/2000/svg" width="32" height="32"><g fill="none" fill-rule="evenodd"><g fill-rule="nonzero"><path fill="#2ECC71" d="M16 4L5.105 7.984l1.662 14.772L16 28l9.233-5.244 1.662-14.772z"/><path fill="#343944" opacity=".235" d="M16 4v2.664-.012V28l9.233-5.244 1.662-14.772z"/><path fill="#FFF" d="M16 6.652l-6.81 15.66h2.539l1.369-3.504h5.78l1.37 3.504h2.54L16 6.652zm1.99 9.996h-3.98L16 11.74l1.99 4.908z"/></g><path fill="#000" d="M25 11.034l-2.047 2.67h-1.438l2.047-2.67-2.047-2.666h1.438zM7 10.667l2.047 2.67h1.438l-2.047-2.67L10.485 8H9.047z"/></g></svg>