<svg xmlns="http://www.w3.org/2000/svg" width="32" height="32"><path fill="#78909C" d="M19.565 5.767c-.816 1.078-2.245 1.89-3.564 1.73-.286-1.397.503-2.795 1.238-3.687.939-1.078 2.421-1.81 3.7-1.81a5.098 5.098 0 0 1-1.374 3.767zm1.252 2.037c.857 0 3.142.253 4.557 2.382-.109.067-2.707 1.478-2.707 4.606.122 3.567 3.279 4.819 3.333 4.819-.054.066-.476 1.703-1.728 3.42C23.28 24.51 22.177 26 20.504 26c-1.592 0-2.163-.985-4-.985-1.972 0-2.53.985-4.04.985-1.674 0-2.857-1.57-3.905-3.035-1.36-1.917-2.516-4.925-2.557-7.814-.028-1.53.272-3.035 1.034-4.312 1.074-1.784 2.993-2.995 5.088-3.035 1.605-.054 3.033 1.078 4.013 1.078.939 0 2.694-1.078 4.68-1.078z" fill-rule="evenodd"/></svg>