<svg xmlns="http://www.w3.org/2000/svg" width="32" height="32"><g fill="none"><path fill="#EE9D5C" d="M4.763 4.597V27.4h3.69v-2.278H6.608V6.876h1.845v-2.28h-3.69zm18.784 0v2.28h1.847v18.247h-1.847v2.28h3.69V4.597h-3.69z"/><path fill="#F4BF75" d="M19.453 7.281c-.546 0-1.014.083-1.407.246a2.26 2.26 0 0 0-.958.732c-.246.329-.425.733-.538 1.209-.113.475-.17 1.035-.17 1.68a7.6 7.6 0 0 0 .164 1.666c.11.482.288.885.534 1.21.243.327.56.573.952.739.393.166.867.251 1.423.251.565 0 1.04-.082 1.426-.245.386-.166.702-.41.948-.732.24-.316.416-.721.529-1.213.113-.496.17-1.055.17-1.68s-.057-1.177-.166-1.652c-.11-.48-.286-.882-.529-1.207a2.28 2.28 0 0 0-.948-.749c-.385-.17-.862-.255-1.43-.255zm-7.434.132c-.014.2-.063.366-.15.499a.926.926 0 0 1-.389.323c-.146.07-.33.12-.549.15-.22.026-.449.04-.688.04v1.21h1.566v3.927h-1.566v1.297h4.958v-1.297h-1.532v-6.15h-1.65zm7.434 1.24c.409 0 .701.193.878.575.176.38.263 1.018.263 1.916 0 .888-.09 1.526-.27 1.915-.179.39-.469.583-.871.583-.403 0-.695-.194-.874-.583-.18-.389-.27-1.026-.27-1.907 0-.905.09-1.544.266-1.923.176-.383.469-.575.878-.575zm-6.906 8.335c-.545 0-1.014.08-1.406.243a2.264 2.264 0 0 0-.958.734c-.246.33-.426.732-.539 1.207-.113.476-.17 1.035-.17 1.68a7.6 7.6 0 0 0 .164 1.666c.11.482.289.887.535 1.213.243.326.561.572.954.739.392.166.865.249 1.42.249.566 0 1.041-.083 1.427-.245.386-.167.702-.41.948-.733.24-.316.415-.72.528-1.213.113-.495.17-1.055.17-1.68s-.054-1.176-.164-1.652c-.11-.478-.288-.88-.53-1.207a2.274 2.274 0 0 0-.946-.748c-.386-.17-.864-.253-1.433-.253zm6.377.13c-.013.199-.063.365-.15.498a.926.926 0 0 1-.389.323c-.146.07-.329.12-.548.15-.22.027-.45.04-.689.04v1.213h1.566v3.925h-1.566v1.296h4.958v-1.296h-1.532v-6.15h-1.65zm-6.377 1.24c.41 0 .702.193.878.575.176.38.264 1.018.264 1.915 0 .888-.088 1.527-.268 1.916-.18.389-.471.582-.874.582-.402 0-.694-.193-.873-.582-.18-.39-.268-1.024-.268-1.906 0-.904.087-1.546.264-1.925.176-.382.468-.574.877-.574z"/></g></svg>