<svg xmlns="http://www.w3.org/2000/svg" width="32" height="32"><path fill="#F4BF75" fill-rule="evenodd" d="M22.311 14.03c-.03-.18.68.17-.353-.962l.353.962zm1.245 1.008c-.03-.18-.565-.839-1.598-1.97-.02-.22.348-.54 1.092-.952l2.11-1.835c.47-.6.75-1.562.84-2.884l-.027-.309c-.082-.933-.767-1.685-2.053-2.266-.76-.51-2.126-.782-4.102-.822-1.636.137-3.773.712-6.402 1.717a24.927 24.927 0 0 1-2.471 1.543l.014.161a.657.657 0 0 0 .247-.096c.106-.009.163.04.174.134l.163-.091.082-.003.002.075c.006.075-.568.519-1.726 1.328l.09.142-.082.006-.177-.062c.006.048-.078.08-.247.094l.011.089.193.206a.698.698 0 0 1-.261-.05c-.375.032-.742.3-1.104.803l.093.142c.312-.284.497-.427.549-.432l.019.234a.744.744 0 0 0-.245.094l.199.295a6.5 6.5 0 0 1 1.256-1.043c.225.057.345.13.35.207l.174-.016c1.243-.908 2.471-1.564 3.69-1.97l.013.162c-.226.333-.38.505-.462.513a.502.502 0 0 0 .12.3c.018.205-.536 1.587-1.656 4.137C9.877 18.551 7.74 22.939 6 25.777a.565.565 0 0 0 .1.229c.43-.1.7-.204.813-.304l.093-.01.013.16.16-.013.164-.091c.005.048.06.072.168.062l.017.16c.013.16-.079.399-.272.727-.174.193-.359.602-.557 1.228l.005.075.158-.016c.693-.766 1.218-1.516 1.58-2.252 2.022-.584 3.56-1.159 4.632-1.726 1.073-.088 1.892-.373 2.449-.833l-.008-.086-.405.118-.093.011-.008-.086c.788-.118 1.335-.29 1.637-.53 1.536-1.168 2.696-1.999 3.482-2.488 1.612-1.172 2.661-2.314 3.14-3.421l.288-1.653zM9.303 9.596l-.082.008-.013-.226.331-.043.006.115c-.054.008-.136.051-.242.146zM7.68 25.552a1.041 1.041 0 0 0-.514-.103l-.022-.233c-.008-.092.047-.154.16-.175.107-.01.17.064.178.218.28-.339.435-.511.462-.516l.18.072c-.058.476-.207.718-.444.737zM25.019 7.62c-.082.01-.245-.242-.482-.742l-.013-.147c.155-.014.312.233.481.744l.014.145zm-.231-1.774l-.066.156-2.354-.97c1.569.051 2.379.323 2.42.814zm-9.942 8.517l-.334.043-.014-.225.334-.043.014.225zm-.272-5.15l.084-.002.02.234c-.077.003-.18.118-.305.336l-.014-.161c.15-.175.226-.31.215-.406zm-.579 1.63l.074.311-.202.003-.07-.31.198-.004zm-.484.583l.16-.016c-.016.258-.086.395-.217.405l-.081.006c.1-.172.15-.307.138-.395zm-.274.809l.092-.011.006.075-.15.25-.16.014-.003-.078c.158-.014.228-.094.215-.25zm-.16.728l-.082.39-.136.005-.055-.387.272-.008zm-2.812 7.592c-.106.533-.22.807-.342.812l-.003-.075c-.03-.264.087-.508.345-.737zm-.38 1.06l.01.085c.017.113-.07.18-.26.186l-.009-.084c-.016-.099.068-.16.259-.188zm-.261 2.214l.253-.032.008.118a.552.552 0 0 0-.245.132l-.158.018a.215.215 0 0 1 .142-.236zm7.128-2.185c-1.406.688-2.235 1.153-2.48 1.397-1.522.522-2.278.847-2.264.976-1.351.527-2.243.92-2.67 1.158-.103.011-.247-.027-.44-.113-.022-.271.103-.489.367-.666a1.43 1.43 0 0 1 .68.105c.25-.127.687-.272 1.31-.425l-.016-.158-.5.04c.062-.086.543-.31 1.448-.672l.25-.021.006.075c-.43.04-.666.161-.718.384.008.102.068.143.174.134.324-.198.481-.32.476-.352.612-.115 2.302-.991 5.07-2.623l.013.145c.006.076-.23.275-.706.616zm-4.247 1.381c.405-.032.75-.196 1.039-.475.117-.011.18.035.185.134-.199.019-.58.18-1.131.492l-.084.005-.009-.156zm6.854-5.203l-2.126 1.666c-1.58 1.024-2.425 1.54-2.553 1.546-2.512 1.368-4.078 2.077-4.684 2.128l-.09.011c.077-.28 1.191-2.542 3.36-6.797.952-.083 2.455-.518 4.502-1.32l.5-.042c1.036-.089 1.811.11 2.322.586l.027.309c-.38 1.088-.802 1.728-1.258 1.913zm-4.151-2.263l.34-.072.005.193-.343.075-.002-.196zm4.798-.849l.253-.024c.23.11.35.204.358.29l.006.075c-.22.02-.427-.094-.617-.341zm.68-3.822c-.22.26-.827.707-1.82 1.336-.328.03-1.546.494-3.656 1.41a.646.646 0 0 0-.337-.058l-.013-.148c-.025-.298.111-.675.41-1.134.163-.855.34-1.344.538-1.465l1.756-3.908c-.016-.241.36-.427 1.129-.556l.25-.024.019.223a36.43 36.43 0 0 1 1.41-.196c1.398-.119 2.124.164 2.18.833l.161-.014-.032-.395.171-.013c.41.223.63.494.66.812.02.22-.1.491-.356.817-.106.008-.168-.068-.179-.22l-.171.015-.041.476c-.707 1.046-1.223 1.583-1.539 1.613-.29.395-.467.59-.54.596zm1.079 2.736c-.145-.097-.261-.14-.348-.134l-.017-.234.158-.013.35.204c.014.11-.032.166-.143.177zm1.117 1.309c.158.062.253.129.272.19l-.08.02.006.005a.144.144 0 0 0-.049.008l-.12.091-.03-.314zm.109.817l-.017-.153.253-.116.02.15-.256.12z"/></svg>