<svg xmlns="http://www.w3.org/2000/svg" width="32" height="32"><path fill="#D14748" stroke="#D14748" stroke-width=".97" d="M23.739 16.013l-2.107-3.16c-.059-.092-.108-.183.04-.205.147-.021 2.541-.494 2.65-.521.108-.027.2-.06.334.14.133.198 1.955 2.719 2.023 2.816.07.097-.049.156-.206.193-.157.038-2.734.737-2.734.737zm2.285 4.71c.064.111.128.181-.074.262-.202.08-6.821 2.523-6.95 2.583-.128.06-.229.08-.395-.181-.165-.261-2.319-4.336-2.319-4.336l7.017-1.996c.206-.071.254-.045.34.09.118.186 1.19 1.796 1.254 1.906l1.127 1.672zm-15.696-1.2c-.215.054-.215.028-.24-.054-.024-.08-4.792-10.827-4.858-10.962-.066-.134-.063-.24 0-.24s3.806-.366 3.94-.374c.131-.008.117.023.166.114l5.373 10.14c.092.174.136.2-.05.248-.085.022-4.116 1.075-4.33 1.129zm13.89-8.105c-.235.037-2.988.543-3.308.602-.32.059-.521.199-.325.5.175.267 1.985 3.072 2.384 3.69l-7.196 1.885-5.724-10.46c-.228-.37-.275-.5-.793-.474-.52.026-4.49.386-4.773.412-.283.026-.594.164-.31.894.282.73 4.792 11.354 4.918 11.663.125.31.452.812 1.217.61.784-.206 3.504-.981 4.989-1.406.785 1.553 2.385 4.706 2.682 5.157.395.603.667.504 1.274.303.474-.157 7.413-2.886 7.726-3.026.313-.14.505-.241.294-.583-.155-.251-1.986-2.932-2.945-4.335.657-.191 2.992-.871 3.241-.945.29-.086.33-.242.172-.435-.157-.194-2.333-3.172-2.717-3.677-.382-.504-.569-.413-.805-.375z"/></svg>