<svg xmlns="http://www.w3.org/2000/svg" width="32" height="32"><g fill="none"><path fill="#343944" d="M27.47 16.26c-1.226-1.171-7.361-1.902-9.297-2.115.094-.22.174-.447.24-.681a7.78 7.78 0 0 1 .843-.311c.036.105.205.508.301.699 3.893.107 4.092-2.872 4.25-3.689.155-.798.148-1.569 1.483-2.978-1.99-.576-4.85.892-5.808 3.076a6.009 6.009 0 0 0-1.077-.294c-.256-1.024-1.588-3.878-5.083-3.878-4.425 0-9.247 3.625-9.247 9.761 0 5.159 3.546 9.68 5.55 9.68.874 0 1.627-.651 1.804-1.234.148.4.603 1.643.752 1.96.22.467 1.24.872 1.687.387.575.317 1.628.507 2.202-.337 1.106.232 2.084-.423 2.105-1.205.543-.028.81-.785.69-1.388-.087-.443-1.02-2.035-1.384-2.585.72.582 2.546.747 2.767 0 1.162.906 2.972.431 3.116-.305 1.411.364 3.03-.436 2.764-1.405 2.268-.156 1.978-2.551 1.341-3.159h.001z"/><path fill="#7ACCEE" d="M21.157 11.15c.488-.963 1.102-2.014 1.877-2.664-.853.342-1.696 1.362-2.194 2.454a7.698 7.698 0 0 0-.771-.429c.695-1.472 2.309-2.702 4.088-2.798-1.192 1.073-.769 3.304-1.748 4.485-.28-.28-.924-.82-1.252-1.049zm-.77 1.566c0-.037.014-.32.04-.45-.068-.016-.493-.099-.715-.094-.016.277.117.746.249 1.03.905-.02 1.559-.289 1.944-.536-.328-.152-.887-.287-1.312-.367-.048.097-.164.345-.207.417z"/><g transform="translate(5.065 7.094)"><path fill="#2ECC71" d="M11.957 13.236l.001.004a12.79 12.79 0 0 1-.382-.932c.567.819 2.343.396 2.25-.338.869.65 2.658-.108 2.251-1.019.87.403 1.864-.407 1.642-.76 1.484.284 2.907.567 3.353.68-.296.48-.972.82-1.99.584.55.745-.519 1.638-2.007 1.146.328.731-.997 1.389-2.503.627.019.731-1.869.816-2.615.008zm2.945-3.696c1.723.131 4.572.386 6.336.632-.112-.57-.416-.733-1.374-.989-1.03.11-3.642.364-4.962.357z"/><path fill="#F4BF75" d="M13.826 11.97c.869.65 2.658-.108 2.251-1.018.87.403 1.865-.408 1.642-.761-1.755-.337-3.597-.674-4.015-.733.254.014.674.042 1.198.082 1.32.007 3.933-.247 4.963-.357-1.668-.42-5.072-1.032-7.423-1.183-.11.158-.31.426-.658.711-1.029 2.162-2.893 3.598-4.955 3.598-.6 0-1.273-.1-2.027-.34-.47.5-2.474.88-4.1.087 1.29 2.999 4.281 5 7.592 5 2.788 0 4.024-2.827 3.754-3.575-.066-.182-.326-.784-.472-1.173.567.819 2.343.396 2.25-.338z"/><path fill="#CFD2D3" d="M12.136 6.28c.246-.133 1.097-.646 1.907-.838a3.548 3.548 0 0 1-.028-.27c-.532.127-1.534.554-2.11-.034 1.213.363 1.818-.324 2.71-.324.53 0 1.288.147 1.885.38-.48-.44-2.055-1.77-4.006-1.775-.435.524-.906 1.66-.358 2.86z"/><path fill="#D14748" d="M4.802 11.969c.754.24 1.426.34 2.027.34 2.062 0 3.926-1.437 4.955-3.598-.761.63-2.083 1.17-4.148 1.17 1.839-.414 3.422-1.324 4.228-2.655-.566-.895-1.18-2.875.375-4.44-.24-.763-1.404-2.778-3.982-2.778C3.76.008.031 3.746.031 8.756c0 1.186.241 2.298.672 3.3 1.625.792 3.63.413 4.1-.087z"/><path fill="#F4BF75" d="M6.151 4.341c0 1.14.93 2.063 2.078 2.063a2.07 2.07 0 0 0 2.078-2.063 2.07 2.07 0 0 0-2.078-2.063A2.07 2.07 0 0 0 6.151 4.34z"/><path fill="#343944" d="M6.985 4.341A1.24 1.24 0 0 0 8.23 5.576a1.24 1.24 0 0 0 1.244-1.235A1.24 1.24 0 0 0 8.23 3.106 1.24 1.24 0 0 0 6.985 4.34z"/><ellipse cx="8.229" cy="3.793" fill="#FFF" rx="1" ry="1"/></g></g></svg>