<svg xmlns="http://www.w3.org/2000/svg" width="32" height="32"><g fill="none" fill-rule="evenodd" transform="translate(4 4)"><circle cx="12" cy="12" r="11.831" fill="#F4BF75"/><path fill="#343944" d="M16.434 4.617c.053-.015.105-.027.157-.038l.154.188a4.52 4.52 0 0 0-.032.133c-.118.02-.24.054-.365.101.023-.127.052-.255.086-.384zm-3.327 3.567c-1.066 1.69-1.652 3.437-1.48 4.38 1.999.327 3.847.26 5.538-.12 1.308-.294 2.424-.751 3.336-1.286.19-.112.367-.253.473-.372-.984-.197-2.303-.886-3.231-1.793C16.604 7.88 16.07 6.52 16.348 5c-1.014.377-2.228 1.575-3.241 3.183zm3.7-3.638c-1.094 3.581 2.782 5.658 4.314 5.924.615.106.076.671-.45.98-1.408.826-4.639 2.236-9.317 1.41-.72-2.12 2.814-8.06 5.452-8.314z"/><path fill="#343944" d="M15.703 9.17a.676.676 0 1 0 .52-.519.423.423 0 1 1-.52.52zm4.887 2.002a1.014 1.014 0 1 0-1.014-1.014c.685.496 1.677.396 1.014 1.014z"/><path fill="#343944" d="M16.281 15.765c-.652 2.633-2.504 5.294-4.887 6.321.07-.806.04-1.479-.077-2.092-1.104.637-2.305 1.041-3.488 1.089.353-.722.566-1.358.676-1.97-1.256.198-2.518.144-3.636-.234.579-.54 1.001-1.048 1.321-1.57-1.245-.266-2.406-.77-3.316-1.524.754-.305 1.343-.639 1.837-1.025-1.073-.695-1.982-1.584-2.563-2.62.792-.013 1.447-.11 2.035-.283-.75-1.032-1.277-2.185-1.448-3.356.762.278 1.42.423 2.045.468-.329-1.23-.408-2.494-.149-3.648.599.52 1.15.887 1.704 1.151.133-1.267.512-2.476 1.168-3.46.38.714.772 1.263 1.206 1.713.58-1.138 1.367-2.134 2.335-2.819.098.798.265 1.447.505 2.02.946-.849 2.033-1.49 3.175-1.782-.193.777-.27 1.44-.251 2.06 1.192-.458 2.444-.671 3.621-.533-3.623 2.747-1.543 4.731-1.543 9.98 0 .95-.093 1.638-.27 2.114z"/><path fill="#FFF" d="M16.534 12.42a8.78 8.78 0 0 1-.045-.5 33.044 33.044 0 0 0-.205-1.766l-.023-.147.19-.021a.69.69 0 0 0 .474-1.081c-.1-.137-.397-.287-.569-.287h-.136l.145.137c.107.1.144.17.144.265 0 .173-.092.342-.218.4-.097.043-.104.039-.126-.084-.17-.974-.226-2.126-.128-2.683.036-.2.1-.465.144-.588l.08-.223.003.183c.002.1.037.346.079.547.276 1.33 1.181 2.495 2.638 3.394a8.801 8.801 0 0 0 1.453.692c.163.054.315.116.335.137.07.07-.01.17-.264.33-.776.49-2.024.983-3.185 1.258-.827.196-.762.193-.786.037z"/></g></svg>