<svg xmlns="http://www.w3.org/2000/svg" width="32" height="32"><path fill="#3965BD" fill-rule="evenodd" d="M23.022 22.806l.691 4.183c-.438.24-1.147.462-2.091.668-.961.223-2.091.343-3.39.343-3.727-.069-6.527-1.2-8.399-3.36C7.944 22.463 7 19.703 7 16.36c.084-3.96 1.214-6.994 3.373-9.12C12.599 5.097 15.365 4 18.704 4c1.265 0 2.361.12 3.272.326.91.205 1.586.428 2.024.685l-.978 4.269-1.788-.583c-.674-.171-1.45-.257-2.344-.257-1.956-.017-3.576.617-4.84 1.886-1.282 1.251-1.94 3.171-1.99 5.725 0 2.332.624 4.149 1.821 5.486 1.197 1.32 2.884 2.006 5.043 2.023l2.243-.206a8.925 8.925 0 0 0 1.855-.548z"/></svg>