<svg xmlns="http://www.w3.org/2000/svg" width="32" height="32"><g fill="none" fill-rule="evenodd" transform="translate(2 2)"><rect width="10" height="14" x="12" y="2" fill="#7ACCEE" rx="1.13" transform="scale(-1 1) rotate(31.47 0 -51.338)"/><rect width="10" height="11" x="13" y="15" fill="#6A6BD7" rx=".982" transform="scale(-1 1) rotate(-30.988 0 85.431)"/><path fill="#3965BD" d="M4.769 13.533c-.139.287-2.798 1.795-2.731 2.137.066.342 3.248 1.526 3.494 1.792s1.213 3.565 1.545 3.654c.332.088 1.977-2.515 2.268-2.638.29-.123 3.547.408 3.686.121.138-.287-2.026-3.08-2.093-3.422-.066-.342.98-3.313.733-3.58-.246-.265-3.229.612-3.56.523-.333-.088-2.943-2.455-3.234-2.333-.29.123.03 3.458-.108 3.746z"/></g></svg>