<svg xmlns="http://www.w3.org/2000/svg" width="32" height="32"><path fill="#3965BD" d="M13.74 20.537l.463 2.789c-.294.16-.77.308-1.402.445-.644.149-1.402.229-2.272.229-2.499-.046-4.375-.8-5.63-2.24C3.633 20.309 3 18.469 3 16.24c.057-2.64.814-4.663 2.26-6.08C6.754 8.731 8.608 8 10.846 8c.848 0 1.583.08 2.193.217.61.137 1.063.286 1.357.457l-.656 2.846-1.198-.389a6.427 6.427 0 0 0-1.571-.171c-1.312-.011-2.397.411-3.245 1.257-.859.834-1.3 2.114-1.334 3.817 0 1.555.419 2.766 1.221 3.657.803.88 1.933 1.338 3.38 1.349l1.504-.137a6.007 6.007 0 0 0 1.243-.366zm.564-5.68h2.261v-2.286h2.261v2.286h2.261v2.286h-2.26v2.286h-2.262v-2.286h-2.26v-2.286zm7.913 0h2.261v-2.286h2.261v2.286H29v2.286h-2.26v2.286h-2.262v-2.286h-2.26v-2.286z"/></svg>