<svg xmlns="http://www.w3.org/2000/svg" width="32" height="32"><g fill="none"><path fill="#2ECC71" d="M16.65 4.616c-.268 0-.536.104-.743.306l-.01.008L8.94 8.95l6.938 6.938v.005l8.339 8.339 1.59-2.864-5.733-13.763L17.4 4.93a1.059 1.059 0 0 0-.75-.314z"/><path fill="#3965BD" d="M8.958 8.934l-4.019 6.95-.007.01a1.053 1.053 0 0 0 .006 1.493l3.33 3.334 13.027 5.124 2.944-1.636-.079-.08-.02.003-8.166-8.18h-.01L8.957 8.934z"/><path fill="#3965BD" d="M8.94 8.937l7.097 7.105h.01l8.169 8.177 3.11-.593.004-9.199-3.283-3.218c-.72-.705-1.825-1.159-2.935-1.308l.003-.036L8.94 8.937z"/><path fill="#2ECC71" d="M8.949 8.945l7.101 7.102v.01l8.173 8.173-.595 3.109H14.43l-3.216-3.285c-.704-.72-1.158-1.825-1.307-2.936l-.036.003L8.95 8.945z"/></g></svg>