<svg xmlns="http://www.w3.org/2000/svg" width="32" height="32"><g fill="none" fill-rule="evenodd"><path fill="#3965BD" d="M18.924 13.056v2.579h1.238c.572 0 1.16-.105 1.701-.294.267-.093.565-.222.828-.385-.346-.465-.522-1.052-.574-1.63-.071-.788.083-1.813.6-2.429l.258-.306.306.254c.773.639 1.422 1.532 1.537 2.55.93-.282 2.022-.215 2.842.273l.336.2-.177.355c-.693 1.394-2.143 1.826-3.56 1.75-2.12 5.44-6.736 8.015-12.334 8.015-2.891 0-5.545-1.113-7.055-3.756l-.245-.505c-.511-1.163-.68-2.437-.566-3.71l.035-.382h2.094v-2.58h2.45v-2.522h4.898V8.01h2.938v5.046h2.45zm-6.332 10.499c-1.45-.71-2.246-1.673-2.69-2.725-.538.159-1.185.26-1.938.303-.283.017-.581.025-.894.025-.36 0-.741-.011-1.14-.033 1.33 1.37 2.966 2.423 5.995 2.443.224 0 .446-.005.667-.013zM6.596 13.476v2.187H8.72v-2.187H6.596zm2.45-2.523v2.187h2.122v-2.187H9.045zm0 2.523v2.187h2.122v-2.187H9.045zm2.449 0v2.187h2.122v-2.187h-2.122zm0-2.523v2.187h2.122v-2.187h-2.122zm2.449 2.523v2.187h2.122v-2.187h-2.122zm0-2.523v2.187h2.122v-2.187h-2.122zm0-2.522v2.186h2.122V8.431h-2.122zm2.449 5.045v2.187h2.122v-2.187h-2.122zm-5.358 5.732a.595.595 0 0 0-.585.603c0 .333.262.603.585.603.324 0 .586-.27.586-.603a.595.595 0 0 0-.586-.603z"/><path fill="#6A9FB5" d="M11.035 19.379c.054 0 .105.01.152.03a.177.177 0 0 0-.086.152c0 .097.077.176.172.176a.17.17 0 0 0 .15-.092c.02.051.032.107.032.166a.426.426 0 0 1-.42.432.426.426 0 0 1-.42-.432c0-.239.189-.432.42-.432"/></g></svg>