<svg xmlns="http://www.w3.org/2000/svg" width="32" height="32"><g fill="none" fill-rule="nonzero"><path fill="#8251A8" d="M16.457 27.304c-4.118 0-7.457-3.971-7.457-8.87 0-4.012 2.96-8.915 5.244-11.901C15.326 5.119 17.371 4 17.371 4s-1.048 5.714 1.794 7.984c2.523 2.014 4.38 4.635 4.38 6.94 0 4.618-2.97 8.38-7.088 8.38z"/><path fill="#F4BF75" d="M30.5 21.333h-.75V19.81c0-2.103-1.68-3.81-3.75-3.81-2.07 0-3.75 1.707-3.75 3.81v1.523h-.75c-.825 0-1.5.686-1.5 1.524v7.62c0 .837.675 1.523 1.5 1.523h9c.825 0 1.5-.686 1.5-1.524v-7.619c0-.838-.675-1.524-1.5-1.524zM26 28.19c-.825 0-1.5-.685-1.5-1.523 0-.838.675-1.524 1.5-1.524s1.5.686 1.5 1.524-.675 1.523-1.5 1.523zm2.325-6.857h-4.65V19.81c0-1.303 1.043-2.362 2.325-2.362 1.282 0 2.325 1.059 2.325 2.362v1.523z"/></g></svg>