<svg xmlns="http://www.w3.org/2000/svg" width="32" height="32"><path fill="#D14748" fill-rule="evenodd" d="M7.769 23.998a9.681 9.681 0 0 1-1.256-1.589c-.368-.58-.678-1.2-.93-1.862a11.76 11.76 0 0 1-.578-2.098 13 13 0 0 1-.2-2.296c0-1.424.213-2.74.64-3.948a10.093 10.093 0 0 1 1.822-3.203H4V24h3.77l-.001-.002zm17.217 0c.402-.414.783-.873 1.143-1.377.36-.505.7-1.039 1.018-1.602l-3.619-1.788a11.524 11.524 0 0 1-2.363 2.732c-.938.794-2.052 1.192-3.342 1.192-.922 0-1.714-.187-2.376-.56a4.55 4.55 0 0 1-1.622-1.54c-.418-.653-.724-1.419-.917-2.296-.193-.877-.29-1.82-.29-2.83h14v-.895c.033-1.209-.1-2.322-.402-3.34A8.085 8.085 0 0 0 24.858 9H28v14.998h-3.016.002zm-12.14-11.57c.083-.91.448-1.65 1.093-2.222a3.323 3.323 0 0 1 2.275-.856c.855 0 1.567.285 2.136.856.57.571.863 1.312.88 2.222h-6.384z"/></svg>