<svg data-name="Layer 1" xmlns="http://www.w3.org/2000/svg" viewBox="0 0 24 24"><path d="M13.81 18.75H3.2V7.5h14.34l.53-.32C19.94 6 20.2 6 20.46 6a1.9 1.9 0 0 1 1.75 1.84 1.93 1.93 0 0 1-.29 1c-.08.11-.2.28-1.12.87v1.62H23V7.5a2.23 2.23 0 0 0-2.2-2.25H12L9.8 3H3.2A2.23 2.23 0 0 0 1 5.25v13.5A2.23 2.23 0 0 0 3.2 21H14c0-.72-.12-1.5-.19-2.25z" fill="#2979FF"/><path d="M14.8 18.64c-.23-2.42-.42-4.42-.42-4.46s-.19-.07-.44-.07h-.44v-1.72H17V9l1.63-1a9.54 9.54 0 0 1 1.87-1 .91.91 0 0 1 .75.84.94.94 0 0 1-.11.46 9.17 9.17 0 0 1-1.26.87l-1.15.71v2.49h3.37v1.72h-.86l-.43 4.46-.43 4.45h-5.15l-.43-4.38z" fill="#e53935"/></svg>