<svg id="Layer_1" data-name="Layer 1" xmlns="http://www.w3.org/2000/svg" viewBox="0 0 24 24"><defs><style>.cls-1{fill:none}</style><clipPath id="clip-path"><circle class="cls-1" cx="16.19" cy="16.17" r="1.04"/></clipPath><clipPath id="clip-path-2"><path class="cls-1" d="M9.42 9.92h16.67v16.67H9.42z"/></clipPath></defs><g clip-path="url(#clip-path)"><g clip-path="url(#clip-path-2)"><path fill="#f4bf75" d="M12.54 12.52h7.29v7.29h-7.29z"/></g></g><path d="M10.5 18.75H3.2V7.5h17.6v4H23v-4a2.23 2.23 0 0 0-2.2-2.25H12L9.8 3H3.2A2.23 2.23 0 0 0 1 5.25v13.5A2.23 2.23 0 0 0 3.2 21h7.3z" fill="#F44336"/><path d="M23 13.56v6.25l-2.61-2.6-3.12 3.64-2.6-2.08-2.09 2.08v-7.29zm.52-1H12a.52.52 0 0 0-.52.52v10.38A.52.52 0 0 0 12 24h11.48a.52.52 0 0 0 .52-.52V13a.52.52 0 0 0-.52-.48z" fill="#9dbd58"/></svg>