<svg data-name="Layer 1" xmlns="http://www.w3.org/2000/svg" viewBox="0 0 24 24"><path d="M23.78 17.93l-4.86-4.86a.66.66 0 0 0-.5-.21.73.73 0 0 0-.52.21l-1 1 1.28 1.28a.77.77 0 0 1 .45 0 .92.92 0 0 1 .43.24.82.82 0 0 1 .22.41.83.83 0 0 1 0 .47l1.23 1.24a.72.72 0 0 1 .46 0 .73.73 0 0 1 .42.23.79.79 0 0 1 .25.6.85.85 0 0 1-.85.85.84.84 0 0 1-.83-.69.91.91 0 0 1 0-.49L18.83 17v3l.12.07.11.09a.84.84 0 0 1 0 1.2.85.85 0 1 1-1.2-1.2.69.69 0 0 1 .13-.11l.15-.08V17a.71.71 0 0 1-.15-.08l-.13-.1a.79.79 0 0 1-.25-.45.85.85 0 0 1 .06-.5l-1.26-1.26-3.33 3.35a.68.68 0 0 0 0 1l4.86 4.86a.67.67 0 0 0 .5.22.7.7 0 0 0 .51-.22L23.78 19a.67.67 0 0 0 .22-.51.7.7 0 0 0-.22-.51z" fill="#d14748" fill-rule="evenodd"/><path d="M12.37 19.63a1.62 1.62 0 0 1-.48-.88H3.2V7.5h17.6v6l2.2 2.2V7.5a2.23 2.23 0 0 0-2.2-2.25H12L9.8 3H3.2A2.23 2.23 0 0 0 1 5.25v13.5A2.23 2.23 0 0 0 3.2 21h10.54z" fill="#F44336"/></svg>