<svg data-name="Layer 1" xmlns="http://www.w3.org/2000/svg" viewBox="0 0 24 24"><path d="M8.4 17.92a5.27 5.27 0 0 1 4.25-5.17v-3l4.26 3.41v-.5h2.83A5.18 5.18 0 0 1 23 13.82V7.4a2.22 2.22 0 0 0-2.2-2.2H12L9.8 3H3.2A2.22 2.22 0 0 0 1 5.2v13.6a2 2 0 0 0 2.2 2h6.07a5.2 5.2 0 0 1-.87-2.88z" fill="#424242"/><path d="M19.74 13.66h-1.83v1.21h1.83a3 3 0 0 1 0 6.09v-1.83l-3 2.44 3 2.43v-1.83a4.26 4.26 0 1 0 0-8.51z" fill="#f4bf75"/><path d="M10.61 17.92a3.05 3.05 0 0 1 3-3.05v1.83l3-2.44-3-2.43v1.83a4.26 4.26 0 0 0 0 8.51h1.83V21h-1.79a3.05 3.05 0 0 1-3.04-3.08z" fill="#9dbd58"/></svg>