<svg id="Layer_1" data-name="Layer 1" xmlns="http://www.w3.org/2000/svg" viewBox="0 0 24 24"><defs><style>.cls-1{fill:#474C60}</style></defs><rect class="cls-1" x="15.31" y="14.91" width="5.69"/><path d="M23.5 20a.5.5 0 0 1-.5-.5V13h-5.5a.5.5 0 0 1 0-1h6a.5.5 0 0 1 .5.5v7a.5.5 0 0 1-.5.5z" fill="#f4bf75"/><path d="M19.5 24h-6a.5.5 0 0 1-.5-.5v-7a.5.5 0 0 1 .5-.5h6a.5.5 0 0 1 .5.5v7a.5.5 0 0 1-.5.5zM14 23h5v-6h-5z" fill="#2ecc71"/><path d="M21.5 22a.5.5 0 0 1-.5-.5V15h-5.5a.5.5 0 0 1 0-1h6a.5.5 0 0 1 .5.5v7a.5.5 0 0 1-.5.5z" fill="#6a9fb5"/><path class="cls-1" d="M12 16.5a1.5 1.5 0 0 1 1.5-1.5h.59a1.64 1.64 0 0 1-.09-.5 1.5 1.5 0 0 1 1.5-1.5h.59a1.64 1.64 0 0 1-.09-.5 1.5 1.5 0 0 1 1.5-1.5H23V7.4a2.22 2.22 0 0 0-2.2-2.2H12L9.8 3H3.2A2.22 2.22 0 0 0 1 5.2v13.6a2 2 0 0 0 2.2 2H12z"/></svg>