<svg id="Layer_1" data-name="Layer 1" xmlns="http://www.w3.org/2000/svg" viewBox="0 0 24 24"><defs><style>.cls-2{fill:#ee9d5c}</style></defs><path d="M17.71 15.37l5.6-2.52-5.31-2.4a.74.74 0 0 0-.51 0l-5.35 2.4z" fill="#f4bf75"/><path class="cls-2" d="M18.34 16.44V24l5.29-2.33a.62.62 0 0 0 .37-.57v-7.18zM17.08 16.44l-5.67-2.52v7.18a.55.55 0 0 0 .37.57l5.3 2.33z"/><path d="M17.05 9.54a1.47 1.47 0 0 1 .63-.13 1.8 1.8 0 0 1 .6.1l4.72 2.1V7.4a2.22 2.22 0 0 0-2.2-2.2H12L9.8 3H3.2A2.22 2.22 0 0 0 1 5.2v13.6a2 2 0 0 0 2.2 2h7.21v-8.29" fill="#4E5579"/></svg>