<svg data-name="Layer 1" xmlns="http://www.w3.org/2000/svg" viewBox="0 0 24 24"><path d="M23.5 20a.5.5 0 0 1-.5-.5V13h-5.5a.5.5 0 0 1 0-1h6a.5.5 0 0 1 .5.5v7a.5.5 0 0 1-.5.5z" fill="#f4bf75"/><path d="M19.5 24h-6a.5.5 0 0 1-.5-.5v-7a.5.5 0 0 1 .5-.5h6a.5.5 0 0 1 .5.5v7a.5.5 0 0 1-.5.5zM14 23h5v-6h-5z" fill="#2ecc71"/><path d="M12 18.75H3.2V7.5h17.6V11H23V7.5a2.23 2.23 0 0 0-2.2-2.25H12L9.8 3H3.2A2.23 2.23 0 0 0 1 5.25v13.5A2.23 2.23 0 0 0 3.2 21H12z" fill="#616161"/><path d="M21.5 22a.5.5 0 0 1-.5-.5V15h-5.5a.5.5 0 0 1 0-1h6a.5.5 0 0 1 .5.5v7a.5.5 0 0 1-.5.5z" fill="#6a9fb5"/></svg>