<svg id="Layer_1" data-name="Layer 1" xmlns="http://www.w3.org/2000/svg" viewBox="0 0 24 24"><defs><style>.cls-2{fill:none}.cls-7{clip-path:url(#clip-path-4)}</style><clipPath id="clip-path"><path d="M17.31 9a.8.8 0 0 0-.36.09l-6 3.39a.73.73 0 0 0-.36.63v6.81a.7.7 0 0 0 .36.62l6 3.4a.71.71 0 0 0 .72 0l6-3.4a.72.72 0 0 0 .36-.62v-6.85a.75.75 0 0 0-.36-.63l-6-3.39a.74.74 0 0 0-.36-.05" clip-rule="evenodd" fill="none"/></clipPath><clipPath id="clip-path-2"><path class="cls-2" d="M8.4 7.28h17.83v17.83H8.4z"/></clipPath><clipPath id="clip-path-3"><path class="cls-2" d="M7.84 6.17h18.94v20.62H7.84z"/></clipPath><clipPath id="clip-path-4"><path class="cls-2" d="M10.63 8.96H24V24H10.63z"/></clipPath><clipPath id="clip-path-5"><path class="cls-2" transform="rotate(-30 17.255 16.364)" d="M13.38 8.57h7.74v15.6h-7.74z"/></clipPath></defs><g clip-path="url(#clip-path)"><g clip-path="url(#clip-path-2)"><g clip-path="url(#clip-path-3)"><path fill="#9dbd58" d="M7.84 6.17h18.94v20.62H7.84z"/><g clip-path="url(#clip-path-5)"><path transform="rotate(-30 17.255 16.364)" fill="#aee33e" d="M10.59 5.78H23.9v21.17H10.59z"/></g></g></g></g><path d="M9.63 19.88v-1.13H3.2V7.5h17.6v2.18l2.2 1.25V7.5a2.23 2.23 0 0 0-2.2-2.25H12L9.8 3H3.2A2.23 2.23 0 0 0 1 5.25v13.5A2.23 2.23 0 0 0 3.2 21h6.86a1.7 1.7 0 0 1-.43-1.12z" fill="#FF4081"/></svg>