<svg data-name="Layer 1" xmlns="http://www.w3.org/2000/svg" viewBox="0 0 24 24"><path d="M19.46 21.12l-.08.05a.31.31 0 0 0-.1 0h-.05v-.09a2.22 2.22 0 0 1 .23-.52 1.44 1.44 0 0 1 .36-.42.77.77 0 0 1 0 .56.78.78 0 0 1-.36.42zm-2.46.61l.39-.44.4-.45a.86.86 0 0 1-.29.61c-.21.24-.38.33-.49.28zM14.75 19a2.19 2.19 0 0 1 0 .27c0 .09-.05.18-.07.26-.09.3-.2.6-.31.88s-.23.58-.36.87l-.09.15a.36.36 0 0 0-.08.15h-.05a.16.16 0 0 1-.1.05s-.06 0-.08-.08a1 1 0 0 1-.05-.16 1.16 1.16 0 0 1 0-.18.36.36 0 0 1 0-.11V21a2.36 2.36 0 0 1 .13-.8 3.12 3.12 0 0 1 .35-.74 1.89 1.89 0 0 1 .2-.27.83.83 0 0 1 .16-.19l.1-.06h.11a.1.1 0 0 1 .14.12zm-3.2 2.42a2 2 0 0 1-.21.77 2.07 2.07 0 0 1-.51.6 1.46 1.46 0 0 1-.38.27 1.33 1.33 0 0 1-.44.14h-.17a.47.47 0 0 1-.17 0 .44.44 0 0 1-.17-.2.65.65 0 0 1 0-.2 1 1 0 0 1 .06-.34 1.38 1.38 0 0 1 .14-.3 1.22 1.22 0 0 1 .27-.36 3.18 3.18 0 0 1 .33-.3l.58-.41.6-.37a1.86 1.86 0 0 1 .07.34 1.29 1.29 0 0 1 0 .34zM24 20.58a1.4 1.4 0 0 0-.22-.61 2 2 0 0 0-.45-.47 1.75 1.75 0 0 0-.67-.36 3.09 3.09 0 0 0-.75-.12 4.44 4.44 0 0 0-.63 0c-.2 0-.41.08-.61.14l-.17.07-.18.07a3 3 0 0 0-.17-.36 1.52 1.52 0 0 1-.11-.38v-.29A.86.86 0 0 1 20 18a2.29 2.29 0 0 1 .07-.28 2.76 2.76 0 0 1 .08-.27.13.13 0 0 0 0-.12.14.14 0 0 0-.08-.07h-.11a1.13 1.13 0 0 0-.32 0 1.75 1.75 0 0 0-.33.06.23.23 0 0 0-.1.05.1.1 0 0 0 0 .09.41.41 0 0 0 0 .08.14.14 0 0 1 0 .06l-.09.31a1.69 1.69 0 0 1-.1.27c-.12.24-.24.47-.37.69l-.38.68-.06.07a.43.43 0 0 1 0 .07c-.05-.09-.1-.18-.14-.27a.89.89 0 0 1-.08-.29 2 2 0 0 1 0-.34 1.37 1.37 0 0 1 0-.35c0-.08.05-.16.07-.25l.09-.25v-.09a.14.14 0 0 0-.07-.06h-.07a1.4 1.4 0 0 0-.35 0 1.86 1.86 0 0 0-.34.07.19.19 0 0 0-.09.05V18l-.09.31-.11.3-1.09 2.37a2.72 2.72 0 0 1-.11.25 1.71 1.71 0 0 1-.13.23.25.25 0 0 0 0 .07l-.05.06a.86.86 0 0 0 0-.16.76.76 0 0 1 0-.15l.1-.44.11-.44.09-.37c0-.12.07-.24.1-.36a.5.5 0 0 0 0-.12.14.14 0 0 0 0-.1.33.33 0 0 0-.22-.11.24.24 0 0 0-.21.06 2.64 2.64 0 0 0 0-.28 1.24 1.24 0 0 0 0-.27.49.49 0 0 0-.18-.26.51.51 0 0 0-.3-.1h-.17l-.17.05a2 2 0 0 0-.58.34 4.25 4.25 0 0 0-.47.48h-.05l-.55.31-.57.29-.2.11-.21.1-.16-.14-.16-.15-.52-.41c-.18-.13-.35-.27-.53-.42s-.3-.24-.45-.37a3.31 3.31 0 0 1-.4-.44 2.32 2.32 0 0 1-.2-.38 1.43 1.43 0 0 1-.09-.42 1.41 1.41 0 0 1 .07-.54 2.05 2.05 0 0 1 .22-.5 3.14 3.14 0 0 1 .45-.57l.52-.48c.21-.16.41-.3.63-.44l.65-.39 1-.47a9.25 9.25 0 0 1 1-.37 7.84 7.84 0 0 1 1.07-.23 5.05 5.05 0 0 1 1.1 0l.43.07a2 2 0 0 1 .4.17 1.15 1.15 0 0 1 .26.19.68.68 0 0 1 .18.26 1 1 0 0 1 .05.34 1.73 1.73 0 0 1 0 .32 1.94 1.94 0 0 1-.26.61 2.78 2.78 0 0 1-.41.51 4.23 4.23 0 0 1-.84.69 4.43 4.43 0 0 1-1 .45 4.37 4.37 0 0 1-.62.17 5.93 5.93 0 0 1-.63.1 4.34 4.34 0 0 1-.51 0 2.36 2.36 0 0 1-.51-.12 2.1 2.1 0 0 1-.3-.15.86.86 0 0 1-.25-.22.08.08 0 0 0-.07 0 .05.05 0 0 0 0 .05.08.08 0 0 0 0 .07v.12l.06.1a1.12 1.12 0 0 0 .19.24 1.88 1.88 0 0 0 .24.18 1.61 1.61 0 0 0 .53.22 3.68 3.68 0 0 0 .58.08 5.14 5.14 0 0 0 .88-.05 8.71 8.71 0 0 0 .86-.17 5.17 5.17 0 0 0 .59-.68 4.07 4.07 0 0 0 1-.76 4.39 4.39 0 0 0 .59-.84 2.68 2.68 0 0 0 .29-1 2.17 2.17 0 0 0 0-.51 1.76 1.76 0 0 0-.16-.49 1.58 1.58 0 0 0-.34-.43 3.13 3.13 0 0 0-.46-.32 3.44 3.44 0 0 0-.76-.27 4.48 4.48 0 0 0-.82-.1H15a5.66 5.66 0 0 0-1.93.39l-.71.26c-.23.1-.45.2-.67.32a10.88 10.88 0 0 0-1.41.8 6.52 6.52 0 0 0-1.24 1 5 5 0 0 0-.51.63 3.68 3.68 0 0 0-.37.71l-.06.24c0 .08 0 .16-.05.23v.21a.2.2 0 0 1 0 .08.31.31 0 0 1 0 .1 2.45 2.45 0 0 0 .22.5 3.76 3.76 0 0 0 .32.46 6.11 6.11 0 0 0 .58.56c.21.17.42.33.65.49l.56.39.59.41.09.07.1.08H11a6.79 6.79 0 0 0-.75.41 7.05 7.05 0 0 0-.7.46l-.39.33a1.84 1.84 0 0 0-.31.38 1.81 1.81 0 0 0-.29.71 1.42 1.42 0 0 0 .09.75.91.91 0 0 0 .13.22 1.45 1.45 0 0 0 .18.17h.36l.19.05h.39a2.57 2.57 0 0 0 .61-.14 3 3 0 0 0 .57-.28 2.85 2.85 0 0 0 .68-.66 2.42 2.42 0 0 0 .39-.86 2.67 2.67 0 0 0 .09-.69 2.37 2.37 0 0 0-.11-.69.19.19 0 0 0 0-.07.13.13 0 0 1 0-.06v-.14l.44-.25.44-.23v.08a.25.25 0 0 0 0 .07c-.05.19-.1.38-.13.56a2.79 2.79 0 0 0 0 .58 2.9 2.9 0 0 0 .12.6 1.55 1.55 0 0 0 .28.54.47.47 0 0 0 .43.22.56.56 0 0 0 .45-.2l.11-.16a.6.6 0 0 0 .09-.15c.08-.15.15-.3.22-.44l.2-.44v.39a1.28 1.28 0 0 0 .06.55.58.58 0 0 0 .13.2.34.34 0 0 0 .21.09.25.25 0 0 0 .17 0 .67.67 0 0 0 .14-.09 1.07 1.07 0 0 0 .19-.18.86.86 0 0 0 .15-.22c.13-.22.25-.44.37-.66s.24-.44.35-.65l.33-.74c.11-.25.22-.49.34-.73V19a2.46 2.46 0 0 0 .07.29 1.31 1.31 0 0 0 .09.28 1.61 1.61 0 0 0 .12.33 1.77 1.77 0 0 0 .15.31.3.3 0 0 1 0 .13.41.41 0 0 1-.06.11l-.44.52-.42.51a.52.52 0 0 1-.1.11.83.83 0 0 0-.08.12V21.88a.22.22 0 0 0 0 .16.2.2 0 0 0 .15.09h.35a1.69 1.69 0 0 0 .56-.12 2.19 2.19 0 0 0 .5-.27 1.15 1.15 0 0 0 .42-.52 1.26 1.26 0 0 0 0-.67.82.82 0 0 0-.06-.19l-.07-.18a.25.25 0 0 1 0-.08v-.08c.17-.23.32-.46.47-.71s.28-.49.4-.74a4.85 4.85 0 0 0 .16.63 2.66 2.66 0 0 0 .28.59l-.17.16-.16.15a3.66 3.66 0 0 0-.32.39 1.85 1.85 0 0 0-.23.44 1.55 1.55 0 0 0 0 .21.74.74 0 0 0 0 .21.4.4 0 0 0 .14.28.35.35 0 0 0 .3.05 2.23 2.23 0 0 0 .68-.26 2.05 2.05 0 0 0 .55-.47.77.77 0 0 0 .18-.43 1 1 0 0 0 0-.46.74.74 0 0 0 0-.14.65.65 0 0 0 0-.13l.18-.06.18-.05a3.75 3.75 0 0 1 .94-.09 3.1 3.1 0 0 1 .94.2 1.38 1.38 0 0 1 .81.69.81.81 0 0 1 .08.6.88.88 0 0 1-.38.49h-.07l-.06.05a.58.58 0 0 0 .19 0l.17-.1a1.3 1.3 0 0 0 .31-.31.76.76 0 0 0 .15-.41v-.21z" fill="#aa759f" fill-rule="evenodd"/><path d="M8.5 20.87q.21-.2.42-.36a4.44 4.44 0 0 1 .38-.27h-.05q-.37-.25-.72-.54a7 7 0 0 1-.68-.7l-.19-.26H3.2V7.5h17.6v9.06a1.62 1.62 0 0 1 .25.34 1.15 1.15 0 0 1 .05.71v.06L21 18v.12h.16a6.49 6.49 0 0 1 .77-.05 4.12 4.12 0 0 1 1 .16H23V7.5a2.23 2.23 0 0 0-2.2-2.25H12L9.8 3H3.2A2.23 2.23 0 0 0 1 5.25v13.5A2.23 2.23 0 0 0 3.2 21h5.17a1.59 1.59 0 0 1 .13-.13z" fill="#FF7042"/></svg>