<svg data-name="Layer 1" xmlns="http://www.w3.org/2000/svg" viewBox="0 0 24 24"><path d="M13.46 15.11h-1v-3.72H16V8.48l2.1-1.3C19.94 6 20.2 6 20.46 6a1.88 1.88 0 0 1 1.45 2.89c-.07.11-.22.31-1.55 1.13l-.68.42v.93H23v-4a2.22 2.22 0 0 0-2.2-2.2H12L9.8 3H3.2A2.22 2.22 0 0 0 1 5.2v13.6a2 2 0 0 0 2.2 2H14c-.22-2.4-.5-5.31-.54-5.69z" fill="#474C60"/><path d="M14.8 18.64c-.23-2.42-.42-4.42-.42-4.46s-.19-.07-.44-.07h-.44v-1.72H17V9l1.63-1a9.54 9.54 0 0 1 1.87-1 .91.91 0 0 1 .75.84.94.94 0 0 1-.11.46 9.17 9.17 0 0 1-1.26.87l-1.15.71v2.49h3.37v1.72h-.86l-.43 4.46-.43 4.45h-5.15l-.43-4.38z" fill="#e53935"/></svg>