<svg data-name="Layer 1" xmlns="http://www.w3.org/2000/svg" viewBox="0 0 24 24"><path d="M19.74 13.66h-1.83v1.21h1.83a3 3 0 0 1 0 6.09v-1.83l-3 2.44 3 2.43v-1.83a4.26 4.26 0 1 0 0-8.51z" fill="#f4bf75"/><path d="M8.48 18.75H3.2V7.5h17.6v5.26a5.24 5.24 0 0 1 2.2 1.06V7.5a2.23 2.23 0 0 0-2.2-2.25H12L9.8 3H3.2A2.23 2.23 0 0 0 1 5.25v13.5A2.23 2.23 0 0 0 3.2 21h6.22a5.12 5.12 0 0 1-.94-2.25z" fill="#FF7042"/><path d="M10.61 17.92a3.05 3.05 0 0 1 3-3.05v1.83l3-2.44-3-2.43v1.83a4.26 4.26 0 0 0 0 8.51h1.83V21h-1.79a3.05 3.05 0 0 1-3.04-3.08z" fill="#9dbd58"/></svg>