<svg data-name="Layer 1" xmlns="http://www.w3.org/2000/svg" viewBox="0 0 24 24"><path fill="#3965bd" d="M24 10l-1.12 12.6-5.02 1.4-5-1.4L11.74 10H24z"/><path fill="#7accee" d="M22.88 22.6L24 10h-6.08l-.06 14 5.02-1.4z"/><path d="M17.87 12.58h-3.85l.14 1.54h5.87l-.14 1.58H14.3l.14 1.55H19.75l-.17 2-1.71.47h-.01l-1.7-.47-.11-1.23h-1.54l.21 2.43 3.14.88.01-.01 3.14-.87.03-.26.35-4.07.04-.42.28-3.12h-3.84z"/><path d="M10.65 9H23V7.4a2.22 2.22 0 0 0-2.2-2.2H12L9.8 3H3.2A2.22 2.22 0 0 0 1 5.2v13.6a2 2 0 0 0 2.2 2h8.49z" fill="#90A4AE"/></svg>