<svg data-name="Layer 1" xmlns="http://www.w3.org/2000/svg" viewBox="0 0 24 24"><path d="M19.34 22a2.09 2.09 0 0 0 2 1.11c1 0 1.79-.53 1.79-1.51s-.52-1.3-1.44-1.7l-.27-.11c-.47-.2-.66-.33-.66-.65a.46.46 0 0 1 .51-.47.74.74 0 0 1 .7.47l.84-.56a1.61 1.61 0 0 0-1.54-.85 1.44 1.44 0 0 0-1.58 1.43c0 .88.52 1.29 1.3 1.62l.26.12c.5.22.8.35.8.72s-.29.53-.74.53a1.17 1.17 0 0 1-1.07-.66zm-3.82.12a1.69 1.69 0 0 0 1.63 1 1.47 1.47 0 0 0 1.61-1.63v-3.71h-1.08v3.66c0 .55-.23.69-.58.69s-.52-.25-.69-.55zm-3-9.61H24V24H12.5z" fill="#f4bf75"/><path d="M11.5 11.5H23V7.4a2.22 2.22 0 0 0-2.2-2.2H12L9.8 3H3.2A2.22 2.22 0 0 0 1 5.2v13.6a2 2 0 0 0 2.2 2h8.3z" fill="#90A4AE"/></svg>