<svg id="Layer_1" data-name="Layer 1" xmlns="http://www.w3.org/2000/svg" viewBox="0 0 24 24"><defs><style>.cls-2{fill:#6a9fb5}</style></defs><path d="M10.54 19.59a1.79 1.79 0 0 1-.54-1.28 1.76 1.76 0 0 1 .54-1.31l3.14-3.15 2.55 2.55 1.22-3.64a1.83 1.83 0 0 1 1.7-1.23 1.93 1.93 0 0 1 .62.11A1.82 1.82 0 0 1 20.89 14l-.17.49.6-.6L23 15.57V7.4a2.22 2.22 0 0 0-2.2-2.2H12L9.8 3H3.2A2.22 2.22 0 0 0 1 5.2v13.6a2 2 0 0 0 2.2 2h8.55z" fill="#4a616c"/><path class="cls-2" d="M21.32 21.32l-1.14-1.14 1.87-1.87-1.87-1.87 1.14-1.13 2.44 2.43a.8.8 0 0 1 0 1.14zM13.68 21.32l-2.44-2.44a.8.8 0 0 1 0-1.14l2.44-2.43 1.14 1.13L13 18.31l1.87 1.87z"/><path d="M15.87 24a.29.29 0 0 1-.24-.08.82.82 0 0 1-.49-1.06l3.25-9.75a.83.83 0 1 1 1.55.57l-3.25 9.75a1 1 0 0 1-.82.57z" fill="#ff6e9f"/></svg>