<svg id="Layer_1" data-name="Layer 1" xmlns="http://www.w3.org/2000/svg" viewBox="0 0 24 24"><defs><style>.cls-1{fill:#6a9fb5}.cls-2{fill:#FFA000}</style></defs><path class="cls-1" d="M21.32 21.32l-1.14-1.14 1.87-1.87-1.87-1.87 1.14-1.13 2.44 2.43a.8.8 0 0 1 0 1.14zM13.68 21.32l-2.44-2.44a.8.8 0 0 1 0-1.14l2.44-2.43 1.14 1.13L13 18.31l1.87 1.87z"/><path class="cls-2" d="M10.54 19.59a1.79 1.79 0 0 1-.48-.84H3.2V7.5h17.6v5.1a1.82 1.82 0 0 1 .09 1.4l-.09.26v.15l.52-.52L23 15.57V7.5a2.23 2.23 0 0 0-2.2-2.25H12L9.8 3H3.2A2.23 2.23 0 0 0 1 5.25v13.5A2.23 2.23 0 0 0 3.2 21H12zM14.8 18.75l.5.49"/><path d="M15.87 24a.29.29 0 0 1-.24-.08.82.82 0 0 1-.49-1.06l3.25-9.75a.83.83 0 1 1 1.55.57l-3.25 9.75a1 1 0 0 1-.82.57z" fill="#ff6e9f"/></svg>