<svg xmlns="http://www.w3.org/2000/svg" width="32" height="32"><g fill="#D14748"><path d="M8 26v-1.604l2.63-.155c.31-.023.37-.111.37-.442V8H6.188c-.243 0-.31.022-.354.243L5.481 10H4V6h16v4h-1.481l-.353-1.757c-.044-.22-.111-.243-.354-.243H13v15.799c0 .31.038.398.37.42l2.63.177V26H8z"/><path d="M19 26v-1.604l1.63-.155c.31-.023.37-.111.37-.442V15h-2.812c-.243 0-.31.022-.354.243L17.481 17H16v-4h12v4h-1.481l-.353-1.757c-.044-.22-.111-.243-.354-.243H23v8.799c0 .31.038.398.37.42l1.63.177V26h-6z"/></g></svg>