<svg xmlns="http://www.w3.org/2000/svg" width="32" height="32"><path fill="#8251A8" d="M16.001 4.007A11.93 11.93 0 0 0 4.007 16 11.93 11.93 0 0 0 16 27.995a11.93 11.93 0 0 0 11.994-11.994A11.929 11.929 0 0 0 16.001 4.007zM6.614 16.105l9.283 9.283c-5.111 0-9.283-4.172-9.283-9.283zm11.473 9.074L6.823 13.915C7.76 9.743 11.516 6.614 16 6.614a9.476 9.476 0 0 1 7.614 3.86l-1.355 1.146a7.657 7.657 0 0 0-6.362-3.337 7.555 7.555 0 0 0-7.197 5.11l9.804 9.805c2.4-.835 4.276-2.92 4.798-5.424h-4.068v-1.773h6.154c0 4.485-3.129 8.24-7.301 9.178z"/></svg>