<svg xmlns="http://www.w3.org/2000/svg" width="32" height="32"><path fill="#D14748" fill-rule="evenodd" d="M27.526 14.934L17.056 4.466A1.412 1.412 0 0 0 15.973 4c-.432 0-.803.155-1.112.466L12.7 6.626l2.759 2.76c.31-.111.637-.128.98-.05.344.078.648.25.915.515.244.244.405.538.483.88.078.344.062.682-.049 1.015l2.66 2.659c.31-.11.637-.133.98-.066.343.067.648.232.915.498.354.354.531.786.531 1.295 0 .509-.177.94-.531 1.295a1.763 1.763 0 0 1-1.296.532c-.51 0-.94-.177-1.295-.532a1.745 1.745 0 0 1-.498-.946 1.886 1.886 0 0 1 .1-1.047l-2.493-2.492v6.546c.089.044.172.094.248.149.077.055.16.116.25.183.354.354.531.786.531 1.295 0 .51-.177.941-.532 1.295a1.711 1.711 0 0 1-1.295.566c-.51 0-.941-.188-1.296-.566a1.71 1.71 0 0 1-.566-1.295c0-.509.19-.94.566-1.295a1.793 1.793 0 0 1 .598-.398v-6.58a1.67 1.67 0 0 1-.315-.166 1.965 1.965 0 0 1-.283-.232 1.684 1.684 0 0 1-.532-.964 1.735 1.735 0 0 1 .135-1.063l-2.726-2.725-7.18 7.213c-.31.287-.465.648-.465 1.08 0 .433.155.793.466 1.08l10.47 10.47c.288.31.648.465 1.081.465.433 0 .803-.155 1.113-.466l10.404-10.402c.31-.311.466-.677.466-1.098 0-.421-.155-.787-.466-1.097l-.008-.003z"/></svg>