<svg xmlns="http://www.w3.org/2000/svg" width="32" height="32"><path fill="#78909C" d="M16.5 4C9.598 4 4 9.508 4 16.303c0 5.436 3.581 10.047 8.55 11.673.625.113.853-.267.853-.592 0-.293-.011-1.263-.018-2.29-3.476.744-4.21-1.45-4.21-1.45-.57-1.422-1.389-1.8-1.389-1.8-1.136-.763.086-.748.086-.748 1.255.086 1.916 1.268 1.916 1.268 1.116 1.88 2.928 1.336 3.638 1.02.114-.792.437-1.336.794-1.642-2.775-.31-5.694-1.366-5.694-6.08 0-1.345.488-2.44 1.286-3.303-.127-.312-.558-1.563.124-3.257 0 0 1.048-.33 3.437 1.262A12.07 12.07 0 0 1 16.5 9.95a12.1 12.1 0 0 1 3.13.416c2.384-1.594 3.435-1.261 3.435-1.261.683 1.694.253 2.944.124 3.256.802.86 1.285 1.957 1.285 3.301 0 4.727-2.924 5.767-5.708 6.072.45.382.848 1.13.848 2.277 0 1.645-.017 2.97-.017 3.376 0 .328.227.71.86.59C25.422 26.347 29 21.737 29 16.304 29 9.51 23.403 4 16.5 4V4z"/></svg>