<svg xmlns="http://www.w3.org/2000/svg" width="32" height="32"><g fill="none"><path fill="#D14748" d="M16.007 26.914l4.416-13.457h-8.832z"/><path fill="#F4BF75" d="M16.007 26.914l-4.416-13.457H5.402z"/><path fill="#F4BF75" d="M5.402 13.457l-1.342 4.09a.9.9 0 0 0 .332 1.012l11.615 8.355L5.402 13.457z"/><path fill="#D14748" d="M5.402 13.457h6.189l-2.66-8.105c-.137-.417-.732-.417-.87 0l-2.659 8.105z"/><path fill="#F4BF75" d="M16.007 26.914l4.416-13.457h6.189z"/><path fill="#F4BF75" d="M26.612 13.457l1.342 4.09a.9.9 0 0 1-.332 1.012l-11.615 8.355 10.605-13.457z"/><path fill="#D14748" d="M26.612 13.457h-6.189l2.66-8.105c.137-.417.732-.417.87 0l2.659 8.105z"/></g></svg>