<svg xmlns="http://www.w3.org/2000/svg" width="32" height="32"><g fill="#7ACCEE"><path d="M4.393 13.969c-.06 0-.074-.029-.045-.071l.311-.383c.03-.042.104-.07.163-.07h5.285c.06 0 .074.042.045.084l-.252.369c-.03.042-.103.085-.148.085l-5.36-.014zM2.057 15.19c-.057 0-.071-.028-.043-.07l.298-.383c.028-.043.099-.071.155-.071h6.459c.056 0 .085.042.07.085l-.113.34c-.014.056-.07.085-.127.085l-6.7.014zm3.504 1.222c-.061 0-.076-.042-.046-.085l.212-.354a.203.203 0 0 1 .152-.085h3.03c.06 0 .091.042.091.1l-.03.34c0 .056-.06.098-.106.098l-3.303-.014zM19.238 14.145c-.87.226-1.465.395-2.322.62-.207.057-.22.07-.4-.14-.207-.24-.36-.396-.65-.537-.87-.437-1.713-.31-2.5.212-.94.62-1.423 1.537-1.41 2.68.014 1.128.774 2.058 1.866 2.214.94.127 1.727-.212 2.348-.931.125-.155.235-.325.373-.522h-2.666c-.29 0-.36-.183-.263-.423.18-.437.512-1.17.705-1.537a.373.373 0 0 1 .345-.226h5.03c-.028.38-.028.762-.083 1.142a6.081 6.081 0 0 1-1.133 2.765c-.995 1.34-2.294 2.171-3.938 2.397-1.354.183-2.611-.085-3.716-.93-1.023-.79-1.603-1.834-1.755-3.132-.18-1.537.263-2.919 1.174-4.132.981-1.311 2.28-2.143 3.869-2.44 1.299-.24 2.542-.084 3.661.692.732.493 1.257 1.17 1.603 1.988.083.127.027.198-.138.24z"/><path d="M23.81 21.944c-1.257-.029-2.403-.395-3.37-1.241a4.447 4.447 0 0 1-1.493-2.722c-.248-1.594.18-3.004 1.12-4.26 1.008-1.353 2.224-2.058 3.868-2.354 1.41-.254 2.735-.113 3.937.719 1.092.761 1.769 1.79 1.948 3.145.235 1.904-.304 3.455-1.588 4.78-.912.945-2.031 1.538-3.316 1.806-.373.07-.746.084-1.105.127zm3.289-5.698c-.014-.183-.014-.324-.042-.465-.248-1.396-1.506-2.186-2.818-1.876-1.285.296-2.114 1.128-2.418 2.454-.249 1.1.276 2.214 1.271 2.665.76.339 1.52.297 2.252-.084 1.092-.578 1.686-1.481 1.755-2.694z"/></g></svg>