<svg xmlns="http://www.w3.org/2000/svg" width="32" height="32"><path fill="#3965BD" d="M26.593 8.844c-.798-1.462-2.225-1.899-3.233-1.92-1.236-.025-2.252.672-2.06 1.13.041.099.273.612.416.824.206.306.574.07.704 0 .385-.208.797-.276 1.265-.22.447.052 1.041.333 1.439 1.112.937 1.835-1.956 5.611-5.579 2.996-3.621-2.614-7.143-1.748-8.738-1.22-1.595.526-2.328 1.056-1.698 2.281.857 1.665.573 1.155 1.403 2.534 1.319 2.188 4.206-1.009 4.206-1.009-2.15 3.23-3.994 2.45-4.702 1.32a17.752 17.752 0 0 1-1.132-2.19C3.437 16.44 4.911 25.077 4.911 25.077h2.705c.69-3.18 3.155-3.063 3.578 0h2.064c1.826-6.21 6.452 0 6.452 0h2.69c-.753-4.237 1.514-5.568 2.943-8.051 1.429-2.484 2.782-5.522 1.25-8.182zm-6.94 8.18c-1.423-.474-.914-1.916-.914-1.916s1.242.41 2.923.968c-.097.447-.933 1.305-2.01.947z"/></svg>