<svg xmlns="http://www.w3.org/2000/svg" width="32" height="32"><g fill="#FF6E9F" stroke="#FF6E9F" stroke-width=".5"><path d="M8.008 22.257l-.86-.506 9.579-16.907.86.506z"/><path d="M6.951 20.4h19.157v1.012H6.951z"/><path d="M16.912 26.607L7.33 20.969l.497-.876 9.582 5.638-.497.876zm8.324-14.694l-9.582-5.638.497-.876 9.582 5.638-.497.876z"/><path d="M7.829 11.909l-.496-.876 9.582-5.638.496.876z"/><path d="M25.06 22.257L15.48 5.35l.86-.506 9.579 16.907-.86.506zM7.71 10.362h.993v11.276H7.71V10.362zm16.652 0h.993v11.276h-.993V10.362z"/><path d="M16.744 26.179l-.434-.765 8.334-4.904.434.765z"/><path d="M26.67 21.967a2.07 2.07 0 0 1-2.852.78c-1-.585-1.34-1.89-.766-2.907a2.07 2.07 0 0 1 2.853-.78 2.143 2.143 0 0 1 .766 2.907M10.007 12.16a2.07 2.07 0 0 1-2.853.78c-.999-.585-1.34-1.889-.765-2.907a2.07 2.07 0 0 1 2.853-.78c.999.591 1.34 1.89.765 2.907m-3.612 9.807a2.154 2.154 0 0 1 .765-2.907 2.07 2.07 0 0 1 2.853.78 2.154 2.154 0 0 1-.765 2.907 2.068 2.068 0 0 1-2.853-.78m16.663-9.807a2.154 2.154 0 0 1 .765-2.907 2.07 2.07 0 0 1 2.853.78 2.154 2.154 0 0 1-.765 2.907 2.07 2.07 0 0 1-2.853-.78m-6.525 15.774c-1.155 0-2.088-.95-2.088-2.127 0-1.176.933-2.127 2.088-2.127 1.154 0 2.087.95 2.087 2.127 0 1.17-.933 2.127-2.087 2.127m0-19.614c-1.155 0-2.088-.95-2.088-2.127 0-1.176.933-2.127 2.088-2.127 1.154 0 2.087.95 2.087 2.127 0 1.177-.933 2.127-2.087 2.127"/></g></svg>