<svg xmlns="http://www.w3.org/2000/svg" width="32" height="32"><path fill="#EE9D5C" fill-rule="evenodd" d="M28 25.892c0 .567-.21 1.06-.629 1.48-.419.418-.912.628-1.479.628H6.108c-.567 0-1.06-.21-1.48-.629C4.21 26.952 4 26.46 4 25.891V6.142c0-.589.21-1.093.629-1.512C5.048 4.209 5.54 4 6.108 4h19.784c.567 0 1.06.21 1.48.629.418.419.628.923.628 1.512v19.75zm0-14.347l-2.175-1.462c.023-.091.04-.188.05-.29.01-.1.016-.197.017-.289 0-.702-.25-1.302-.748-1.801a2.455 2.455 0 0 0-1.802-.748c-.702 0-1.302.25-1.801.748a2.456 2.456 0 0 0-.748 1.801c0 .273.045.534.137.782.091.248.204.485.339.713l-4.69 7.139a2.029 2.029 0 0 0-.272-.05A3.11 3.11 0 0 0 16 18.07c-.318 0-.618.057-.9.17-.283.113-.527.26-.732.442l-3.16-1.802a.585.585 0 0 0 .034-.187v-.187c0-.702-.25-1.303-.748-1.802a2.455 2.455 0 0 0-1.801-.748c-.702 0-1.303.25-1.802.748a2.456 2.456 0 0 0-.748 1.802c0 .181.017.357.05.526.033.17.084.323.152.46L4 19.666v2.313l3.468-3.229c.181.113.374.192.578.237.205.045.42.068.647.068.339 0 .657-.057.952-.17.296-.113.557-.283.781-.51l3.06 1.77c0 .068-.007.142-.018.222a2.456 2.456 0 0 0 .731 2.056c.499.499 1.099.748 1.801.748s1.302-.25 1.801-.748c.5-.5.749-1.1.749-1.802 0-.294-.046-.572-.137-.833a2.467 2.467 0 0 0-.41-.731l4.658-7.106.34.068.34.034c.294 0 .577-.05.85-.152.272-.101.51-.232.713-.392l3.094 2.074v-2.04l.002.001z"/></svg>