<svg xmlns="http://www.w3.org/2000/svg" width="32" height="32"><g fill="none"><path fill="#F4BF75" d="M8.216 9.817s.413 1.58.472 2.108c.06.526-1.062 1.697-1.062 2.283 0 .585.236 1.64 1.534 2.166 1.298.527 1.475 1.874 1.475 2.694 0 .82-.472 2.4-.472 2.4s-.295 3.923 1.298 4.625c1.593.703 1.24.703 1.593.703.354 0 2.95 1.054 4.485.644 1.534-.41 1.947-.878 1.947-.878s1.534.117 2.006-1.23c.472-1.346.767-4.157.59-5.445-.177-1.288-.413-2.986.649-3.571 1.062-.586 2.183-1.288 2.006-1.874-.177-.585-1.12-1.405-1.12-1.405s-.237-1.464-.06-1.815 1.24-1.23.65-1.874c-.59-.644-1.653-.644-1.653-.644l-1.357.117s-2.301-2.049-5.31-1.932c-3.01.117-4.898 1.932-4.898 1.932s-1.003-.35-1.888 0c-.885.352-1.062 0-.885.996z"/><path fill="#EE9D5C" d="M13.608 18.534s-1.169 1.773-2.026 3.03c-.132.196.857.209.857.209l1.169-3.24v.001zm.556-3.676s-.352.872-.545 1.335c-.21.502-1.008.752-1.008.752s.414-.43.414-1.522c0-.458.596-.64.596-.64l.543.075z"/><path fill="#AB7558" d="M13.808 15.351s-.721.853-2.061.375c-1.34-.477-1.478-2.182-1.478-2.66 0-.477 2.543.478 2.887.683.343.204.996 1.023.652 1.602zM8.747 6.243s1.237-.239 2.061.41c.825.647 1.066 1.159 1.066 1.159l-1.39 1.093s-.672-.31-.878-1.196c-.206-.886-.069-1.295-.86-1.466z"/><path fill="#EE9D5C" d="M13.448 12.89c-.533-.75-1.41-1.078-2.112-1.132-1.194-.093-1.762.326-1.762.326s1.957.082 2.521.817c1.05 1.369 2.582 1.48 2.827 1.18-.283.013-.595-.126-.928-.439-.209-.196-.377-.515-.546-.753zm-3.304 2.652s-2.171-.741-1.759-1.49c.413-.751.084-1.16.084-1.16s-1.212.898-.903 1.853c.19.586.508 1.01 2.257 1.823.84 1.547.174 4.33.214 4.343.066.022 1.178-.545 1.102-3.15-.024-.799-.088-1.89-.995-2.22zm2.845-7.965c-.91.46-2.157 1.098-2.157 1.098l.49.244c-.046.075-.069.12-.069.12l.504.228s1.23.884 1.983 1.452c-.25-.768-.988-1.974-.988-1.974s-.21-.554.237-1.168zm3.025 18.708c-2.799 0-3.746-1.41-3.746-1.41l.437 1.057c.165.457 1.929 1.88 3.305 1.88l.004-1.527z"/><path fill="#EE9D5C" d="M12.574 23.923s.258 1.561 1.289 1.561c.876 0 1.134-1.318 1.134-1.591l-2.423.03zm-1.715-2.355c.091-.25.412-1.261.515-2.182.123-1.102.078-2.715.078-2.715s-.275 1.057-.515 1.228c-.24.17-.687 1.33-.687 1.33s-.24 1.725-.354 2.305c.316.063.581-.121.963.034zm-2.49-6.84s.584-.205.756-1.466c.172-1.262-.206-2.353-.206-2.353s.034 1.739-.172 2.08c-.206.34-.378.443-.619.887-.24.443.103.715.241.852z"/><path fill="#FDC168" d="M9.192 6.842l-.18-.375c-.527.059.18.375.18.375z"/><path fill="#F4BF75" d="M13.465 7.204s-.55-.091-.825-.5c-.275-.41-1.054-1.228-2.295-1.237-1.242-.009-2.47.328-2.47.328l1.072.672c.114-.004.312-.002.64.009 1.345.044 1.552 1.364 1.552 1.364l4.742-.647"/><path fill="#FFF" d="M13.923 14.498s-.642.636-1.627.432c-.985-.205-1.58-.637-1.627-1.387-.045-.75.207-1.046.207-1.046s1.1.342 1.627.796c.526.455.916 1.182 1.42 1.205z"/><path fill="#C9C9C9" d="M13.147 14.27s-.557.253-1.179.047c-.814-.27-.868-1.11-.868-1.11s-.5 1.455.9 1.735c1.124.224 1.788-.421 1.788-.421l-.641-.25z"/><path fill="#463014" d="M13.542 6.895c-.06-1.247.97-2.24 1.327-2.282.02.211-.02 1.035.337 1.289.104-.673.456-1.416 1.843-1.902-.297.782-.04 1.437.083 1.74.947-.853 1.586-.712 1.586-.712s-.659 1.128-.401 1.867c-1.902-.148-4.766.2-4.775 0zm-4.032 1.9c-.454-.374-.116-.72-.152-1.145-.02-.226-.037-.439-.112-.556-.418-.655-1.403-.853-1.413-.855l-.462-.09.306-.355c.04-.046 1.296-1.236 3.242-.613 1.36.435 2.368 1.912 2.405 1.971l-.682.319c-.008-.013-.805-1.4-1.972-1.774-.943-.302-1.813-.015-2.186.174.396.156.914.442 1.226.93.147.232.172.522.196.804.032.372.061.724.338.952l-.734.238zm-1.212 5.453s.571-.703.74-2.072c.067-.54-.05-1.603-.24-2.012.034 1.006-.223 2.012-.223 2.012s-.174 1.868-.277 2.072z"/><path fill="#463014" d="M11.313 8.084c0-.001-.184-.795-.692-1.196-.716-.566-1.59-.265-1.6-.262l-.126-.39c.042-.013 1.042-.326 1.963.317.927.646 1.038 1.232 1.048 1.297l-.594.234zm-1.22 5.66s-.3-.426-.246-.895c.027-.231.135-.469.328-.553.359-.156.518.247.518.247s-.505.123-.6 1.2z"/><path fill="#463014" d="M13.387 14.393l.019.036s-.936.697-1.895-.01c-.513-.379-.464-1.316-.307-1.713.409.092.756.258 1.045.451-.366-.324-.686-.563-.686-.568l-.416-.117-.81-.276c-.01.061-.305 1.434.547 2.37.378.415 2.148 1.344 2.989-.245l-.486.072z"/><path fill="#463014" d="M13.3 14.495c.526.796 1.855.341 1.832-.5 0 0-.888.487-1.672-.409-.459-.523-1.926-1.964-3.917-1.485 1.375.3 3.195 1.546 3.756 2.394z"/><path fill="#463014" d="M9.357 16.74c.127.073.574.532.574 1.22 0 .344-.034 2.074-.206 3.13.258.167.438.203.695.373.13-1.224.222-2.999.179-3.715-.05-.817-.49-1.365-.899-1.598a17.257 17.257 0 0 0-.396-.217c-.7-.375-1.424-.764-1.424-1.426 0-.519.204-.681.419-.853l.023-.019c.143-.114.304-.244.4-.457.26-.582.303-2.066 0-2.443-.152-.187-.557-.818-.44-1.242a.57.57 0 0 1 .314-.367c.177-.09.416-.136.71-.136.578 0 1.22.175 1.55.279 1.182.372 2.609 1.443 3.018 1.763.011.01.018.014.02.015l.261.18-.163-.271c-.01-.017-1.047-1.708-2.9-2.328-.36-.12-1.069-.323-1.765-.323-.414 0-.766.072-1.044.213a1.25 1.25 0 0 0-.665.795c-.234.852.528 1.8.554 1.83.09.158.127 1.3-.079 1.758-.028.064-.105.126-.203.204-.03.025-.065.05-.101.078-.29.217-.728.544-.728 1.3 0 1.033 1.056 1.594 1.904 2.044.14.074.272.145.392.213z"/><path fill="#463014" d="M9.51 8.795c-.454-.374-.116-.72-.152-1.145-.02-.226-.037-.439-.112-.556-.418-.655-1.403-.853-1.413-.855l-.462-.09.306-.355c.04-.046 1.296-1.236 3.242-.613 1.36.435 2.368 1.912 2.405 1.971l-.682.319c-.008-.013-.805-1.4-1.972-1.774-.943-.302-1.813-.015-2.186.174.396.156.914.442 1.226.93.147.232.172.522.196.804.032.372.061.724.338.952l-.734.238z"/><path fill="#463014" d="M9.495 8.872l-.03-.025c-.336-.277-.276-.55-.218-.814.026-.122.054-.248.042-.377-.018-.217-.036-.422-.102-.526-.397-.623-1.358-.822-1.368-.824l-.577-.113.383-.444c.007-.008.814-.816 2.18-.816.373 0 .755.061 1.135.183 1.42.454 2.433 1.985 2.442 2l.041.065-.807.377-.032-.051c-.087-.147-.852-1.4-1.935-1.746a2.726 2.726 0 0 0-.832-.128c-.518 0-.939.14-1.163.235.374.167.828.448 1.115.897.156.245.181.544.206.832.03.36.059.697.313.907l.096.078-.889.29z"/><path fill="#463014" d="M11.313 8.084c0-.001-.184-.795-.692-1.196-.716-.566-1.59-.265-1.6-.262l-.126-.39c.042-.013 1.042-.326 1.963.317.927.646 1.038 1.232 1.048 1.297l-.594.234z"/><path fill="#463014" d="M11.263 8.177l-.018-.078c-.001-.007-.181-.775-.667-1.158a1.559 1.559 0 0 0-.991-.33c-.298 0-.519.071-.543.08l-.065.021-.17-.52.065-.02c.029-.01.294-.092.67-.092.495 0 .963.145 1.354.417.95.663 1.066 1.275 1.076 1.343l.008.053-.719.284zM9.587 6.475c.407 0 .78.125 1.077.36.431.34.634.942.695 1.158l.468-.185c-.043-.164-.229-.656-1.008-1.2a2.185 2.185 0 0 0-1.275-.39c-.26 0-.462.04-.562.065l.085.259c.097-.026.286-.067.52-.067zm4.232 18.635a.87.87 0 0 1-.553-.197c-.11-.094-.482-.433-.646-.848-.061-.155-.048-.28.041-.368.061-.062.188-.135.446-.135h1.387c.196 0 .336.042.417.124.104.106.07.24.042.311-.05.124-.26.528-.614.904a.701.701 0 0 1-.52.209zm.213-10.568l-.733-.047s.188.328.309.752c.137.48-.125 1.18-.125 1.18s.977-1.098.55-1.885zm-.915 12.489c-2.609-.2-3.527-2.646-3.527-3.155h.681-.34.34c.004.22.697 2.313 2.898 2.48l-.052.675z"/><path fill="#FFF" d="M12.384 22.647a1.685 1.685 0 0 1 .005-.673c-.199-.148-.554-.203-.821-.289-.219-.137-1.336.14-2.146-.832-1.016-1.22-.802-1.947-.802-1.947-.26.287-.513.178-.91 1.516-.397 1.339.187 2.272 1.275 3.21.514.442 1.241.624 1.867.694-.21-.209.357-.23.748-.375-.03-.313.021-.617.257-.862.142-.148.324-.236.514-.306l.03-.07a.595.595 0 0 1-.017-.066z"/><path fill="#C9C9C9" d="M11.595 23.943a2.351 2.351 0 0 1-.056-.2c-.018-.074-.108-.283.002-.044a.878.878 0 0 1-.06-.188c-1.763-.002-3.297-1.203-3-3.727-.231-.304-.554.613-.554.613s-.883 2.542 1.396 3.527c.76.33 1.43.565 1.59.47.33.066.627-.162.738-.312a1.676 1.676 0 0 1-.056-.139z"/><path fill="#463014" d="M12.352 22.281c.003-.213.047-.42.15-.625l.024-.041c-.678-.006-1.46-.07-2.125-.335-.73-.29-1.645-1.283-1.803-2.45 0 0-1.377 1.055-.972 3.312.38 2.119 2.167 2.81 4.205 2.927.001-.014-.23-.486-.156-.775-1.158.083-2.452-.36-3.077-1.38-.572-.934-.411-2.528-.176-2.762.573 1.796 2.637 2.16 3.93 2.13z"/><path fill="#463014" d="M12.566 20.996c-.367 1.068-1.116 1.932-1.116 1.932s1.03-.046 1.087-.227c.042-.133.93-2.197 1.272-4.614-.321.523-1.212 2.818-1.243 2.91z"/><path fill="#EE9D5C" d="M18.404 18.534s1.169 1.773 2.026 3.03c.133.196-.857.209-.857.209l-1.169-3.24v.001zm-.556-3.676s.352.872.545 1.335c.21.502 1.008.752 1.008.752s-.414-.43-.414-1.522c0-.458-.596-.64-.596-.64l-.543.075z"/><path fill="#AB7558" d="M18.204 15.351s.721.853 2.062.375c1.34-.477 1.477-2.182 1.477-2.66 0-.477-2.543.478-2.886.683-.344.204-.997 1.023-.653 1.602zm5.061-9.108s-1.237-.239-2.062.41c-.824.647-1.065 1.159-1.065 1.159l1.39 1.093s.672-.31.878-1.196c.206-.886.069-1.295.86-1.466z"/><path fill="#EE9D5C" d="M18.565 12.89c.532-.75 1.41-1.078 2.11-1.132 1.196-.093 1.763.326 1.763.326s-1.957.082-2.522.817c-1.05 1.369-2.581 1.48-2.826 1.18.283.013.595-.126.928-.439.209-.196.378-.515.547-.753zm3.303 2.652s2.171-.741 1.759-1.49c-.413-.751-.085-1.16-.085-1.16s1.213.898.904 1.853c-.19.586-.509 1.01-2.258 1.823-.839 1.547-.173 4.33-.213 4.343-.066.022-1.177-.545-1.102-3.15.023-.799.088-1.89.995-2.22zm-2.845-7.965c.91.46 2.157 1.098 2.157 1.098l-.49.244c.047.075.07.12.07.12l-.505.228s-1.23.884-1.983 1.452c.25-.768.988-1.974.988-1.974s.21-.554-.237-1.168zm-3.025 18.708c2.798 0 3.746-1.41 3.746-1.41l-.437 1.057c-.165.457-1.929 1.88-3.304 1.88l-.005-1.527z"/><path fill="#EE9D5C" d="M19.438 23.923s-.258 1.561-1.289 1.561c-.875 0-1.134-1.318-1.134-1.591l2.423.03zm1.715-2.355c-.091-.25-.412-1.261-.515-2.182-.124-1.102-.078-2.715-.078-2.715s.275 1.057.515 1.228c.24.17.687 1.33.687 1.33s.24 1.725.353 2.305c-.315.063-.58-.121-.962.034zm2.49-6.84s-.584-.205-.756-1.466c-.172-1.262.206-2.353.206-2.353s-.034 1.739.172 2.08c.206.34.378.443.619.887.24.443-.104.715-.24.852zm-.698-7.886l.18-.375c.528.059-.18.375-.18.375z"/><path fill="#F4BF75" d="M18.547 7.204s.55-.091.825-.5c.275-.41 1.054-1.228 2.295-1.237 1.242-.01 2.47.328 2.47.328l-1.072.672a10.972 10.972 0 0 0-.64.008c-1.345.045-1.552 1.365-1.552 1.365l-4.742-.648"/><path fill="#FFF" d="M18.09 14.498s.64.636 1.626.432c.985-.205 1.58-.637 1.626-1.387.046-.75-.206-1.046-.206-1.046s-1.1.342-1.626.796c-.527.455-.917 1.182-1.42 1.205z"/><path fill="#C9C9C9" d="M18.865 14.27s.557.253 1.179.047c.814-.27.868-1.11.868-1.11s.5 1.455-.901 1.735c-1.123.224-1.787-.421-1.787-.421l.641-.25z"/><path fill="#463014" d="M22.502 8.795c.454-.374.116-.72.152-1.145.02-.226.037-.439.112-.556.418-.655 1.403-.853 1.413-.855l.463-.09-.307-.355c-.04-.046-1.296-1.236-3.242-.613-1.36.435-2.367 1.912-2.405 1.971l.682.319c.008-.013.805-1.4 1.972-1.774.944-.302 1.813-.015 2.186.174-.396.156-.914.442-1.226.93-.147.232-.172.522-.196.804-.031.372-.061.724-.338.952l.734.238zm1.212 5.453s-.571-.703-.74-2.072c-.067-.54.05-1.603.24-2.012-.035 1.006.223 2.012.223 2.012s.174 1.868.277 2.072z"/><path fill="#463014" d="M20.7 8.084c0-.001.183-.795.69-1.196.717-.566 1.592-.265 1.6-.262l.127-.39c-.042-.013-1.042-.326-1.963.317-.927.646-1.038 1.232-1.048 1.297l.594.234zm1.219 5.66s.3-.426.245-.895c-.026-.231-.134-.469-.327-.553-.359-.156-.518.247-.518.247s.505.123.6 1.2z"/><path fill="#463014" d="M18.625 14.393l-.019.036s.935.697 1.894-.01c.514-.379.465-1.316.308-1.713a3.1 3.1 0 0 0-1.046.451c.367-.324.687-.563.686-.568l.417-.117.81-.276c.01.062.305 1.434-.548 2.37-.377.415-2.148 1.344-2.988-.245l.486.072z"/><path fill="#463014" d="M18.713 14.495c-.527.796-1.856.341-1.833-.5 0 0 .888.487 1.672-.409.458-.523 1.927-1.964 3.917-1.485-1.375.3-3.195 1.546-3.756 2.394z"/><path fill="#463014" d="M22.655 16.74c-.127.073-.574.532-.574 1.22 0 .344.034 2.074.206 3.13-.258.167-.438.203-.695.373-.13-1.224-.222-2.999-.178-3.715.049-.817.49-1.365.898-1.598.128-.073.261-.145.396-.217.7-.375 1.424-.764 1.424-1.426 0-.519-.203-.681-.419-.853l-.022-.019c-.143-.114-.305-.244-.4-.457-.262-.582-.304-2.066 0-2.443.15-.187.557-.818.44-1.242a.57.57 0 0 0-.315-.367c-.177-.09-.415-.136-.71-.136-.578 0-1.22.175-1.55.279-1.182.372-2.609 1.443-3.018 1.763-.011.01-.018.014-.02.015l-.261.18.163-.271c.01-.017 1.047-1.708 2.9-2.328.36-.12 1.069-.323 1.765-.323.414 0 .765.072 1.044.213.34.173.57.448.665.795.234.852-.528 1.8-.554 1.83-.09.158-.127 1.3.078 1.758.029.064.106.126.204.204.03.025.065.05.101.078.29.217.728.544.728 1.3 0 1.033-1.056 1.594-1.904 2.044-.14.074-.272.145-.392.213z"/><path fill="#463014" d="M21.396 8.673c-.168-.282-.598-.827-1.587-1.306-1.105-.534-2.383-.805-3.8-.805h-.006c-1.417 0-2.696.271-3.8.805-.99.48-1.419 1.024-1.587 1.306l-.072.095.848.187.026-.034.015-.03c.013-.056.126-.356 1.071-.813 1.01-.49 2.189-.737 3.502-.737 1.313 0 2.49.248 3.501.737.945.457 1.059.757 1.072.812l.014.031.027.034.847-.187-.071-.095z"/><path fill="#463014" d="M22.502 8.795c.454-.374.116-.72.152-1.145.02-.226.037-.439.112-.556.418-.655 1.403-.853 1.413-.855l.463-.09-.307-.355c-.04-.046-1.296-1.236-3.242-.613-1.36.435-2.367 1.912-2.405 1.971l.682.319c.008-.013.805-1.4 1.972-1.774.944-.302 1.813-.015 2.186.174-.396.156-.914.442-1.226.93-.147.232-.172.522-.196.804-.031.372-.061.724-.338.952l.734.238z"/><path fill="#463014" d="M21.629 8.583l.095-.08c.254-.208.283-.546.314-.905.024-.29.05-.588.206-.833.286-.449.74-.73 1.114-.897a3.058 3.058 0 0 0-1.163-.235c-.286 0-.566.043-.832.129-1.083.346-1.848 1.598-1.935 1.745l-.032.051-.807-.376.041-.065c.01-.016 1.022-1.547 2.442-2 .38-.123.762-.184 1.135-.184 1.367 0 2.174.808 2.18.817l.384.444-.578.112c-.01.002-.97.201-1.368.825-.066.103-.084.308-.102.525-.011.13.016.256.043.378.057.264.117.537-.22.814l-.029.024-.888-.29z"/><path fill="#463014" d="M20.7 8.084c0-.001.183-.795.69-1.196.717-.566 1.592-.265 1.6-.262l.127-.39c-.042-.013-1.042-.326-1.963.317-.927.646-1.038 1.232-1.048 1.297l.594.234z"/><path fill="#463014" d="M20.03 7.893l.008-.053c.01-.068.126-.68 1.076-1.343.391-.272.86-.417 1.354-.417.376 0 .641.082.67.092l.066.02-.17.52-.066-.022a1.845 1.845 0 0 0-.543-.078c-.38 0-.714.11-.991.33-.486.383-.665 1.15-.667 1.157l-.018.078-.719-.284zm2.915-1.351l.085-.259a2.347 2.347 0 0 0-.562-.066c-.473 0-.902.132-1.275.392-.78.544-.966 1.035-1.008 1.199l.468.185c.061-.216.264-.818.695-1.159.298-.234.67-.359 1.077-.359.234 0 .423.04.52.067zM17.673 24.9a3.409 3.409 0 0 1-.614-.904c-.029-.07-.062-.205.042-.311.081-.082.221-.124.418-.124H18.905c.258 0 .385.073.446.135.089.089.102.213.041.368-.164.416-.536.754-.645.848a.871.871 0 0 1-.554.197.701.701 0 0 1-.52-.21zm.307-10.359l.733-.047s-.188.328-.309.752c-.137.48.125 1.18.125 1.18s-.977-1.098-.55-1.885z"/><path fill="#E78724" d="M16.006 11.945c-.467 0-1.076-.013-1.533-.339 0 0 .598 1.041 1.532 1.041l.001-.131v.131c.935 0 1.534-1.04 1.534-1.04-.457.325-1.067.338-1.534.338z"/><path fill="#463014" d="M17.293 11.94a2.524 2.524 0 0 1-1.287.388 2.524 2.524 0 0 1-1.286-.388s.682.826 1.283.833h.006c.6-.007 1.284-.833 1.284-.833zm1.602 15.09l-.052-.674c2.2-.168 2.894-2.26 2.897-2.48h.682c0 .509-.918 2.956-3.527 3.155z"/><path fill="#FFF" d="M19.628 22.647a1.681 1.681 0 0 0-.005-.673c.199-.148.554-.203.821-.289.219-.137 1.336.14 2.147-.832 1.015-1.22.801-1.947.801-1.947.26.287.513.178.91 1.516.397 1.339-.187 2.272-1.275 3.21-.514.442-1.241.624-1.867.694.21-.209-.357-.23-.748-.375.031-.313-.021-.617-.257-.862-.141-.148-.324-.236-.514-.306l-.03-.07a.605.605 0 0 0 .017-.066z"/><path fill="#C9C9C9" d="M20.417 23.943c.023-.066.04-.133.056-.2.018-.074.108-.283-.003-.044a.879.879 0 0 0 .061-.188c1.763-.002 3.296-1.203 3-3.727.23-.304.554.613.554.613s.883 2.542-1.397 3.527c-.759.33-1.43.565-1.588.47-.33.066-.628-.162-.74-.312.021-.046.04-.092.057-.139z"/><path fill="#463014" d="M19.66 22.281a1.396 1.396 0 0 0-.15-.625l-.024-.041c.678-.006 1.46-.07 2.125-.335.73-.29 1.645-1.283 1.803-2.45 0 0 1.377 1.055.972 3.312-.38 2.119-2.167 2.81-4.205 2.927-.001-.014.23-.486.156-.775 1.157.083 2.452-.36 3.077-1.38.571-.934.411-2.528.176-2.762-.573 1.796-2.637 2.16-3.93 2.13z"/><path fill="#463014" d="M20.483 22.813c-.244-.261-.692-.573-1.724-.573l-2.75-.001h-.006l-2.75.001c-1.032 0-1.48.312-1.723.573-.355.38-.411.909-.165 1.57.652 1.76 1.569 3.547 4.638 3.55h.006c3.07-.004 3.986-1.79 4.639-3.55.245-.661.19-1.19-.165-1.57zm-.478 1.446c-.311.884-1.146 3.022-3.999 3.026-2.853-.004-3.688-2.142-3.999-3.026-.172-.49-.159-.852.04-1.078.136-.154.449-.338 1.161-.338h.744a4339.21 4339.21 0 0 1 4.108 0h.744c.712 0 1.025.184 1.16.338.2.226.213.588.04 1.078z"/><path fill="#463014" d="M19.446 20.996c.367 1.068 1.116 1.932 1.116 1.932s-1.03-.046-1.087-.227c-.042-.133-.93-2.197-1.272-4.614.32.523 1.212 2.818 1.243 2.91z"/></g></svg>