<svg xmlns="http://www.w3.org/2000/svg" width="32" height="32"><path fill="#EE9D5C" d="M9.678 3.001C8.48 2.97 7 3.627 7 3.627l4.893 10.407L9.3 25.664c2.368 2.1 4.98 1.096 4.98 1.096l1.202-9c.152.15.313.289.475.417a7.414 7.414 0 0 0 1.652.91c.565.229 1.152.411 1.739.548.391.091.76.16 1.152.205-.174.41-.283.843-.261 1.322 0 .045.022.09.065.113h.022c.413.228.847.41 1.325.525.457.09.957.137 1.435.068.5-.068 1-.273 1.391-.615.391-.342.674-.798.848-1.276l.022-.023v-.023l.065-.615v-.023c.217-.137.434-.273.652-.456.26-.227.5-.478.674-.797.173-.32.282-.707.26-1.094-.021-.365-.152-.729-.304-1.048a4.667 4.667 0 0 0-.565-.889 6.014 6.014 0 0 0-1.522-1.299 7.496 7.496 0 0 0-1.76-.866l-.24-.068-.194-.068c-.13-.046-.24-.114-.348-.16-.218-.137-.37-.273-.479-.456-.217-.341-.239-.865-.13-1.412.022-.137.065-.274.109-.41.043-.137.087-.274.13-.434.031-.147.05-.295.06-.459l2.904-2.665c-.226-.876-2.734-1.789-2.734-1.789l-7.453 6.646-4.302-8.508A2.422 2.422 0 0 0 9.678 3zM20.39 10.63a4.23 4.23 0 0 0-.065.757c.022.387.13.82.37 1.185.239.365.565.638.89.798.175.09.349.16.5.205l.262.068.217.046c.565.16 1.108.387 1.608.683.5.296.978.661 1.37 1.071.39.41.695.935.738 1.459.022.364-.021.638-.13.866a2.4 2.4 0 0 1-.478.683 2.79 2.79 0 0 1-.283.25c0-.204-.021-.41-.065-.614a1.741 1.741 0 0 0-.087-.32c-.043-.09-.087-.204-.195-.273-.022 0-.044 0-.044.023-.13.342-.348.638-.587.843-.239.205-.543.296-.847.319-.305.023-.63-.045-.957-.137-.326-.09-.651-.205-.978-.319l-.043-.023a.2.2 0 0 0-.195.046c-.174.228-.305.433-.457.66a6.186 6.186 0 0 0-.283.525c-.39-.16-.76-.296-1.152-.456-.543-.228-1.086-.455-1.586-.729a7.901 7.901 0 0 1-1.456-.889c-.314-.246-.603-.505-.814-.8l.239-1.792 4.508-4.135z"/></svg>