<svg xmlns="http://www.w3.org/2000/svg" width="32" height="32"><path fill="#AB7558" fill-rule="evenodd" d="M12.862 14.048c.833-.004 1.687.24 2.334.787.332.273.6.616.827.981.41-.673 1.008-1.246 1.745-1.522.898-.343 1.914-.32 2.811.017.783.292 1.469.799 2.09 1.357.486.437.936.914 1.436 1.335.264.218.547.422.872.535a1.2 1.2 0 0 0 1.25-.33c.285-.316.267-.863-.048-1.152-.2-.176-.542-.14-.683.093-.124.186-.054.418.042.598-.257-.192-.515-.459-.514-.807-.053-.402.24-.757.591-.898.686-.28 1.545-.039 1.978.576.416.573.45 1.327.377 2.01a2.412 2.412 0 0 1-.973 1.63c-.742.539-1.682.706-2.577.694a7.153 7.153 0 0 1-2.509-.548c-1.333-.546-2.58-1.3-3.956-1.735a4.674 4.674 0 0 0-1.43-.308c-.389-.003-.757-.021-1.124.004a4.8 4.8 0 0 0-1.312.304c-1.4.444-2.666 1.216-4.024 1.763-1.147.454-2.417.665-3.634.413-.681-.14-1.359-.447-1.819-.993-.393-.464-.581-1.085-.563-1.694-.022-.574.102-1.185.475-1.632.347-.424.907-.64 1.443-.592.346.017.696.17.91.453.168.224.178.531.104.794-.09.235-.274.42-.475.56.102-.175.165-.408.043-.592-.149-.245-.516-.27-.71-.069a.86.86 0 0 0-.13.967c.174.322.535.505.883.543.528.046.985-.287 1.372-.61.802-.701 1.523-1.505 2.412-2.098.732-.5 1.596-.839 2.486-.834z"/></svg>