<svg xmlns="http://www.w3.org/2000/svg" width="32" height="32"><g fill="none"><path fill="#F7941E" d="M8.5 8.5h15v15h-15z"/><path fill="#FDB813" d="M6 6l.625 5L8.5 16 16 8.5l-5-1.875z"/><path fill="#FAA61A" d="M6 26l5-.625 5-1.875L8.5 16l-1.875 5z"/><path fill="#F36F21" d="M26 26l-.625-5-1.875-5-7.5 7.5 5 1.875z"/><path fill="#F58220" d="M26 6l-5 .625L16 8.5l7.5 7.5 1.875-5z"/><path fill="#FFCB08" d="M6 6l10 2.5L11 6z"/><path fill="#FFF200" d="M6 6v5l2.5 5zM6 26l2.5-10L6 21z"/><path fill="#F4813C" d="M6 26h5l5-2.5z"/><path fill="#F7941E" d="M26 26l-10-2.5 5 2.5z"/><path fill="#F15922" d="M26 26v-5l-2.5-5zM26 6l-2.5 10 2.5-5z"/><path fill="#FFCB08" d="M26 6h-5l-5 2.5z"/></g></svg>