<svg xmlns="http://www.w3.org/2000/svg" width="32" height="32"><g fill="none" transform="translate(4 4)"><path fill="#7ACCEE" d="M21.669 4.893a1.846 1.846 0 0 0-2.561-2.561A11.945 11.945 0 0 0 12 0C5.373 0 0 5.373 0 12c0 6.628 5.373 12 12 12s12-5.372 12-12c0-2.66-.866-5.118-2.331-7.107zm-1.833 14.943A11.047 11.047 0 0 1 12 23.082a11.047 11.047 0 0 1-7.836-3.246A11.046 11.046 0 0 1 .918 12a11.046 11.046 0 0 1 3.246-7.836A11.046 11.046 0 0 1 12 .918a11.012 11.012 0 0 1 6.494 2.1 1.846 1.846 0 0 0 2.487 2.487A11.024 11.024 0 0 1 23.082 12a11.045 11.045 0 0 1-3.246 7.836z"/><circle cx="12" cy="12" r="5.538" fill="#3965BD"/></g></svg>