<svg xmlns="http://www.w3.org/2000/svg" width="32" height="32"><g fill="none" fill-rule="evenodd"><path fill="#6A9FB5" d="M12.93 20.97s-1.021.573.728.767c2.119.233 3.202.2 5.536-.226 0 0 .615.371 1.473.693-5.235 2.166-11.849-.126-7.737-1.235zm-.64-2.828s-1.146.82.605.994c2.264.226 4.05.244 7.145-.33 0 0 .427.418 1.1.647-6.33 1.787-13.378.14-8.85-1.31z"/><path fill="#D14748" d="M17.683 13.346c1.29 1.435-.339 2.725-.339 2.725s3.276-1.632 1.772-3.677c-1.405-1.907-2.483-2.854 3.35-6.12 0 0-9.155 2.208-4.783 7.072z"/><path fill="#6A9FB5" d="M24.607 23.06s.756.602-.833 1.068c-3.021.883-12.577 1.15-15.23.035-.954-.401.835-.957 1.397-1.074.587-.123.922-.1.922-.1-1.06-.722-6.858 1.417-2.944 2.03 10.673 1.67 19.456-.753 16.688-1.959zm-11.185-7.847s-4.86 1.115-1.721 1.52c1.325.171 3.967.132 6.429-.067 2.012-.163 4.03-.512 4.03-.512s-.708.294-1.222.632c-4.936 1.253-14.47.67-11.725-.612 2.32-1.084 4.209-.961 4.209-.961zm8.718 4.705c5.018-2.517 2.697-4.936 1.078-4.61-.396.08-.573.15-.573.15s.147-.224.428-.32c3.204-1.087 5.667 3.207-1.033 4.908 0 0 .077-.068.1-.128z"/><path fill="#D14748" d="M19.116 1s2.778 2.684-2.636 6.81c-4.342 3.312-.99 5.199-.002 7.356-2.534-2.208-4.393-4.151-3.146-5.96C15.163 6.55 20.236 5.263 19.116 1z"/><path fill="#6A9FB5" d="M13.915 26.74c4.815.298 12.211-.164 12.386-2.365 0 0-.336.834-3.98 1.496-4.11.747-9.18.66-12.187.181 0 0 .616.492 3.78.689z"/></g></svg>