<svg xmlns="http://www.w3.org/2000/svg" xmlns:xlink="http://www.w3.org/1999/xlink" width="32" height="32"><defs><path id="a" d="M.141 0h22.708v22.814H.141z"/></defs><g fill="none" fill-rule="evenodd" transform="matrix(1 0 0 -1 4.872 26)"><mask id="b" fill="#fff"><use xlink:href="#a"/></mask><g mask="url(#b)"><g fill-rule="nonzero"><path fill="#F0D6B7" d="M15.701 5.894l-1.682-.253-2.27-.254-1.472-.042-1.429.042-1.093.338-.967 1.056-.757 2.154-.168.465-1.009.338-.589.971-.42 1.394.462 1.225 1.093.38.883-.422.421-.929.504.084.168.211-.168.972-.042 1.225.252 1.689-.01.966.767 1.231 1.345.971 2.355 1.014 2.607-.38 2.27-1.647 1.051-1.69.673-1.225.168-3.041-.505-2.619-.925-2.323-.882-1.225"/><path fill="#335061" d="M14.272-1.413L8.26-1.667V-2.68l.504-3.549-.252-.295-4.204 1.436-.295.507-.42 4.773-.967 2.872-.21.676 3.363 2.323 1.051.422.925-1.14.799-.718.925-.296.42-.126.505-2.197.378-.465.967.338-.673-1.309 3.658-1.732-.462-.253"/><path fill="#6D6B6D" d="M4.308 13.328l1.093.381.883-.423.42-.929.505.084.126.507-.252.972.252 2.323-.21 1.267.756.887 1.64 1.31-.462.633-2.313-1.14-.967-.761-.546-1.182-.841-1.141-.253-1.351.169-1.437"/><path fill="#DCD9D8" d="M6.031 17.298s.63 1.563 3.154 2.323c2.522.76.126.55.126.55l-2.733-1.057-1.051-1.055-.463-.845.967.084M4.77 13.624s-.883 2.957 2.48 3.38l-.126.506-2.312-.549-.673-2.196.169-1.437.462.296"/></g><g fill="#F7E4CD" fill-rule="nonzero"><path d="M6.116 9.696l.55.536s.249-.029.29-.325c.043-.295.169-2.956 1.977-4.393.165-.13-1.346.212-1.346.212L6.242 7.838m7.61 2.66s.098 1.281.441 1.183c.343-.099.343-.444.343-.444s-.833-.541-.784-.738m3.49 4.688s-.693-.147-.757-.76c-.064-.613.757-.127.883-.084m-5.214.802s-.925-.127-.925-.718 1.051-.55 1.345-.296M6.536 12.4s-1.598.97-1.766.041c-.168-.929-.546-1.605.253-2.576l-.547.169-.505 1.309-.168 1.267.967 1.014 1.093-.084.631-.507.042-.634m.757 2.661s.715 3.717 4.33 4.435c2.977.591 4.541-.126 5.13-.802 0 0-2.649 3.168-5.172 2.196-2.522-.971-4.372-2.745-4.33-3.886.072-1.942.042-1.943.042-1.943m9.754 3.211s-1.219.042-1.261-1.056c0 0 0-.169.084-.338 0 0 .967 1.098 1.556.507"/><path d="M11.708 16.762s-.21 1.686-1.64.706c-.925-.634-.841-1.521-.673-1.69.168-.169.122-.51.25-.276.128.234.086.994.549 1.205.462.212 1.22.448 1.514.055"/></g><g fill="#49728B"><path d="M7.755 5.345L3.803 3.57s1.64-6.547.799-8.575l-.589.211L3.971-2.3 2.878 2.43l-.462 1.31 4.12 2.787 1.22-1.182m.406-3.621l.56-.688v-2.534H8.05S7.965.276 7.965.487c0 .211.084.972.084.972M8.176-1.878l-1.892-.085.546-.38 1.346-.211"/></g><g fill-rule="nonzero"><path fill="#335061" d="M14.651-1.456l1.556.042.378-3.886-1.598-.211-.336 4.055"/><path fill="#335061" d="M15.07-1.456l2.355.127s.967 2.45.967 2.576c0 .127.841 3.549.841 3.549L17.341 6.78l-.378.338-1.01-1.014V2.177l-.882-3.633"/><path fill="#49728B" d="M16.122-1.16l-1.471-.296.21-1.183c.546-.253 1.472.423 1.472.423M16.164 6.232l2.943-2.197.084 1.014-2.228 2.07-.799-.887"/><path fill="#FFF" d="M9.635-9.777l-.87 3.548-.433 2.619-.072 1.943 3.94.211h2.451l-.223-4.435.378-3.422-.042-.633-3.195-.254-1.934.423"/><path fill="#DCD9D8" d="M14.104-1.414s-.21-4.393.42-7.518c0 0-1.26-.803-3.11-1.014l3.531.127.42.253-.504 6.927-.126 1.48"/><path fill="#FFF" d="M16.656-4.962l1.64.465 3.111.168.463 1.437L21.029-.4l-.967.126-1.346-.422-1.291-.633-.685.126-.534-.211"/><path fill="#DCD9D8" d="M16.627-4.117s1.093.507 1.26.465l-.461 2.323.546.211s.378-2.196.378-2.45c0 0 2.355-.127 2.565-.127 0 0 .505.972.378 1.986l.463-1.352.042-.76-.673-1.014-.756-.169-1.262.042-.42.55-1.472-.212-.462-.169"/></g><path fill="#FFF" fill-rule="nonzero" d="M14.975-1.118l-.925 2.365-.967 1.394s.21.592.505.592h.967l.925-.338-.084-1.563-.42-2.45M10.013 5.26l-1.164.127-1.093.338v-.38l.534-.592 1.681-.76"/><path fill="#DCD9D8" d="M8.134 5.133s1.304-.549 1.724-.422l.042-.506-1.177.253-.715.506.126.17"/><path fill="#D33833" d="M16.652 3.089c-.713.02-1.358.106-1.922.266.038.232-.034.46.024.628.157.114.421.112.659.139a1.141 1.141 0 0 1-.732.083c-.005.16-.077.26-.121.387.401.144 1.348 1.087 1.88.775.254-.149.362-.997.382-1.41.016-.342-.031-.687-.17-.868"/><path stroke="#D33833" stroke-width=".522" d="M16.652 3.089c-.713.02-1.358.106-1.922.266.038.232-.034.46.024.628.157.114.421.112.659.139a1.141 1.141 0 0 1-.732.083c-.005.16-.077.26-.121.387.401.144 1.348 1.087 1.88.775.254-.149.362-.997.382-1.41.016-.342-.031-.687-.17-.868z"/><path fill="#D33833" d="M13.24 4.26l-.006-.163c-.223-.147-.582-.145-.827-.269a2.14 2.14 0 0 0 .89-.226l-.016-.41c-.408-.28-.781-.699-1.262-.962-.227-.124-1.025-.445-1.267-.388-.137.032-.149.202-.204.363-.116.344-.384.892-.408 1.41-.03.655-.095 1.752.607 1.618a6.256 6.256 0 0 0 1.664-.612c.268-.147.423-.33.83-.36"/><path stroke="#D33833" stroke-width=".522" d="M13.24 4.26l-.006-.163c-.223-.147-.582-.145-.827-.269a2.14 2.14 0 0 0 .89-.226l-.016-.41c-.408-.28-.781-.699-1.262-.962-.227-.124-1.025-.445-1.267-.388-.137.032-.149.202-.204.363-.116.344-.384.892-.408 1.41-.03.655-.095 1.752.607 1.618a6.256 6.256 0 0 0 1.664-.612c.268-.147.423-.33.83-.36z"/><path fill="#D33833" d="M13.646 3.48c-.062.356-.134.458-.107.769.947.634 1.125-1.09.107-.77"/><path stroke="#D33833" stroke-width=".522" d="M13.646 3.48c-.062.356-.134.458-.107.769.947.634 1.125-1.09.107-.77z"/><g fill-rule="nonzero"><path fill="#EF3D3A" d="M15.017 3.19s-.295.423-.084.55c.21.126.42 0 .546.21.127.212 0 .339.042.592.042.254.253.296.463.338.21.042.799.127.883-.084l-.252.76-.505.169-1.598-.93-.084-.464V3.4m-3.826-1.605c-.05.66-.104 1.318-.163 1.976-.09.984.235.812 1.083.812.13 0 .798-.155.846-.253.23-.47-.384-.366.264-.721.547-.3 1.512.182 1.291.848-.123.148-.644.046-.83.143-.329.17-.657.342-.985.513-.418.218-1.384.535-1.83.231-1.129-.771.071-2.699.474-3.503"/><path d="M11.708 16.763c-1.146.268-1.715-.482-2.062-1.26-.31.076-.187.5-.109.715.205.567 1.032 1.321 1.707 1.22.291-.045.684-.312.464-.675m5.584-1.31c.018-.002.036-.002.055-.003.258-.54.483-1.113.81-1.59-.22-.512-1.658-.965-1.636-.046.311.137.848.028 1.124.203-.16.44-.39.814-.353 1.435m-4.997-.015c.246-.452.326-.928.675-1.27.157-.154.463-.341.311-.77-.035-.1-.294-.326-.443-.37-.546-.162-1.819-.033-1.388.65.452-.02 1.059-.294 1.396.035-.259.417-.721 1.24-.551 1.725m4.791-4.598c-.822-.53-1.738-1.108-3.085-.974-.288.252-.398.811-.118 1.18.145-.25.054-.713.46-.783.764-.131 1.653.47 2.203.68.341.577-.03.79-.336 1.161-.63.762-1.473 1.706-1.442 2.846.254.185.276-.283.312-.368.329-.772 1.155-1.76 1.758-2.42.148-.163.392-.319.42-.426.077-.313-.204-.688-.172-.896m-10.837.558c-.258.148-.32.799-.622.817-.432.027-.353-.844-.352-1.353-.297.271-.35 1.107-.131 1.536-.25.123-.36-.135-.499-.226.178 1.296 1.888.6 1.604-.774m11.36-1.098c-.382-.732-.923-1.538-2.046-1.561-.023.236-.04.596 0 .738.86.083 1.39.522 2.046.823m-5.379-.475c.716-.378 2.033-.419 3.006-.39.052-.214.051-.479.053-.74-1.251-.063-2.73.248-3.059 1.13m-.136-.705c.495-1.25 2.198-1.106 3.633-1.071-.063-.162-.2-.354-.37-.423-.46-.188-1.729-.331-2.368.01-.405.216-.665.705-.887.991-.107.139-.64.492-.008.493" fill="#231F20"/><path fill="#81B0C4" d="M17.027 2.227c-.58-1-1.137-2.028-1.827-2.91.29.854.413 2.284.457 3.373.605.285 1.123-.064 1.37-.463"/><path d="M20.154-1.368c-.651-.131-1.108-.767-1.743-.726.349.494.96.703 1.743.726m.287-1.023c-.53-.056-1.153-.143-1.69-.099.254.393 1.235.258 1.69.1m.185-.884a19.584 19.584 0 0 0-1.904.047c.335.364 1.517.135 1.904-.047" fill="#231F20"/><path fill="#DCD9D8" d="M15.906-5.687c.085-.752.382-1.514.345-2.338-.33-.111-.519-.21-.96-.208-.032.7-.125 1.77-.097 2.437.217-.014.537.156.712.11"/><path fill="#F0D6B7" d="M14.944 5.397c-.299-.196-.554-.44-.841-.65-.638-.032-.986.044-1.454.412.008.03.055.016.056.052.683-.305 1.55.125 2.24.186"/><path fill="#81B0C4" d="M11.362.724c.188.817.922 1.24 1.59 1.689.688-.878 1.107-2.007 1.568-3.097-1.09.33-2.203.866-3.158 1.408"/><path fill="#231F20" d="M15.193-5.796c-.028-.667.065-1.738.097-2.437.441-.001.63.097.96.208.037.824-.26 1.586-.345 2.338-.175.047-.495-.123-.712-.109zM8.317-2.001c.291-2.69.713-4.95 1.487-7.332 1.716-.523 3.786-.569 5.304-.096-.279 1.344-.157 2.98-.32 4.415-.123 1.078-.06 2.162-.229 3.262-1.838.385-4.437.09-6.242-.249zm6.677.232c-.015-1.155.052-2.294.14-3.45.44.066.74.11 1.15.201-.133 1.113-.116 2.366-.387 3.351-.314-.003-.59.004-.903-.102zm2.24.187c-.21.048-.454.002-.654-.002.094-.942.322-1.98.403-2.97.315-.009.483.14.742.19.014.868-.075 2.063-.491 2.782zm3.39-3.113c.657.16 1.07.968.886 1.798-.123.557-.343 1.607-.577 1.964-.174.264-.645.61-1.02.367-.612-.393-1.688-.507-2.134-.983.223-.748.293-1.775.385-2.722.764-.048 1.703.211 2.338-.064-.443-.144-1.018-.145-1.401-.355.313-.152 1.046-.121 1.523-.005zM14.52-.684c-.46 1.09-.88 2.219-1.568 3.097-.667-.45-1.402-.872-1.59-1.689.956-.542 2.069-1.078 3.158-1.408zm1.137 3.374C15.612 1.6 15.489.171 15.2-.683c.69.882 1.245 1.91 1.826 2.91-.247.4-.765.747-1.37.463zm-1.289.46c-.26.028-.483-.302-.822-.159-.078-.086-.149-.18-.228-.264.75-.909 1.091-2.197 1.67-3.265.311 1.025.276 2.149.344 3.268-.427-.027-.664.388-.964.42zM13.54 4.25c-.028-.311.044-.413.106-.77 1.018-.32.84 1.404-.106.77zm-1.129.372a6.254 6.254 0 0 1-1.664.612c-.702.135-.636-.963-.606-1.617.023-.519.291-1.067.408-1.411.054-.16.067-.331.204-.363.241-.057 1.039.264 1.266.388.481.263.854.682 1.262.962l.016.41a2.14 2.14 0 0 1-.89.226c.245.124.605.122.827.269l.007.163c-.407.032-.562.214-.83.361zm-4.19.765c-.363-.372 1.022-.878 1.463-.905-.003.235.133.456.106.625-.524.092-1.212.031-1.568.28zm4.485-.175c-.002-.036-.049-.023-.056-.052.468-.368.816-.444 1.453-.412.288.21.543.454.842.65-.69-.061-1.557-.491-2.239-.186zm4.116-1.254c-.02.413-.128 1.261-.381 1.41-.533.312-1.48-.631-1.88-.775.043-.126.115-.226.12-.387.238.058.526.018.732-.083-.238-.027-.501-.025-.659-.14-.057-.167.014-.395-.024-.627.564-.16 1.209-.245 1.922-.266.14.181.186.526.17.868zm-9.213 1.07c-.114.081-.888 1.092-.993 1.05-1.4-.554-2.708-1.513-3.877-2.42C3.853 1.254 4.302-1.69 4.382-4.528c1.277-.6 2.399-1.465 4.132-1.555-.201 1.425-.384 2.697-.498 4.04-.435.184-1.06-.01-1.467.056-.004.494.622.216.674.548.04.251-.344.27-.22.665.32-.116.486-.373.826-.47.31.683-.004 1.89.04 2.46.009.107.054.593.292.508.212-.076-.012-1.293.011-1.833.022-.497-.06-.978.141-1.29 1.675.229 3.376.377 5.188.427-.399.172-.872.334-1.391.628-.282.16-1.169.491-1.25.76-.13.428.34.656.42 1.022-.845-.463-1.01.444-1.21 1.087-.181.582-.284 1.017-.329 1.352-.728.35-1.506.702-2.133 1.15zm8.473.928c1.166.568 1.376-2.123.92-2.99.07-.258.313-.357.412-.59-.65-1.17-1.373-2.263-2.037-3.42.494.308 1.2.055 1.78.286.213.084.366.573.527.964.443 1.075.907 2.43 1.114 3.457.046.233.173.743.145.95-.051.373-.554.65-.81.88-.471.426-.768.8-1.26 1.198-.2-.296-.628-.495-.79-.735zM4.941 16.342c-.555-.614-.438-1.765-.371-2.583 1.004.634 2.337-.05 2.324-1.13.48.013.18.601.093.98-.284 1.24.477 2.585.034 3.718-.86-.065-1.567-.418-2.08-.985zm3.976 3.564c-1.258-.358-2.87-1.276-3.386-2.411.4.058.677.26 1.072.286.15.01.345-.063.516-.02.342.085.63.855.888 1.141.251.28.553.4.76.654.133.065.33.06.337.26-.058.062-.118.11-.187.09zm6.546-.337c-1.305.74-3.515 1.297-4.903.601-1.12-.561-2.635-1.49-3.151-2.666.482-1.136-.143-2.176-.183-3.33-.021-.613.287-1.148.311-1.816-.165-.274-.67-.307-1.018-.289-.118.591-.324 1.255-.93 1.322-.856.094-1.482-.618-1.521-1.363-.046-.875.669-2.326 1.683-2.226.392.04.488.434.915.43.231-.464-.357-.61-.418-.941-.015-.086.05-.42.087-.578.184-.764.594-1.754.999-2.336.512-.738 1.52-.85 2.604-.922.194.42.907.385 1.372.275-.557.222-1.075.76-1.504 1.235-.493.546-.992 1.13-1.018 1.844.932-1.298 1.702-2.432 3.395-3.003 1.282-.432 2.779.198 3.764.892.409.29.653.747.943 1.167 1.087 1.57 1.594 3.812 1.482 5.985-.045.897-.043 1.79-.343 2.393-.313.63-1.37 1.194-1.99.624-.115.613.515.992 1.255.771-.528.684-1.081 1.506-1.83 1.931zM17.895-.65c1.02.51 2.926 1.371 3.565-.002.236-.506.513-1.361.635-1.884.173-.737-.187-2.286-.94-2.534-.667-.218-1.444-.205-2.246-.043-.095.08-.2.217-.274.36-.573.022-1.109-.03-1.562-.267.043-.426-.243-.494-.512-.582-.199-.793.399-1.83.256-2.553-.103-.515-.734-.595-1.198-.691-.015-.287.02-.526.052-.768-.106-.393-.581-.616-1.032-.671-1.483-.18-3.735-.26-5.162.255-.398.982-.712 2.175-1.043 3.295-1.392-.15-2.517.603-3.578 1.096-.367.171-.875.265-1.012.56-.134.283-.08.829-.112 1.343-.084 1.315-.156 2.584-.502 3.93-.155.604-.425 1.137-.614 1.72-.174.54-.48 1.206-.559 1.744-.118.797.63.842 1.108 1.187.739.535 1.319.83 2.119 1.312.237.143.951.505 1.033.671.161.33-.278.796-.395 1.055-.186.409-.283.756-.31 1.16a2.228 2.228 0 0 0-1.487.96c-.508.75-.86 2.135-.42 3.189.034.083.206.246.231.374.05.25-.094.584-.103.851-.046 1.37.23 2.55 1.149 2.964.372 1.49 1.706 1.987 2.962 2.728.47.277.988.454 1.523.652 1.918.709 4.861.575 6.453-.634.675-.513 1.754-1.596 2.14-2.38 1.02-2.07.947-5.53.234-8.049-.096-.338-.235-.835-.429-1.241-.135-.284-.556-.851-.505-1.101.053-.26.96-.95 1.154-1.14.35-.338 1.015-.789 1.068-1.217.058-.455-.2-1.078-.33-1.518-.436-1.467-.862-2.823-1.357-4.131z"/><path fill="#F7E4CD" d="M11.09 9.504c.056.074.36.186.786-.02 0 0-.505-.084-.463-.93l-.21.043s-.217.767-.112.907"/><path fill="#1D1919" d="M14.778 2.241a.232.232 0 0 0-.232-.233.232.232 0 0 0-.231.233c0 .13.104.234.231.234a.233.233 0 0 0 .232-.234m.23-1.077a.232.232 0 0 0-.23-.233.232.232 0 0 0-.232.233c0 .13.104.234.231.234a.232.232 0 0 0 .232-.234"/></g></g></g></svg>