<svg xmlns="http://www.w3.org/2000/svg" width="32" height="32"><g fill="none"><path fill="#AC4142" d="M20.732 10.033l-1.608 3.257c.528.49.901 1.137 1.049 1.87h1.212c.14-.694.481-1.317.97-1.8l-1.623-3.327z"/><path fill="#AC4142" d="M17.772 12.503l2.96-5.999 2.952 6.038c.117-.04.233-.07.35-.101l2.804-8.297h-12.22l2.797 8.273c.117.024.24.055.357.086z"/><path fill="#D14748" d="M16.755 17.808a1.962 1.962 0 0 0 1.639-3.038 1.928 1.928 0 0 0-.218-.28l-.007-.008a1.45 1.45 0 0 0-.265-.226l-.007-.008c-.024-.016-.055-.039-.086-.055-.008 0-.008-.007-.015-.007-.031-.016-.062-.04-.094-.055h-.007c-.031-.015-.07-.039-.101-.054h-.008c-.031-.016-.062-.032-.093-.04-.008 0-.016-.007-.024-.007-.023-.008-.054-.024-.077-.031-.008 0-.016-.008-.031-.008-.031-.008-.062-.023-.094-.031h-.007l-.11-.024c-.007 0-.015 0-.03-.007-.031-.008-.055-.008-.086-.016-.015 0-.023 0-.038-.008-.024 0-.055-.008-.078-.008H16.615c-.031 0-.054.008-.086.008h-.03c-.032.008-.063.008-.094.016h-.023l-.109.023a1.97 1.97 0 0 0-1.491 1.909 1.99 1.99 0 0 0 1.973 1.955zm8.234-3.926h-.015c-.031 0-.055-.008-.086-.008h-.1c-.04 0-.078 0-.125.008h-.039c-.03 0-.062.008-.093.008-.008 0-.023 0-.031.007l-.117.024h-.007l-.11.023c-.007 0-.022.008-.03.008-.031.008-.062.016-.093.031-.008 0-.016.008-.024.008a1.52 1.52 0 0 0-.108.047c-.04.015-.07.03-.11.046-.007 0-.015.008-.023.008-.03.016-.062.031-.093.055 0 0-.008 0-.008.007-.07.04-.14.086-.202.14l-.007.008a2.126 2.126 0 0 0-.272.258 1.979 1.979 0 0 0-.474 1.285c0 1.083.878 1.963 1.958 1.963s1.957-.88 1.957-1.963c0-.95-.683-1.753-1.577-1.932-.046-.016-.109-.023-.17-.031zM8.637 17.808c1.08 0 1.957-.88 1.957-1.963a1.962 1.962 0 0 0-1.957-1.963c-1.08 0-1.958.88-1.958 1.963 0 1.083.878 1.963 1.958 1.963z"/><path fill="#AC4142" d="M24.795 19.327a3.486 3.486 0 0 1-3.364-2.61h-1.305a3.486 3.486 0 0 1-3.9 2.571c-.45.694-.986 1.333-1.615 1.925a10.697 10.697 0 0 1-3.73 2.321l-.318.117-.295-.156c-1.631-.841-2.47-2.547-2.175-4.199a3.009 3.009 0 0 1-.536-.14c-.031.054-.055.117-.086.18-.497 1.027-1.017 2.087-1.204 3.224-.202 1.216-.287 3.436 1.422 4.62.746.514 1.53.771 2.408.771 1.686 0 3.504-.903 5.43-1.862 1.507-.747 3.061-1.527 4.677-1.924a19.73 19.73 0 0 1 1.833-.327c1.096-.156 2.137-.312 2.983-.802a3.441 3.441 0 0 0 1.686-2.392 3.504 3.504 0 0 0-.155-1.792 3.502 3.502 0 0 1-1.756.475z"/></g></svg>