<svg xmlns="http://www.w3.org/2000/svg" width="32" height="32"><path fill="#F4BF75" d="M4 4h24v24H4V4zm6.307 20.053c.533 1.134 1.586 2.067 3.386 2.067 2 0 3.374-1.067 3.374-3.4v-7.707H14.8v7.654c0 1.146-.467 1.44-1.2 1.44-.773 0-1.093-.534-1.453-1.16l-1.84 1.106zm7.973-.24c.667 1.307 2.013 2.307 4.12 2.307 2.133 0 3.733-1.107 3.733-3.147 0-1.88-1.08-2.72-3-3.546l-.56-.24c-.973-.414-1.386-.694-1.386-1.36 0-.547.413-.974 1.08-.974.64 0 1.066.28 1.453.974l1.747-1.16c-.734-1.28-1.774-1.774-3.2-1.774-2.014 0-3.307 1.28-3.307 2.974 0 1.84 1.08 2.706 2.707 3.4l.56.24c1.04.453 1.653.733 1.653 1.506 0 .64-.6 1.107-1.533 1.107-1.107 0-1.747-.573-2.227-1.373l-1.84 1.066z"/></svg>