<svg xmlns="http://www.w3.org/2000/svg" width="32" height="32"><g fill="none"><path fill="#EE9D5C" d="M22.965 11.002v2.386h2.385v11.925H13.425v-2.385H11.04v4.77h16.695V11.002z"/><path fill="#F4BF75" d="M4.414 4.451h16.858v16.858H4.414V4.45zm4.43 14.085c.374.796 1.114 1.452 2.378 1.452 1.405 0 2.37-.75 2.37-2.388v-5.413H12v5.375c0 .806-.328 1.012-.843 1.012-.543 0-.768-.375-1.021-.815l-1.292.777zm5.6-.168c.468.917 1.414 1.62 2.894 1.62 1.498 0 2.622-.777 2.622-2.21 0-1.32-.758-1.91-2.107-2.491l-.393-.169c-.684-.29-.974-.487-.974-.955 0-.384.29-.684.758-.684.45 0 .75.197 1.02.684l1.228-.815c-.515-.9-1.246-1.246-2.248-1.246-1.414 0-2.322.9-2.322 2.089 0 1.292.758 1.9 1.9 2.388l.394.168c.73.319 1.161.516 1.161 1.059 0 .45-.421.777-1.077.777-.777 0-1.226-.403-1.564-.965l-1.292.75z"/></g></svg>