<svg xmlns="http://www.w3.org/2000/svg" width="32" height="32"><g fill="none" fill-rule="evenodd"><path fill="#AA759F" fill-rule="nonzero" d="M9 7h2v2H9v5a2 2 0 0 1-2 2 2 2 0 0 1 2 2v5h2v2H9c-1.07-.27-2-.9-2-2v-4a2 2 0 0 0-2-2H4v-2h1a2 2 0 0 0 2-2V9a2 2 0 0 1 2-2zm14 0a2 2 0 0 1 2 2v4a2 2 0 0 0 2 2h1v2h-1a2 2 0 0 0-2 2v4a2 2 0 0 1-2 2h-2v-2h2v-5a2 2 0 0 1 2-2 2 2 0 0 1-2-2V9h-2V7h2z"/><path fill="#B9DE68" d="M16 19a1 1 0 1 1 0 2 1 1 0 0 1 0-2zm-4 0a1 1 0 1 1 0 2 1 1 0 0 1 0-2zm8 0a1 1 0 1 1 0 2 1 1 0 0 1 0-2z"/></g></svg>