<svg xmlns="http://www.w3.org/2000/svg" width="32" height="32"><g fill="none" fill-rule="evenodd"><path fill="#6A9FB5" fill-rule="nonzero" d="M23.6 16.3c-.641-.254-1.239-.402-1.239-.824 0-.317.256-.507.726-.507s.897.19 1.366.528l.854-1.119c-.534-.401-1.26-.823-2.241-.823-1.452 0-2.434.823-2.434 1.984 0 1.035.918 1.563 1.687 1.858.661.254 1.302.465 1.302.887 0 .317-.256.528-.833.528-.533 0-1.067-.211-1.644-.655l-.853 1.225c.64.528 1.622.887 2.433.887 1.708 0 2.626-.887 2.626-2.048s-.918-1.647-1.75-1.922zm-5.167 0c-.661-.254-1.259-.402-1.259-.824 0-.317.256-.507.726-.507s.896.19 1.366.528l.854-1.119c-.534-.401-1.26-.823-2.242-.823-1.451 0-2.433.823-2.433 1.984 0 1.035.918 1.563 1.686 1.858.662.254 1.302.465 1.302.887 0 .317-.256.528-.832.528-.534 0-1.067-.211-1.644-.655l-.832 1.225c.64.528 1.622.887 2.433.887 1.708 0 2.626-.887 2.626-2.048s-.918-1.647-1.75-1.922zm-6.297-2.766c-1.558 0-3.052 1.287-3.01 3.314 0 2.09 1.388 3.315 3.224 3.315.768 0 1.622-.274 2.284-.718l-.64-1.119c-.47.275-.918.401-1.388.401-.854 0-1.516-.4-1.686-1.372h3.863c.022-.148.064-.443.064-.781.022-1.71-.918-3.04-2.71-3.04zm-1.216 2.66c.128-.845.64-1.246 1.238-1.246.768 0 1.067.528 1.067 1.246H10.92z"/><path fill="#7ACCEE" d="M6.782 11H5.647c-1.153 0-1.665.443-1.665 1.816 0 .908.128 1.414.128 2.196 0 .443-.277.907-1.11.95v1.098c.833.02 1.11.485 1.11.928 0 .782-.128 1.246-.128 2.154 0 1.372.512 1.816 1.644 1.816h.832v-.971h-.256c-.534 0-.704-.212-.704-.908 0-.697.064-1.288.064-2.07 0-.97-.32-1.35-.961-1.498v-.064c.64-.148.96-.528.96-1.499 0-.76-.063-1.372-.063-2.069 0-.697.149-.887.704-.887h.58V11zm21.108 4.012c0-.824.128-1.31.128-2.196 0-1.373-.512-1.816-1.644-1.816h-.832v.971h.256c.576 0 .704.19.704.887 0 .654-.064 1.309-.064 2.07 0 .97.32 1.35.961 1.498v.063c-.64.148-.96.528-.96 1.5 0 .76.063 1.372.063 2.069 0 .717-.149.907-.704.907v.022h-.256V22h.832c1.132 0 1.644-.443 1.644-1.816 0-.908-.128-1.372-.128-2.196 0-.443.277-.907 1.11-.95V15.94c-.833-.02-1.11-.485-1.11-.928z"/><path fill="#6A9FB5" d="M8.678 18.157V11h-1.9v7.052c0 1.288.449 2.132 1.75 2.132.406 0 .727-.063.961-.148l-.213-1.372c-.128.021-.598-.105-.598-.507z"/></g></svg>