<svg xmlns="http://www.w3.org/2000/svg" width="32" height="32"><g fill="none" fill-rule="evenodd" transform="translate(5 5)"><circle cx="11.521" cy="11.522" r="10.771" stroke="#42A5F5" stroke-width="1.043"/><path fill="#3965BD" d="M11.654 4.89c-3.736 0-6.764 2.981-6.764 6.658 0 3.677 3.028 6.658 6.764 6.658a6.82 6.82 0 0 0 4.784-1.95 6.606 6.606 0 0 0 1.982-4.708c0-1.766-.713-3.46-1.982-4.709a6.82 6.82 0 0 0-4.784-1.95zm1.94 2a2.45 2.45 0 0 1 1.72.7c.456.448.712 1.057.712 1.692-.001 1.32-1.09 2.391-2.432 2.39-1.341 0-2.428-1.07-2.43-2.39 0-1.321 1.088-2.392 2.43-2.393z"/><ellipse cx="19.272" cy="3.71" fill="#3965BD" rx="2.43" ry="2.392"/></g></svg>