<svg xmlns="http://www.w3.org/2000/svg" width="32" height="32"><g fill="none"><path fill="#7ACCEE" d="M9.755 15L4 17.009 8.451 20 12 16.661 9.755 15z"/><path fill="#6A9FB5" d="M20.91 5.002c-.518.068-.377.039-1.12.609-.71.545-2.755 3.795-3.849 4.888-.973.973-1.358.462-2.369 1.273C12.56 12.585 11 14.21 11 14.21L13.521 16l3.998-5.275c.944-1.246.933-1.41 1.448-2.716.251-.64.7-1.131 1.094-1.733.492-.751 1.19-1.318.849-1.274z"/><path fill="#D14748" d="M20.363 5c-1.166-.007-2.315 5.126-4.31 9.064C14.016 18.08 10 20.67 10 20.67c.677.308 1.294.183 2.023.873.5.604 1.943 3.585 2.804 5.458 0 0 .708-.385 1.604-1.034.897-.65 1.982-1.565 2.738-2.626 1.003-1.408 1.786-2.28 2.45-2.811.665-.532 1.21-.723 1.734-.768 1.874-.16 4.647 3.205 4.647 3.205S22.193 5.01 20.363 5z"/></g></svg>