<svg xmlns="http://www.w3.org/2000/svg" width="32" height="32"><g fill="none" transform="translate(4 5)"><path fill="#F4BF75" d="M2.96.293h10.82a2.733 2.733 0 0 1 2.74 2.724 2.733 2.733 0 0 1-2.74 2.724H2.96A2.733 2.733 0 0 1 .222 3.017 2.733 2.733 0 0 1 2.96.293z"/><ellipse cx="20.844" cy="3.017" fill="#F4BF75" rx="2.795" ry="2.724"/><path fill="#F4BF75" d="M10.155 8.427h10.689c1.51-.113 2.814 1.033 2.927 2.536.113 1.502-1.039 2.798-2.55 2.911H10.155c-1.51.113-2.814-1.033-2.927-2.536-.113-1.502 1.039-2.799 2.55-2.911h.377z"/><path fill="#D14748" d="M3.017 8.37a2.781 2.781 0 0 1 2.795 2.78c0 1.54-1.247 2.78-2.795 2.78-1.549-.018-2.795-1.258-2.795-2.78 0-1.54 1.246-2.78 2.795-2.78z"/><path fill="#F4BF75" d="M2.96 16.26h10.82a2.733 2.733 0 0 1 2.74 2.723 2.733 2.733 0 0 1-2.74 2.724H2.96a2.733 2.733 0 0 1-2.738-2.724A2.733 2.733 0 0 1 2.96 16.26z"/><ellipse cx="20.844" cy="18.983" fill="#F4BF75" rx="2.795" ry="2.724"/></g></svg>