<svg xmlns="http://www.w3.org/2000/svg" xmlns:xlink="http://www.w3.org/1999/xlink" width="32" height="32"><defs><path id="a" d="M12 0c-.223 0-.444.056-.644.17L.644 6.26C.244 6.49 0 6.93 0 7.386v12.226c0 .457.244.875.644 1.104l10.712 6.113c.4.228.887.228 1.288 0l10.712-6.113c.4-.229.644-.647.644-1.104V7.386a1.3 1.3 0 0 0-.644-1.125L12.644.17C12.444.056 12.224 0 12 0"/></defs><g fill="none" fill-rule="evenodd" transform="translate(4 3)"><mask id="b" fill="#fff"><use xlink:href="#a"/></mask><use fill="#9DBD58" xlink:href="#a"/><path fill="#AEE33E" mask="url(#b)" transform="rotate(60 11.886 13.303)" d="M-2.114 6.357h28v13.892h-28z"/></g></svg>