<svg xmlns="http://www.w3.org/2000/svg" width="32" height="32"><path fill="#F4BF75" d="M16.27 24.274c.068.148.171.486.253.658.048.103.173.418.264.69l-2.931.092c-1.857.1-1.513-.361-2.703-.443l-1.276.09c.082-.195.157-1.028.184-1.107.14-.417.326-.76.611-1.082.279-.314.264-.72.427-1.085.176-.398.413-.716.636-1.09.404-.676.67-1.53 1.53-1.703.091-.019.617.365.85.594.267.26.56.561.735.92.34.695.628 1.703.737 2.258.063.32.113.339.326.591.098.116.293.478.358.617zm3.716-6.15c.88-.642 1.282-1.693 1.282-1.693.145-.328.145-.913.456-1.175.367-.31.982-.287 1.403-.477.246-.11.424-.172.676-.119.186.04.523.259.6-.049-.062-.04-.087-.115-.12-.157.347-.034.006-.85-.13-1.013-.213-.251-.567-.367-.943-.468-.447-.12-.853-.258-1.273-.175-.735.146-.68-.28-1.114-.28-.52 0-1.444.026-1.604.538-.074.239-.151.249-.28.432-.11.157.02.296-.036.475-.057.185-.141.834-.23 1.06-.147.383-.324.862-.65.862-.458.055-.817.073-1.188-.064-.223-.082-.597-.21-.782-.29-.853-.363-.994-.762-.994-.762-.091-.153-.333-.4-.423-.723-.1-.356-.267-.652-.335-.837-.07-.192-.238-.499-.37-.83-.169-.425-.406-.743-.58-.9-.266-.24-.512-.612-1.051-.504-.097.02-.447.036-.716.264-.182.155-.24.474-.408.744-.098.156-.269.602-.426.975-.11.258-.16.452-.278.547-.092.074-.206.17-.344.118a1.045 1.045 0 0 1-.27-.16c-.125-.1-.408-.589-.583-.95-.15-.313-.473-.782-.66-1.035-.268-.365-.425-.458-.822-.458-.85 0-.915.483-1.289 1.185-.164.308-.224.797-.554 1.18-.189.22-.79 1.122-1.209 1.275V8.196c0-1.636 1.31-2.963 2.924-2.963h17.363c1.616 0 2.925 1.326 2.925 2.963v17.41c-2.082.485-3.34-.699-5.659-.478-.916.087-2.342.008-3.367.162-.56.084-.991.24-1.422.314l-.008-.018c-.348-.708-.571-1.528-.686-2.312-.03-.202.028-.404-.033-.593-.051-.166-.17-.181-.247-.316-.204-.353-.415-.81-.435-1.243-.018-.389-.159-.74-.178-1.125-.01-.186.013-.378.006-.561a1.802 1.802 0 0 0-.026-.265l-.027-.162.047-.12c-.021-.042.407-.029.535-.028.216.003.42.015.636.025a6.03 6.03 0 0 0 1.274-.05c.957-.15 1.398-.547 1.623-.712zm-9.727 1.492c.18.018.853.04.894.09-.342.177-.542.673-.67 1.024-.135.366-.228.773-.39 1.13-.18.396-.555.56-.51 1.021.017.184.05.377.02.579-.033.213-.118.38-.18.588-.079.272-.173 1.15-.296 1.409l-.15.02c-1.6.185-1.997.148-3.628-.293-.22-.06-.418-.1-.607-.133v-3.993c.027-.084.056-.164.088-.236.162-.35.538-.674.746-1.032.114-.196.243-.387.318-.593.065-.176.097-.44.19-.593.114-.188.294-.252.478-.282.288-.048.533.42.901.592.157.073.88.332 1.098.385.358.087.755.16 1.118.234.194.04.38.063.58.083z"/></svg>