<svg xmlns="http://www.w3.org/2000/svg" width="32" height="32"><g fill="none" fill-rule="evenodd"><path fill="#D14748" d="M5.846 5.846v20.308h20.308V5.846H5.846zm0-1.846H28v24H4V4h1.846zm13.436 8.718H16v10.667H8.615V8.615h14.77v14.77h-4.103V12.718z"/><path fill="#F4BF75" fill-rule="nonzero" d="M30.5 21.333h-.75V19.81c0-2.103-1.68-3.81-3.75-3.81-2.07 0-3.75 1.707-3.75 3.81v1.523h-.75c-.825 0-1.5.686-1.5 1.524v7.62c0 .837.675 1.523 1.5 1.523h9c.825 0 1.5-.686 1.5-1.524v-7.619c0-.838-.675-1.524-1.5-1.524zM26 28.19c-.825 0-1.5-.685-1.5-1.523 0-.838.675-1.524 1.5-1.524s1.5.686 1.5 1.524-.675 1.523-1.5 1.523zm2.325-6.857h-4.65V19.81c0-1.303 1.043-2.362 2.325-2.362 1.282 0 2.325 1.059 2.325 2.362v1.523z"/></g></svg>