<svg xmlns="http://www.w3.org/2000/svg" width="32" height="32"><path fill="#8251A8" d="M16.643 16.6c-1.286 0-3.857 1.3-3.857 2.6 0 2.6 3.857 2.6 3.857 2.6v-1.3c-.71 0-1.286-.582-1.286-1.3 0-.718.576-1.3 1.286-1.3v-1.3zm0 6.5s-5.143-.65-5.143-3.25c0-3.9 3.857-4.875 5.143-4.875V13.35c-1.286 0-6.429 1.95-6.429 5.85 0 5.2 6.429 5.2 6.429 5.2v-1.3zM14.16 7.539l1.53.689c.553-3.172 2.032-5.278 2.032-5.278a26.783 26.783 0 0 0-1.144 3.315C18.134 3.015 21.284 1 21.284 1a20.677 20.677 0 0 0-3.394 4.589c2.031-2.184 4.847-3.614 4.847-3.614-3.458 2.236-5.014 5.785-5.4 6.773l.707.104c0 .676 0 1.3.322 1.794.977 2.457 5.991 2.665 5.991 8.554S19.176 27 16.424 27c-2.751 0-8.781-1.261-8.781-7.8s6.364-6.591 7.496-9.204c.154-.494-.978-2.457-.978-2.457z"/></svg>