<svg xmlns="http://www.w3.org/2000/svg" width="32" height="32"><g fill="none" fill-rule="nonzero"><path fill="#D14748" d="M19.374 6.04h5.773l-2.887 4.973L19.374 16 16.5 20.987l-2.887 4.974h-5.76l2.887-4.974L13.613 16l2.887-4.987 2.874-4.974z"/><path fill="#7ACCEE" d="M4.98 20.987L2.091 16l2.887-4.987L7.853 6.04h5.76l-2.873 4.974L7.853 16l2.887 4.987-2.887 4.974-2.874-4.974zM25.146 16l-2.887-4.987 2.887-4.974 2.874 4.974L30.908 16l-2.887 4.987-2.874 4.974h-5.76l2.873-4.974L25.147 16z"/></g></svg>