<svg xmlns="http://www.w3.org/2000/svg" width="32" height="32"><g fill="#D14748" fill-rule="evenodd" stroke="#D14748" stroke-width=".5"><path d="M8.804 14.067c.032.024.088.04.032.087-.04.056-.087.103-.119.167-.032.056-.055.071-.103.032.063-.104.127-.2.19-.287zm15.948 8.326c0 .024.008.04.008.064.016-.032.016-.048.024-.064h-.032zm0 .071v-.007.007zm-1.618 3.099l-1.381-7.659c-.024-.007-.056-.023-.111-.039a.524.524 0 0 1 .032.08c.039-.008.055-.008.07-.016 0-.008 0-.016.009-.024l1.38 7.659v-.001zm-1.429-9.383c-.008.024-.008.048-.008.072 0-.024 0-.049.009-.072zm.008.159c-.008 0-.008 0-.016-.009v.008c.009.008.009.008.017 0zm-.016.063v-.056c-.023.008-.047.008-.079.016.04.015.08.024.08.04z"/><path d="M27.878 14.472c-.016-.31-.024-.62-.056-.93-.055-.42-.11-.85-.206-1.263a7.148 7.148 0 0 0-.31-.993c-.15-.381-.3-.77-.491-1.136-.31-.588-.714-1.113-1.087-1.66-.247-.35-.564-.636-.802-.994-.135-.206-.333-.38-.532-.54-.317-.254-.65-.485-.983-.707a9.806 9.806 0 0 0-.778-.493c-.214-.12-.444-.215-.667-.318-.253-.12-.5-.262-.785-.318-.072-.015-.135-.04-.207-.063-.182-.064-.356-.135-.54-.19-.277-.088-.546-.191-.832-.263a7.651 7.651 0 0 0-.849-.159c-.317-.047-.642-.063-.96-.094a8.09 8.09 0 0 0-.61-.056c-.302-.016-.611-.016-.913-.024-.15-.008-.31-.024-.46-.016-.23.008-.46.032-.69.064-.222.024-.444.063-.659.095-.26.032-.523.048-.785.08-.246.032-.5.08-.745.12-.088.015-.175.047-.263.063-.19.04-.388.055-.578.119-.341.104-.683.223-1.016.35-.31.127-.611.262-.904.42-.302.167-.588.366-.873.557-.274.183-.542.377-.802.58a9.51 9.51 0 0 0-.722.643c-.127.127-.23.278-.35.421-.197.23-.396.453-.586.692-.158.199-.302.405-.452.612-.27.364-.5.754-.714 1.143-.087.16-.166.318-.246.477-.119.238-.246.469-.357.715a3.02 3.02 0 0 0-.19.532c-.111.39-.222.787-.325 1.176-.096.35-.12.715-.127 1.073-.008.318.024.628.055.946.008.08-.039.174.056.238-.032.087-.008.135.039.15-.055.088.024.144-.007.224-.008.015.024.047.039.07 0 .025-.008.057 0 .08.008.072.04.143.04.223 0 .055.047.119.063.175.008.023 0 .063-.016.079-.047.056-.04.103.032.135.04.103.024.15.016.2.016.07-.008.094 0 .11.064.127.088.27.095.413 0 .032.016.064.032.104.008 0 0 .15 0 .15.04-.023.072-.031.111-.047.024.103.048.199.08.286.04.064.04.095.024.103.031.143.047.278.102.413 0-.15-.015-.302-.04-.445.112.04.207.08.27.08.009-.025.017-.056.025-.072-.048-.047-.088-.119-.135-.166.016.063 0 .087 0 .111-.032-.016-.072-.032-.111-.048.031-.04.063-.08.11-.127 0-.071-.038-.135-.15-.127.048-.016.095-.04.15-.056.088-.047-.007-.134-.007-.246.008-.135-.072-.27-.095-.413-.04-.222-.032-.556-.056-.778-.047-.04-.087.063-.095.071.024.19.048.381.063.572-.047-.159-.08-.334-.119-.524-.008.055-.016.08-.016.111-.039.04-.007.088.016.143-.055-.024-.119-.016-.119-.016v.223c-.079-.08-.102-.143-.142-.2-.016-.062-.024-.126-.04-.19.016-.04 0-.063 0-.087a4.814 4.814 0 0 1-.024-.19c.008-.009-.007-.127-.007-.127.063.007.103.015.142.015-.079-.103-.024-.167.009-.23.016-.032.071-.04.087-.072.063-.12.167-.214.167-.365 0-.072.024-.151.031-.223.016-.135.032-.27.04-.405.016-.175 0-.35.04-.517.064-.277.143-.555.23-.834a8.86 8.86 0 0 1 .214-.588c.12-.31.23-.62.381-.913.214-.43.46-.842.698-1.263.151-.263.31-.509.477-.763.158-.246.316-.5.5-.731.25-.326.532-.626.84-.898.318-.286.62-.58.96-.842a9.714 9.714 0 0 1 1.413-.906c.405-.214.825-.382 1.246-.54.27-.104.563-.152.841-.239.317-.103.635-.15.968-.159.214-.008.42-.032.635-.056.19-.015.38-.031.587-.055-.024.032-.032.048-.04.063-.087.128-.182.255-.27.382-.07.103-.15.215-.222.318-.127.167-.262.334-.38.509-.183.262-.35.532-.54.794-.19.254-.397.493-.595.739-.262.342-.508.691-.77 1.033-.238.325-.491.636-.721.961-.207.286-.39.588-.588.882-.293.437-.587.866-.88 1.303-.23.333-.463.664-.698.993-.016.024-.04.031-.064.047-.063.103-.063.16-.087.207-.064.119-.127.238-.199.35-.04.063-.095.118-.143.182-.007-.095.127-.143.064-.262-.04.064-.08.119-.119.183l-.095.19c.031.024.087.04.031.087-.024.04-.047.087-.071.128a.288.288 0 0 0 .087-.08c0 .087-.047.159-.087.23-.032.063-.111.112-.166.159.007.008.063.032.071.04.071-.024.095-.064.103-.04.024-.032.048-.056.056-.08a.287.287 0 0 1 .158-.174c.032-.016.056-.04.08-.064.238-.246.484-.484.698-.747.333-.405.635-.826.952-1.239.135-.175.294-.35.436-.517.024.183.008.358 0 .525-.024.294-.04.588-.063.89-.008.118 0 .238-.008.357 0 .032-.024.055-.024.087 0 .08.024.167.024.247-.024.294-.056.58-.08.873-.008.064.024.128.04.183-.04.43.047.882-.024 1.335.055-.087.071-.143.071-.198.008-.048 0-.095 0-.15v-.08c.008-.144.04-.294.024-.438a1.479 1.479 0 0 1 .016-.46c.016-.064-.008-.143.032-.223v.12c-.008.451.008.905-.056 1.357-.008.04.025.112-.063.104-.072.143.016.246-.063.325-.016.016.015.088.023.136-.032.095-.032.095.016.103.008.175.024.333.031.5.127-.301.064-.612.12-.922.008.128.016.255.008.39 0 .207-.008.405-.016.611 0 .04-.008.08-.016.12-.024.111-.032.222-.071.325-.032.08-.016.2-.016.294v.303c.031.135-.008.206.016.286-.025.08-.032.103-.025.127l.025.12c.158-.017.087.103.15.166-.047.064-.031.087-.031.12 0 .071-.008.135-.016.206 0 .183-.008.366-.008.54 0 .025.008.048.008.072l-.008.223c.016.023 0 .047-.024.071-.008 0-.031-1.01-.031-1.01h-.12c-.015.477.025.906-.063 1.352-.095.007-.126.023-.23.023-.246 0-.492 0-.738.008-.294 0-.58.008-.873.008-.142 0-.293.016-.436.016-.19 0-.389-.024-.579-.024-.294 0-.58.024-.873.032-.214.008-.428.008-.642.016-.143.007-.287.015-.429.031-.063.008-.12.032-.198.056-.024 0-.08-.008-.127 0-.08.016-.15.063-.23.08-.12.023-.151.055-.136.174v.08c-.008.015.175-.025.175-.025-.016 0-.024.048-.048.088l.143-.056c.12.056.222.024.317.049.31.079.627.111.944.142.207.016.405.024.611.032.294.016.587.032.88.032.247 0 .485-.024.73-.024.34 0 .683.015 1.024.024.071 0 .15-.009.23-.009h.579c.516-.015 1.031-.024 1.547-.039.294-.008.596-.024.89-.032l.904-.024c.349-.008.698-.008 1.04-.015.26 0 .515-.01.777-.017.293-.008.595-.032.888-.047.16-.008.318-.024.477-.04.19-.016.389-.04.579-.047.285-.017.579-.025.865-.04.357-.024.714-.056 1.079-.064.333-.015.674-.008 1.007-.015.294-.009.588-.025.89-.032l.5-.025s.333-.007.5-.024c.285-.015.57-.047.856-.055.182-.008.365 0 .547-.008.294-.008.595-.024.889-.024.11 0 .23.016.373.024-.064.056-.103.087-.151.127.032.008.063.024.095.04a.214.214 0 0 1-.126.04c-.017.04-.033.055-.049.135h.143c-.055 0-.103.071-.158.119-.064-.016-.12 0-.151.087.055.032.048.056.04.088-.096.031-.167.063-.127.166-.032.016-.072.032-.112.056-.039.063-.11.08-.095.166.032.008.064.025.088.032-.04.016-.08.04-.12.055-.142.088-.078.128-.047.167-.024.016-.047.032-.071.04.015.072.039.088.047.088-.04.03-.08.062-.119.095-.024.071-.056.103-.087.15-.032.048-.048.112-.088.16-.166.183-.285.397-.5.54-.079.056-.15.127-.222.2-.143.134-.27.285-.42.412-.2.165-.406.322-.619.469-.26.182-.521.363-.785.54-.143.095-.302.166-.452.254l-.445.254c-.095.063-.182.15-.286.199-.261.112-.54.206-.809.31-.262.111-.452.206-.65.278a4.479 4.479 0 0 1-.564.15c-.063.017-.135 0-.206.009-.135.024-.27.056-.405.072-.35.047-.698.08-1.047.127-.207.024-.405.063-.611.087-.143.008-.294-.008-.437-.008-.103 0-.214.024-.317.009-.166-.025-.333-.064-.5-.096-.04-.008-.095-.024-.127-.008-.063.032-.119-.015-.183 0-.039.009-.079-.024-.118-.024-.032-.007-.072.009-.112 0-.087-.023-.166-.055-.262-.047-.095.008-.19-.04-.293-.063l-.42-.096a.718.718 0 0 1-.159-.071c-.206 0-.341-.008-.468-.056-.111-.04-.214-.095-.334-.08-.03.009-.055-.007-.087-.007-.024-.032-.047-.096-.07-.096-.16.009-.255-.126-.39-.166-.07-.024-.126-.104-.198-.128-.175-.071-.317-.222-.515-.246-.064-.008-.127-.04-.199-.063.024.031.04.055.064.08-.23-.112-.445-.24-.659-.358-.031-.008-.055-.04-.079-.056l-.214-.143c-.12.024-.167-.024-.199-.04-.214-.15-.46-.246-.666-.413-.088-.071-.19-.12-.254-.207a1.254 1.254 0 0 0-.397-.31c-.118-.062-.23-.134-.34-.206-.056-.04-.112-.087-.112-.175 0-.055-.023-.111-.095-.08-.032-.047-.063-.102-.103-.118-.095-.04-.159-.112-.23-.175-.071-.063-.127-.15-.214-.183-.159-.063-.254-.198-.35-.31-.222-.261-.42-.548-.626-.825-.016-.024-.048-.04-.072-.064.032.087.072.159.111.238a.476.476 0 0 1-.182-.143c-.008.008.547.922.547.922.049.071.088.143.135.214a.245.245 0 0 1-.238-.127c-.071-.126-.15-.206-.31-.19a1.383 1.383 0 0 1-.038-.175c-.033 0-.056 0-.112-.008.112.175.207.326.31.5-.04-.023-.064-.04-.08-.047.142.15.246.342.428.437.04.183.246.27.294.445l-.112-.024c-.063-.08-.135-.159-.206-.246.016.055.04.103.071.143.096.119.183.238.294.341.04.04.095.057.095.128.064.032.088.04.111.04.016.048-.007.12.088.103.063.12.126.12.214.08.103.103.159.111.23.048 0 .04.008.079.008.11.032-.015.024-.039.024-.079.04.032.063.048.079.064.08.111.15.214.262.302.15.127.285.262.428.381.278.23.588.422.897.596.38.215.746.445 1.135.651.468.247.967.414 1.483.533.19.04.373.08.564.127.166.048.333.12.5.159.253.056.515.103.769.15.055.009.111.017.175.025.07.016.158-.016.174.008.04.063.071.031.119.023.055-.015.119-.015.182-.015.222.007.436.055.659.04.048 0 .119-.04.159.039.071-.032.11-.032.142-.04.009.071 0 .071-.015.08-.016.007-.04.015-.071.04.285.055.555.062.793 0 .413.03.77-.017 1.11-.136.033.04.056.095.104.016.016-.024.055-.032.087-.04.072-.016.159-.048.222-.024.072.024.096-.04.151-.04.096 0 .183-.008.27-.024.048-.007.095-.031.15-.047a.387.387 0 0 0-.174-.04c.096-.048.183-.088.27-.127-.016.024-.032.055-.063.055h.11c-.024 0-.055.072-.095.12l.801-.2c-.087-.166.095-.11.159-.206a2.46 2.46 0 0 1-.238.063c.27-.134.547-.253.817-.372-.04.047-.088.071-.158.111.047.008.079.008.103.015.126.04.095-.079.134-.15.151 0 .215-.024.286-.048.08-.024.159-.048.238-.08.127-.055.246-.126.373-.19.024-.008.063 0 .095 0 .088-.056.119-.103.143-.095.111.016.19-.024.222-.127.055-.04.095-.072.134-.096.175-.095.341-.19.516-.286.063 0 .095 0 .11-.008.105-.048.2-.103.295-.159a.68.68 0 0 1-.08-.039c.08-.016.103-.024.151-.04.19-.223.453-.374.65-.549.088-.008.088-.031.088-.047.031-.04.063-.088.103-.12.174-.158.364-.293.523-.46.23-.23.45-.468.659-.716.19-.222.38-.445.54-.691.222-.342.412-.691.61-1.05.143-.253.27-.507.413-.761.015-.024.048-.056.071-.056.215-.024.43-.04.635-.063.048-.008.104-.04.151-.064-.024-.04-.04-.087-.063-.127-.032-.048-.08-.087-.112-.136-.031-.039-.055-.087-.079-.134-.024-.04-.047-.072-.071-.112a2.925 2.925 0 0 1-.136-.27c-.008-.024-.024-.063-.015-.087.142-.31.198-.643.333-.953.134-.318.175-.676.238-1.017.055-.326.087-.652.126-.977.025-.23.056-.453.064-.683.048-.366.032-.708.024-1.05-.008-.301-.024-.611-.04-.913l-.001-.001zM7.97 24.252c-.055-.063-.103-.135-.158-.198l.024-.024c.086.095.174.19.261.294-.048-.024-.103-.04-.127-.072zm.127.072c.024-.008.048-.008.072-.016.024.04.04.087.063.135-.11-.008-.166-.056-.135-.12zm8.252 3.281v-.024l.444-.047v.023c-.15.024-.293.039-.444.047v.001zm1.999-.207c-.11.025-.23.04-.34.057-.04.007-.088.047-.104-.025-.016.009-.032.009-.047.017.039.119.134.023.214.07-.175.025-.341.04-.508.064v-.015c.048-.008.103-.016.15-.025v-.023a2.335 2.335 0 0 0-.238-.016c-.023 0-.055.032-.079.04-.031.008-.063.016-.103.016-.134.008-.27.008-.396.015-.009 0-.025-.007-.032-.007v-.025c.531-.07 1.055-.142 1.586-.214.009.016.009.032.016.048-.047 0-.079.016-.119.024zm.12-.079c.182-.024.35-.04.523-.063-.364.103-.483.119-.523.063zm-6.911-16.04c.253-.35.515-.7.77-1.058.078-.104.142-.215.221-.318.024-.032.056-.048.095-.08l-.008-.015c.032-.04.064-.072.08-.103.04-.064.064-.135.096-.207a.116.116 0 0 1 .031-.03c.112.055.112-.064.151-.104.072-.08.143-.167.206-.247.048-.063.096-.119.135-.19.008-.024-.016-.064-.024-.096h-.023c.024-.015.047-.039.071-.055.008 0 .008 0 .016-.008.048-.072.095-.143.143-.207.095-.127.198-.254.309-.365-.016.04-.032.08-.048.111.008 0 .008.008.016.008.095-.127.199-.246.294-.374-.008-.007-.016-.015-.024-.015-.04.04-.071.08-.111.12-.008-.009-.016-.017-.024-.017.08-.103.159-.206.238-.325.016.024.032.055.063.119.032-.08.064-.135.088-.19-.024.023-.056.047-.08.07l-.024-.023.143-.214c.151-.215.302-.437.453-.652.055-.08.126-.143.174-.223.151-.301.39-.54.572-.818.04-.055.095-.103.142-.15.04-.049.072-.033.104.007.214.27.428.548.642.818.159.2.318.39.468.596.183.255.357.509.54.763.206.294.412.588.61.89.302.445.588.89.89 1.334.222.326.444.644.658.97h-.405c-.373-.008-.754-.04-1.127-.024-.508.024-1.023.08-1.53.12-.644.055-1.294.063-1.936.063-.231 0-.461.032-.69.048-.279.016-.549.032-.826.04-.326.016-.643.024-.968.032-.183.008-.373 0-.572 0v-.002zm9.1 3.653v.072c-.008 0-.016.008-.032.008-.031-.111-.063-.23-.103-.342a2.667 2.667 0 0 0-.31-.667c-.159-.223-.301-.453-.46-.683-.04-.056-.095-.104-.143-.151-.167-.183-.334-.374-.548-.509a6.478 6.478 0 0 0-.992-.509 2.223 2.223 0 0 1-.277-.143h.19l1.357-.024c.293-.007.58-.007.873-.023.07 0 .11.024.15.087.071.12.143.238.222.358.008.015.024.039.024.063 0 .175 0 .358.008.533.008.182.024.357.032.54 0 .183-.016.373-.008.564.008.27.016.548.016.826zm-8.537-2.66c.373-.016.73-.04 1.095-.056.285-.016.579-.024.864-.04.119-.007.23-.015.349 0-.127.064-.254.128-.365.207-.143.095-.277.222-.42.326a2.38 2.38 0 0 0-.39.365c-.15.183-.317.342-.476.516-.111.128-.238.247-.333.382-.135.175-.254.365-.38.564.039-.755.087-1.502.055-2.265zm5.18 7.643c-.253.063-.515.135-.777.167-.222.032-.452.024-.682.024-.207 0-.405-.008-.612-.024-.23-.024-.46-.048-.682-.151-.19-.087-.389-.167-.579-.262-.191-.096-.381-.207-.524-.381-.103-.128-.246-.231-.373-.342.024.095.08.175.167.23-.04.048-.096.024-.175-.103-.024.016-.048.024-.064.032.025-.056.048-.112.072-.16-.032-.063-.072-.134-.103-.198a6.685 6.685 0 0 1-.183-.318c-.016-.024-.016-.047-.031-.071a1.777 1.777 0 0 1-.112-.144c-.063-.094-.119-.198-.198-.293 0 .024.008.047.008.08-.008 0-.016.007-.016.007l-.167-.405c-.008 0-.008 0-.016.008l.143.525c-.008 0-.016.007-.024.007-.023-.031-.047-.063-.063-.102-.016-.064-.064-.064-.103-.04-.024.015-.04.07-.032.095.056.135.12.27.183.405a.945.945 0 0 0 .055.135c.009.016.032.032.032.055.032.064.056.127.096.183.071.095.15.19.222.286.07.095.134.199.198.294.007.016.031.016.039.024.04.12.175.206.27.159.024.182.222.246.301.42a3.605 3.605 0 0 1-.23-.103c-.008.008-.008.016-.016.032.095.048.19.095.278.15.08.05.159.096.23.152a.724.724 0 0 0 .34.167.085.085 0 0 0-.014-.033c.222.104.452.215.626.302l-2.618.048c0-.15-.008-.294-.008-.445 0-.063.016-.119.007-.183-.024-.364-.024-.73-.071-1.088a7.783 7.783 0 0 1-.04-1.137c.008-.206-.007-.42-.015-.627 0-.278 0-.549.008-.826 0-.04.016-.071.032-.111h.024c.008.016 0 .04.015.048.024.024.064.063.08.055.047-.032.119-.063.135-.111a.779.779 0 0 0 .055-.294c0-.071.032-.119.064-.167.016-.024.024-.047.04-.079-.032-.024-.064-.04-.103-.071.032-.088.024-.191.143-.239.015-.008.015-.048.024-.071l.023-.2c.016.025.025.032.04.048a.127.127 0 0 1 .016-.024c0-.032-.008-.095 0-.095.095-.016.055-.12.103-.167.008-.008-.008-.032-.008-.048s0-.04.008-.04c.11-.023.095-.142.166-.198.024-.016.032-.04.063-.08.064.111-.047.167-.055.246.134-.079.174-.27.095-.325a.47.47 0 0 0 .087-.088c.088-.095.182-.182.262-.278.056-.07.088-.158.143-.23.032-.04.095-.071.143-.095.143-.08.277-.167.365-.302.016-.016.04-.031.063-.047.024-.016.072-.016.08-.04.008-.016-.016-.056-.032-.08.031-.015.063-.047.127-.079-.025.048-.032.08-.048.112l.04.039c.07-.056.182-.12.253-.167 0-.007-.04-.039-.04-.039-.047.024-.118.063-.19.095.016-.024.016-.04.025-.047.11-.072.221-.143.34-.2.278-.126.556-.253.833-.372.048-.024.112-.008.167-.008.024 0 .04 0 .063-.008a6.9 6.9 0 0 1 .381-.111.664.664 0 0 1 .175-.024c.237.008.476.008.713.024.104.007.199.031.294.063.122.042.242.093.357.15.135.073.262.152.39.24.23.15.443.317.673.452.222.135.397.318.54.525.175.246.373.468.452.77l.119.525c.024.095.08.19.056.301-.04.2-.072.406-.104.605-.015.08-.031.16-.023.238.015.247-.08.461-.175.684-.032.071-.08.143-.12.222a.24.24 0 0 0 .064.032l.072-.143c.008 0 .008 0 .016.008-.04.111-.072.23-.112.342-.095.246-.19.5-.309.738-.063.136-.175.247-.254.374-.079.111-.142.23-.222.334-.071.087-.142.175-.238.238a6.086 6.086 0 0 1-.666.445c-.143.087-.31.135-.468.175l.002-.001zm-4.228-.422l-.008.008c-.017-.008-.04-.016-.056-.032l-.19-.286c-.016-.024-.025-.047-.016-.08.087.136.174.263.27.39zm4.935 1.088c.357-.15.65-.365.92-.611.04-.04.08-.08.127-.112.334-.206.579-.492.802-.81.253-.365.42-.778.627-1.168.014-.03.03-.059.047-.087-.016.906.087 1.795.206 2.693l-2.729.096zm8.045-.238c-.008.016-.024.032-.031.048-.009-.016-.009-.04-.016-.072-.048.128-.151.064-.223.064-.428.008-.864.008-1.293.008-.412 0-.833 0-1.245.007-.135 0-.278.032-.413.04-.325.016-.65.024-.976.032-.024 0-.048-.04-.087-.071a.546.546 0 0 1-.048.071c-.008-.016-.024-.031-.04-.055a.463.463 0 0 1-.024.063h-.023c-.016-.11-.048-.214-.048-.325 0-.239.024-.477.032-.716.008-.11 0-.214 0-.317l.087.063a.671.671 0 0 1 .048-.078s-.016-.009-.032-.025c.015-.008.031-.024.031-.032.008-.024.024-.047.024-.063 0-.056-.016-.103-.024-.15.008 0 .016 0 .024-.01l.048.24h.024c-.032-.056.071-.104-.016-.167-.008-.008.008-.056.008-.08-.024-.047-.04-.095-.064-.158.008-.008.032-.016.056-.025-.032-.015-.056-.031-.08-.039.08-.072.08-.111.008-.19.017-.008.032-.008.032-.016 0-.071 0-.143-.015-.214-.016-.08.024-.175-.096-.223a.238.238 0 0 0 .032.063s-.024.009-.047.025c-.104-.096-.04-.224-.064-.366.056.016.095.032.135.048-.016-.056-.056-.12-.08-.191h-.032v-.525c0 .008.056.008.088.017 0-.009.007-.016.007-.025-.024-.031-.055-.063-.087-.103l.016-.016c-.063-.079-.032-.19-.032-.214v-.556c.08.08-.039.183.08.23v-.079h-.008c-.008-.119-.008-.238-.016-.357h-.016c-.008.016-.008.024-.016.04h-.016l.048-1.9c.08.104.166.2.222.302.183.334.42.62.643.922.19.263.365.548.54.819.214.325.42.65.634.976.16.247.323.491.492.732.15.214.31.42.468.628.135.182.277.365.412.548.16.222.318.444.477.659.079.111.166.222.253.334.048.063.12.111.167.15-.008 0-.016 0-.031-.008.024.032.039.056.055.072.087.048.095.095.048.167v-.002zm.405-1.986v-.055c0 .015.008.039 0 .055zm.27-3.503c-.008 0-.056-.048-.064-.056-.008.024 0 .048-.016.08-.008-.024-.063-.016-.063-.04-.008.111.047.223.04.334.023-.016.118-.024.142-.048a.062.062 0 0 0 .032.016c-.159.12-.119.238-.047.374.015.031.063.095.015.158-.015.016.008.064.016.104h.023v.015l-.071.024c-.016-.024-.11-.071-.11-.112v.406c.079.024.079.135.11.191a.232.232 0 0 0 .032-.063l.009.007c-.009.048-.016.095-.032.143-.016.071-.032.135-.04.206 0 .008.016.024.016.032-.087.199-.04.42-.071.627-.024.15 0 .31-.016.47a3.987 3.987 0 0 1-.08.412c-.008.024-.024.032-.063.048a.64.64 0 0 0-.008-.246c-.009 0-.112-.056-.12-.056 0 .112.063.262.087.39-.024-.009-.119-.064-.126-.064-.016.095-.016.222-.024.325-.008.08-.08.151-.088.239 0 .048.056.08.048.159h.063c0-.159.072-.302.072-.469h.023c.009.016.032.032.025.04-.016.087-.049.183-.04.27 0 .048.039.095.024.15a.774.774 0 0 0-.032.168c-.009-.04-.016-.056-.016-.08l-.088-.007c-.008.047.056.095.048.135-.008.007-.016.007-.032.016l-.261-.382a80.133 80.133 0 0 1-.62-.914 1.903 1.903 0 0 1-.143-.238 11.183 11.183 0 0 0-.817-1.216c-.23-.293-.413-.612-.627-.92-.198-.295-.396-.581-.595-.875-.071-.095-.158-.183-.222-.286-.206-.326-.389-.66-.594-.985-.175-.27-.365-.533-.548-.795-.063-.087-.127-.183-.19-.278a.112.112 0 0 1-.016-.055c-.016-.175-.032-.35-.04-.516 0-.16.016-.318.016-.485v-.143c0-.04.007-.072.007-.112.008-.007.016-.023.024-.031-.23 0-.468-.009-.698 0-.151.007-.23-.056-.333-.167-.302-.342-.524-.731-.786-1.097a48.97 48.97 0 0 0-.754-1.033c-.206-.278-.413-.548-.619-.826-.23-.318-.452-.636-.69-.953-.286-.381-.58-.763-.873-1.144-.136-.175-.286-.342-.437-.525.103.016.199.032.294.04l.381.024c.286.024.571.04.856.079.238.032.477.08.723.12.524.087 1.04.23 1.54.397.293.095.578.222.864.341.643.262 1.254.58 1.857.914.19.103.301.27.444.42.206.216.413.43.61.652.23.262.445.533.667.803.198.238.404.476.603.715.063.071.112.159.166.238.127.19.27.374.381.58.08.151.127.326.182.493l.239.73c.055.184.102.375.142.565.032.127.024.262.063.389.048.167 0 .35.048.517.008.016.015.04.024.055.032.032.055.064.008.111-.008.008-.008.04 0 .064.016-.016.024-.032.04-.056 0 .016.007.024.007.032 0 .031-.008.063 0 .095 0 .016.016.04.024.055.016-.016.032-.024.063-.048.072.27.08.54.08.819 0 .262.047.524-.063.778.023-.087-.032-.167-.009-.246l.004.002z"/><path d="M21.658 17.944c.008 0 .016.008.016.008l-.008-.01c0-.007 0-.007-.008 0v.002zm1.253 7.85a.751.751 0 0 1-.286.143c-.008-.008-.008-.016-.016-.025.088-.055.183-.11.27-.166.008.015.024.031.032.047zM8.035 15.028c.087-.111.175-.222.27-.334.007.008.07.025.078.032-.087.112-.206.262-.293.382-.017-.016-.04-.072-.056-.08zM5.78 18.922l-.19-.414a.274.274 0 0 1 .071-.031c.088.126.127.277.19.413 0 0-.063.031-.07.031H5.78zm2.024-3.814c-.048.071-.096.15-.143.223-.008-.009-.096.031-.103.023.047-.071.166-.199.214-.27.008.008.016.016.032.024zM22.063 26.12c.007 0 .007-.008.015-.008.056.008.12.016.183.016-.104.071-.168.063-.2-.008h.002zM7.82 15.44a.334.334 0 0 1 .04-.071c.016 0 .039-.008.039-.008.032-.056.032-.096.064-.143-.008-.008-.016-.008-.024-.016-.048.032-.095.072-.143.104.016.016.016.024.016.04-.063-.009-.087.024-.119.11-.008.025-.048.033-.087.064-.008.016-.016.056-.032.095l.008.009c-.016.016-.04.024-.04.024-.047.047-.103.087-.15.135-.008.024-.016.047-.016.071.056-.055.15-.159.222-.222l.008.008c.032-.048.056-.095.088-.143.007.008.007.016.015.024-.024.063-.047.135-.071.198-.017.008-.04.024-.04.016-.032.024-.056.056-.088.08l-.143.095c-.079.071-.158.135-.246.206-.055.088-.11.167-.174.27.095-.024.119.016.111.096.111.016.12-.071.15-.135.009-.016.017-.048.033-.056.071-.063.15-.119.23-.183.016-.016.016-.048.016-.071 0-.008-.04-.008-.064-.016.071-.08.175-.214.246-.302.04-.024.079-.056.079-.08-.008-.087.048-.11.112-.143-.032-.024-.04-.047-.04-.055z"/><path d="M7.979 15.354c-.032.055-.063.103-.095.159l-.048-.024c-.031.182-.143.34-.254.373.032.016.064.032.088.024.023-.008.04-.049.055-.072l.214-.31.072-.12-.032-.031zm-2.642 3.488c.04 0 .08.007.127.007 0-.031.04-.024.04-.055h.024c0 .04.008.071.008.112h-.167c-.008-.009-.04-.057-.032-.064zm-.063-.366c-.024-.024-.063-.047-.063-.071-.009-.032.015-.071.039-.11.016.055.024.102.04.158-.009.008-.016.016-.016.024zm.198-.508l.096.247a.24.24 0 0 0-.064.031c-.031-.08-.071-.167-.103-.246a.197.197 0 0 1 .072-.032zm17.662 7.596c.04-.016.087-.025.15-.04-.07.056-.126.095-.174.143-.008-.008-.016-.016-.024-.016.016-.032.032-.055.048-.087zM13.382 8.776c.047-.032.087-.056.135-.088l.015.016c-.048.063-.087.127-.143.207-.008-.056-.008-.088-.016-.127-.008 0 0 0 .008-.008zm2.324 4.02l.23-.104c-.007.048-.007.08-.007.112a.28.28 0 0 0-.08-.017c-.048.009-.135.072-.175.08-.007 0 .032-.063.032-.071zm5.952 6.737c.016.08.166.12.016.198.024.017.047.024.07.04a.06.06 0 0 1-.015.033c-.016.007-.048.023-.063.015-.008 0-.024-.032-.024-.048 0-.071.008-.142.016-.238z"/></g></svg>