<svg xmlns="http://www.w3.org/2000/svg" width="32" height="32"><g fill="none" transform="translate(7 4)"><rect width="2.222" height="1.137" x="16.667" y="4.611" fill="#80CBC4" rx=".568"/><rect width="6.667" height="1.137" y="22.8" fill="#D14748" rx=".568"/><rect width="4.444" height="1.137" x="13.333" y="13.705" fill="#AA759F" rx=".568"/><rect width="5.556" height="1.137" x="6.667" y="13.705" fill="#D14748" rx=".568"/><rect width="5.556" height="1.137" y="13.705" fill="#80CBC4" rx=".568"/><rect width="6.667" height="1.137" y="18.253" fill="#AA759F" rx=".568"/><rect width="6.667" height="1.137" y="9.158" fill="#AA759F" rx=".568"/><rect width="12.222" height="1.137" x="5.556" y="2.337" fill="#F4BF75" rx=".568"/><rect width="4.444" height="1.137" y="2.337" fill="#D14748" rx=".568"/><rect width="2.222" height="1.137" x="4.444" y="20.526" fill="#F4BF75" rx=".568"/><rect width="2.222" height="1.137" x="4.444" y="6.884" fill="#80CBC4" rx=".568"/><rect width="3.333" height="1.137" y="20.526" fill="#80CBC4" rx=".568"/><rect width="3.333" height="1.137" y="6.884" fill="#F4BF75" rx=".568"/><rect width="10" height="1.137" x="8.889" y="11.432" fill="#80CBC4" rx=".568"/><rect width="4.444" height="1.137" x="3.333" y="11.432" fill="#F4BF75" rx=".568"/><rect width="2.222" height="1.137" y="11.432" fill="#D14748" rx=".568"/><rect width="5.556" height="1.137" x="10" y="4.611" fill="#AA759F" rx=".568"/><rect width="8.889" height="1.137" y="4.611" fill="#80CBC4" rx=".568"/><rect width="11.111" height="1.137" x="3.333" y="15.979" fill="#F4BF75" rx=".568"/><rect width="2.222" height="1.137" y="15.979" fill="#AA759F" rx=".568"/><rect width="6.667" height="1.137" x="13.333" y="6.884" fill="#D14748" rx=".568"/><rect width="6.667" height="1.137" x="13.333" y="9.158" fill="#F4BF75" rx=".568"/><rect width="14.444" height="1.137" y=".063" fill="#80CBC4" rx=".568"/></g></svg>