<svg xmlns="http://www.w3.org/2000/svg" width="32" height="32"><path fill="#8251A8" d="M24.707 4.045H7.294c-1.202 0-2.177.964-2.177 2.152v19.606c0 1.189.975 2.152 2.177 2.152h17.413c1.202 0 2.177-.963 2.177-2.152V6.197c0-1.188-.975-2.152-2.177-2.152zM10.559 24.37v-4.782l2.72 2.39-2.72 2.392zm8.464 0v-7.14C19.012 16.67 18.74 16 17.512 16c-2.46 0-5.217 1.223-5.245 1.235L10.56 18V7.632h2.418v6.788c1.208-.389 2.896-.81 4.535-.81 1.495 0 2.39.58 2.877 1.068 1.04 1.04 1.054 2.365 1.053 2.518v7.173h-2.419zm.605-12.852H17.21c.95-1.233 1.547-2.53 1.813-3.885h2.419c-.163 1.358-.72 2.66-1.814 3.885z"/></svg>