<svg xmlns="http://www.w3.org/2000/svg" width="32" height="32"><g fill="none" fill-rule="evenodd"><path fill="#343944" d="M16 2L3.987 9.02v14L16 30l12-7.1.013-13.8L16 2zm10.954 20.3L16 28.78 5.038 22.408V9.628L16 3.22 26.966 9.7l-.012 12.6z"/><path fill="#6A9FB5" d="M25.569 13.654l-5.623 3.31-.003 7.926 5.647-3.325z"/><path fill="#7ACCEE" d="M23.282 12.303l2.287 1.351-5.623 3.31-.003 7.926-2.616-1.52.021-7.495z"/><path fill="#9DBD58" d="M22.512 10.35l.002 1.466-6.103 3.682.007 8.099-1.42.834-.004-9.575z"/><path fill="#AEE33E" d="M20.008 8.871l2.504 1.479-7.518 4.506.004 9.575-2.804-1.63-.005-9.388z"/><path fill="#AA759F" d="M19.226 6.606v1.768l-8.016 4.7v10.098l-1.402.816.027-11.711z"/><path fill="#FF6E9F" d="M16.16 4.784l-9.63 5.61-.001 11.677 3.298 1.917.008-11.711 9.4-5.671z"/></g></svg>