<svg xmlns="http://www.w3.org/2000/svg" width="32" height="32"><g fill="none" fill-rule="evenodd"><path fill="#1F438A" stroke="#7ACCEE" stroke-width="2" d="M4 4v24h24V4H4z"/><path fill="#7ACCEE" d="M15.277 11.296h.002c.314.28.565.641.751 1.082.187.44.28.92.28 1.44a4.1 4.1 0 0 1-.236 1.442 3.263 3.263 0 0 1-.65 1.082c-.393.4-.83.71-1.313.93-.482.22-1.097.35-1.845.39l-.546.015-.251.016v3.422H9.286V10.456l.987-.03c.66-.021 1.324-.031 1.993-.031.69 0 1.28.08 1.772.24.49.16.904.38 1.239.661zm-3.07 4.504v-.002c.591-.02 1.058-.195 1.402-.524.344-.33.516-.775.516-1.336 0-.5-.147-.926-.442-1.276-.296-.35-.73-.535-1.3-.555l-.62-.016-.294.016v3.662l.325.031h.413zm8.41.329c-.491-.181-.826-.33-1.002-.45a.558.558 0 0 1-.266-.48.526.526 0 0 1 .236-.465c.158-.11.384-.164.678-.166.335 0 .714.08 1.137.24.423.16.723.29.9.39v-1.802a6.857 6.857 0 0 0-.885-.361 3.75 3.75 0 0 0-1.21-.18c-.965 0-1.733.245-2.303.735-.57.49-.856 1.117-.856 1.878 0 .46.168.86.503 1.2.335.341.896.651 1.683.93.452.16.756.34.914.54.157.2.236.4.236.602 0 .22-.079.39-.236.511-.158.12-.423.18-.797.18-.354 0-.753-.08-1.196-.24-.443-.16-.772-.31-.988-.45v1.772c.295.16.64.306 1.033.437.395.13.778.205 1.15.224 1.123.021 1.964-.224 2.524-.735.56-.512.84-1.137.84-1.878-.02-.58-.192-1.066-.515-1.456-.324-.391-.85-.716-1.58-.976z"/></g></svg>