<svg xmlns="http://www.w3.org/2000/svg" width="32" height="32"><g fill="none" fill-rule="evenodd"><path fill="#F4BF75" d="M16.603 19.84c.333.042.764.236 1.176.362.43.155.844.215.681.238-.566.022-1.187-.194-1.95-.183-.767-.01-1.387.205-1.948.183-.164-.028.25-.089.68-.238.396-.12.804-.304 1.133-.356v-3.142h.228v3.136zm-.092 2.687c-5.178 0-9.375-3.274-9.375-7.313 0-4.038 4.197-7.312 9.375-7.312s9.375 3.274 9.375 7.312c0 4.039-4.197 7.313-9.375 7.313zm4.23-6.225c-.833-1.038-2.412-2.058-4.246-2.058H16.473c-1.84 0-3.42 1.02-4.247 2.058-.86 1.059-.55 1.522-.55 2.532 0 3.675 1.269 2.593 2.123 3.035.872.43 1.754.264 2.68.264h.016c.925 0 1.807.171 2.678-.259.85-.441 2.124.64 2.124-3.034-.006-1.016.305-1.48-.556-2.538zM10.5 15.965c.839 0 1.52-.69 1.52-1.54 0-.85-.681-1.539-1.52-1.539s-1.52.69-1.52 1.54c0 .85.681 1.54 1.52 1.54zm11.973 0c.839 0 1.519-.69 1.519-1.54 0-.85-.68-1.539-1.52-1.539-.838 0-1.518.69-1.518 1.54 0 .85.68 1.54 1.519 1.54zm-5.87 3.875a1.016 1.016 0 0 0-.092-.007 1.11 1.11 0 0 0-.136.013v.158h.228v-.164zm-.163 5.377a1.13 1.13 0 0 1-1.121-1.136 1.13 1.13 0 0 1 1.121-1.137c.62 0 1.122.51 1.122 1.137a1.13 1.13 0 0 1-1.122 1.136zm0-.11c.556 0 1.007-.457 1.007-1.02 0-.564-.45-1.021-1.007-1.021-.556 0-1.007.457-1.007 1.02 0 .564.45 1.021 1.007 1.021zm.294-1.346c.06.055.093.132.093.243 0 .11-.033.187-.093.242a.464.464 0 0 1-.288.078h-.115v.248h-.196v-.888h.31c.131 0 .23.027.29.077zm-.141.348a.183.183 0 0 0 .032-.116c0-.05-.016-.089-.043-.11-.028-.023-.077-.034-.142-.034h-.109v.298h.13c.066.006.11-.01.132-.038z"/><path fill="#AB7558" d="M21.395 21.03a14.194 14.194 0 0 1-9.937 0c-.032-.011-.049-.028-.103-.05v.635c0 .281.228.607.495.706a13.066 13.066 0 0 0 9.153 0c.272-.1.479-.425.479-.706v-.635c0 .017-.055.033-.087.05zM13.282 8.754s-6.06.85-5.537 6.946c.027.31-1.209-1.318-2.167-1.815-.958-.496-.926-2.102-.926-2.102s-.016-2.797 3.855-3.625c3.866-.822 4.775.596 4.775.596zm6.387 0s6.06.85 5.537 6.946c-.027.31 1.209-1.318 2.167-1.815.958-.496.926-2.102.926-2.102s.016-2.797-3.855-3.625c-3.866-.822-4.775.596-4.775.596z"/><g transform="translate(10.25 14.6)"><ellipse cx="6.19" cy="9.363" fill="#F4BF75" rx="1" ry="1"/><ellipse cx=".637" cy=".403" fill="#AB7558" rx="1" ry="1"/><ellipse cx="12.615" cy=".403" fill="#AB7558" rx="1" ry="1"/><path fill="#AB7558" d="M7.655 2.312c.18.402-.441 1.059-1.427 1.059-.985 0-1.606-.657-1.426-1.06.174-.413.8-.545 1.426-.551.626.006 1.252.138 1.427.552z"/></g></g></svg>