<svg xmlns="http://www.w3.org/2000/svg" width="32" height="32"><path fill="#D14748" fill-rule="evenodd" d="M28.816 8.479c.09 0 .09.088.184.18-.184.18-.365.447-.549.716h-.09c-.73-.716-1.55-1.074-2.555-1.163-1.095-.18-2.19 0-3.195.539-2.645 1.163-4.38 3.134-5.293 5.82a14.62 14.62 0 0 0-.55 2.865c0 .716 0 1.521.091 2.237.09 1.164.275 2.33.456 3.493.455 1.613.914 3.224 1.55 4.745V28H6.73c0-.27 0-.447-.09-.628 0-1.343.09-2.595.365-3.85.274-1.88.73-3.671 1.369-5.373.549-1.613 1.279-3.046 2.009-4.567.549-.897 1.004-1.791 1.55-2.688 1.005-1.344 2.1-2.596 3.56-3.582 1.46-.985 3.01-1.613 4.744-1.79 1.735-.27 3.376 0 4.93.627 1.369.628 2.554 1.344 3.649 2.33zM4.272 22c.82 0 1.643.089 2.464.18-.184.806-.275 1.522-.456 2.33-.73-.089-1.46-.18-2.28-.27.09-.804.184-1.52.274-2.237L4.272 22zm4.47-6.716a14.154 14.154 0 0 0-.64 1.79c-.73-.269-1.46-.446-2.19-.716.275-.627.456-1.255.73-1.88.64.27 1.37.54 2.1.806zm11.314 8.954c.275.539.55 1.074.73 1.613.09 0 .09 0 .09.089h-.183c-.73-.089-1.37-.089-2.1-.089-.09-.089-.183-.089-.183-.18-.184-.448-.275-.986-.365-1.433-.09 0-.09 0-.09-.089h1.915c.09 0 .09.089.183.089h.003zM12.301 9.553c-.455.539-.82.986-1.279 1.521L9.378 10c.456-.539.82-.986 1.28-1.433.548.359 1.094.717 1.643.986zm5.017 10.567c.09-.447.09-.985.09-1.521.09 0 .09.089.09.089.55.269 1.096.538 1.551.805.09 0 .09 0 .09.089.091.447.091.897.091 1.255v.18s0-.089-.09-.089c-.55-.18-1.095-.447-1.735-.716 0 0-.09 0-.09-.089l.003-.003zm-.456-14.237c-.455.358-1.004.627-1.46.896l-1.095-1.343h.09c.366-.27.821-.447 1.28-.717h.184c.365.447.639.805 1.004 1.164h-.003zm.64 9.848c.183-.447.365-.805.548-1.164l1.095.805c.09 0 .184.09.184.09l.09.088c-.183.447-.274.986-.364 1.433-.549-.447-1.095-.897-1.55-1.255l-.003.003zM21.79 5.255h-1.916A28.01 28.01 0 0 1 19.601 4h.64c.455 0 .82.089 1.185.089.184 0 .184 0 .184.089.09.358.09.627.184.985v.09l-.003.002zm-1.005 6.986c-.184.269-.365.538-.549.897-.365-.54-.82-.986-1.278-1.433.274-.358.639-.628.913-.897.091 0 .091.089.091.089.274.358.549.805.82 1.163v.18h.003zm2.28-3.135c.091.27.091.447.185.716h-.09c-.275.27-.55.447-.821.717a14.526 14.526 0 0 1-.55-1.164c.456-.088.821-.18 1.28-.269h-.003zm2.92-2.865v-.805c.55.269 1.005.627 1.551.985-.09.18-.184.27-.274.447-.456-.27-.914-.447-1.28-.627h.004zm.915 2.865s.09 0 .09.089v.447c-.455-.089-.82-.089-1.279-.089v-.716c.09 0 .184 0 .275.089.274 0 .64.088.914.18z"/></svg>