<svg xmlns="http://www.w3.org/2000/svg" width="32" height="32"><defs><linearGradient id="a" x1="26.825%" x2="67.576%" y1="48.223%" y2="55.339%"><stop offset="0%" stop-color="#FF6533"/><stop offset="15.7%" stop-color="#FF5633"/><stop offset="43.4%" stop-color="#FF4333"/><stop offset="71.4%" stop-color="#FF3733"/><stop offset="100%" stop-color="#F33"/></linearGradient><linearGradient id="b" x1="20.45%" x2="93.485%" y1="38.133%" y2="80.432%"><stop offset="0%" stop-color="#AC4142"/><stop offset="100%" stop-color="#D14748"/></linearGradient><linearGradient id="c" x1="32.299%" x2="45.564%" y1="39.503%" y2="48.92%"><stop offset="0%" stop-color="#FF6533"/><stop offset="15.7%" stop-color="#FF5633"/><stop offset="43.4%" stop-color="#FF4333"/><stop offset="71.4%" stop-color="#FF3733"/><stop offset="100%" stop-color="#F33"/></linearGradient><linearGradient id="d" x1="40.204%" x2="53.979%" y1="47.22%" y2="54.541%"><stop offset="0%" stop-color="#F4BF75"/><stop offset="100%" stop-color="#FB8840"/></linearGradient><linearGradient id="e" x1="55.227%" x2="40.93%" y1="5.891%" y2="128.024%"><stop offset="0%" stop-color="#FFF"/><stop offset="100%" stop-color="#FFF" stop-opacity="0"/></linearGradient></defs><g fill="none"><path fill="url(#a)" d="M16.49 5.376a7.604 7.604 0 0 0-1.06-3.88C13.639-.282 9.739-.694 8.77 1.485c-.995 2.235 1.67 4.721 2.836 4.524 1.483-.252-.262-3.528-.262-3.528 2.269 4.116 1.745 2.856-2.356 6.635-4.1 3.78-8.289 11.755-8.9 12.091a.504.504 0 0 1-.083.042H16.09c.283 0 .466-.29.34-.533l-4.206-8.013a.36.36 0 0 1 .149-.483c2.46-1.36 4.118-3.914 4.118-6.845z" transform="translate(8.572 6.547)"/><path fill="url(#b)" d="M16.49 5.376a7.604 7.604 0 0 0-1.06-3.88C13.639-.282 9.739-.694 8.77 1.485c-.995 2.235 1.67 4.721 2.836 4.524 1.483-.252-.262-3.528-.262-3.528 2.269 4.116 1.745 2.856-2.356 6.635-4.1 3.78-8.289 11.755-8.9 12.091a.504.504 0 0 1-.083.042H16.09c.283 0 .466-.29.34-.533l-4.206-8.013a.36.36 0 0 1 .149-.483c2.46-1.36 4.118-3.914 4.118-6.845z" transform="translate(8.572 6.547)"/><path fill="url(#c)" d="M2.659 23.753c.61-.336 4.798-8.315 8.899-12.094 4.1-3.78 4.624-2.52 2.356-6.635 0 0-8.682 11.716-11.822 17.511" transform="translate(6 4)"/><path fill="#D14748" d="M9.88 17.256c5.864-10.377 6.632-11.423 9.686-11.423 1.605 0 3.224.697 4.27 1.936-1.426-2.213-3.952-3.696-6.844-3.738h-9.96c-.21 0-.38.164-.38.366v19.326c.593-1.474 1.601-3.582 3.228-6.467z"/><path fill="url(#d)" d="M11.558 11.659c-4.1 3.78-8.289 11.758-8.9 12.094-.61.336-1.635.378-2.18-.21-.58-.626-1.484-1.638 3.402-10.288C9.743 2.878 10.51 1.832 13.565 1.832c1.605 0 3.224.697 4.27 1.936.057.088.114.18.17.273-1.792-1.777-5.692-2.188-6.66-.009-.995 2.235 1.67 4.72 2.835 4.523 1.483-.252-.262-3.528-.262-3.528 2.264 4.112 1.74 2.852-2.36 6.631z" transform="translate(6 4)"/><path fill="url(#e)" d="M4.36 13.717C10.223 3.34 10.99 2.294 14.045 2.294c1.321 0 2.652.474 3.664 1.331-1.047-1.15-2.6-1.793-4.144-1.793-3.054 0-3.822 1.046-9.685 11.423-4.886 8.65-3.983 9.663-3.403 10.288.083.089.18.164.28.227-.51-.714-.738-2.373 3.603-10.053z" opacity=".3" transform="translate(6 4)"/></g></svg>