<svg xmlns="http://www.w3.org/2000/svg" xmlns:xlink="http://www.w3.org/1999/xlink" width="32" height="32"><defs><path id="a" d="M20.9 24H2.925C1.314 24 0 22.676 0 21.053V2.947C0 1.324 1.314 0 2.926 0h17.99c1.612 0 2.926 1.324 2.926 2.947v18.124C23.825 22.676 22.511 24 20.9 24z"/></defs><g fill="none" fill-rule="evenodd" transform="translate(4 4)"><path fill="#DC332D" fill-rule="nonzero" d="M20.9 24H2.925C1.314 24 0 22.676 0 21.053V2.947C0 1.324 1.314 0 2.926 0h17.99c1.612 0 2.926 1.324 2.926 2.947v18.124C23.825 22.676 22.511 24 20.9 24z"/><mask id="b" fill="#fff"><use xlink:href="#a"/></mask><use fill="#D14748" xlink:href="#a"/><path fill="#AC4142" fill-rule="nonzero" mask="url(#b)" d="M6.394 9.776l1.559 1.571-1.559 4.359 1.682 1.676-1.682 4.236L8.777 24h15.048V8.824l-6.394-6.442V3.6z"/><g fill="#FFF" fill-rule="nonzero"><path d="M6.395 9.776s11.019 1.112 11.019 2.965V8.294s0-1.853-11.02-2.965v4.447zm0 5.93s11.019 1.112 11.019 2.964v-4.447s0-1.853-11.02-2.964v4.447z" opacity=".6"/><path d="M17.431 2.382V6.83s0 1.853-11.019 2.965V5.329c-.017 0 11.02-1.094 11.02-2.947M6.394 11.26s11.019-1.112 11.019-2.965v4.447s0 1.853-11.02 2.965v-4.447zm0 10.359V17.17s11.019-1.111 11.019-2.964v4.447c.017.017.017 1.853-11.02 2.965"/></g></g></svg>