<svg xmlns="http://www.w3.org/2000/svg" width="32" height="32"><g fill="none"><path fill="#8E989E" d="M15.419 13.439l-3.98-4.146L12.68 8 8.84 4 5 8l3.84 4 1.241-1.293 3.74 3.896z"/><path fill="#78909C" d="M23.182 17.94c-.296.036-.597.06-.902.06-.293 0-.584-.018-.876-.053l-3.495 4.499 4.337 4.518a3.298 3.298 0 0 0 4.8 0c1.326-1.381 1.326-3.619 0-5l-3.864-4.024z"/><path fill="#C5C6C6" d="M24.46 10.771l-2.92-3.042 3.08-3.208A5.537 5.537 0 0 0 22.28 4c-3.181 0-5.76 2.686-5.76 6 0 .594.085 1.166.24 1.708l-10.357 8.73a4.41 4.41 0 0 0-1.401 3.106 4.433 4.433 0 0 0 1.213 3.19A4.036 4.036 0 0 0 9.148 28c1.19 0 2.324-.532 3.112-1.461l8.38-10.789c.52.161 1.07.25 1.64.25 3.181 0 5.76-2.686 5.76-6a6.19 6.19 0 0 0-.5-2.438l-3.08 3.209z"/></g></svg>