<svg xmlns="http://www.w3.org/2000/svg" width="32" height="32"><g fill="#6A9FB5" fill-rule="evenodd" stroke="#6A9FB5" stroke-width=".962"><path d="M27.157 21.989c-1.198.106-2.756-.21-3.576.876.006 1.213 1.55 1.949 2.554 2.498.949.313 1.884 1.253 2.686 1.425-.864-1.363-2.29-2.284-3.657-3.122-.21-1.644 2.36-.24 2.815-1.477-.52-1.39-2.082-1.93-3.179-2.793-1.161-.608-2.695-1.01-3.13-2.386-1.272-2.757-2.302-5.79-4.706-7.84-1.52-1.408-3.268-2.803-5.355-3.23-1.81.066-3.114-1.451-4.803-1.772-1.843-.138-2.13 2.116-.875 3.06 1.157 1.15 1.498 2.731 2.067 4.184.504 1.085 1.496 1.844.792 3.08-.5 1.964-.537 4.307.92 5.902 1.042 1.028 2.157-.149 2.015-1.294.552-.759.897 1.183 1.533 1.48.672.693 1.389 1.429 2.237 1.883-1.258-1.188-2.07-2.742-2.918-4.224.235-1.388-1.847-1.862-1.673-.231.03.649-.443 2.5-1.14 1.2-.857-1.608-.585-3.493-.096-5.163.468-1.314-.634-2.205-1.18-3.236-.446-1.179-.538-2.566-1.574-3.444-.996-.623-1.262-2.827.425-2.138 1.27.877 2.622 1.51 4.199 1.58 2.328.696 4.278 2.307 5.795 4.132 1.826 2.126 2.531 4.871 3.872 7.267.374 1.005 1.566 1.119 2.446 1.492 1.146.317 1.979 1.168 2.978 1.744.203.154.388.335.528.547z"/><path d="M9.904 8.245c.395.418.637.887.874 1.359.636-.686.302-1.827-.874-1.36z"/></g></svg>