<svg xmlns="http://www.w3.org/2000/svg" width="32" height="32"><g fill="none" fill-rule="evenodd"><path fill="#343944" d="M10.871 26.333l-1.977-20.5H7.412l1.482 20.5z"/><path fill="#FF6E9F" d="M20.92 4.94l-.332 3.154 1.91-1.018 1.59 1.018V4.713l-.14.008.758-.054v22.416l-15.153-.75-.988-20.5L20.92 4.94zm-2.914 8.5l3.182-.08c.079-3.12-1.522-4.66-4.309-4.66s-4.348 1.6-4.348 4c0 4.18 5.336 4.26 5.336 6.54 0 .64-.296 1.02-.948 1.02-.85 0-1.186-.56-1.147-2.12h-3.34c-.257 3.86 1.976 4.74 4.526 4.74 2.47 0 4.408-1.16 4.408-3.68 0-4.48-5.416-4.36-5.416-6.58 0-.9.633-1.02 1.008-1.02.395 0 1.107.16 1.048 1.84z"/></g></svg>