<svg xmlns="http://www.w3.org/2000/svg" width="32" height="32"><path d="M25.533 4.69c.12.095.201.222.245.38.044.158.05.338.019.54a1.813 1.813 0 0 1-.217.608c-.025.025-.056.025-.094 0a.182.182 0 0 1-.075-.095c.025-.152-.028-.278-.16-.38-.132-.1-.336-.152-.612-.152-.514 0-1.032.193-1.552.58-.521.385-1.026.894-1.516 1.527-.49.632-.947 1.36-1.374 2.182a20.73 20.73 0 0 0-1.11 2.542c-.314.873-.562 1.74-.744 2.6-.182.86-.273 1.644-.273 2.352 0 .38.107.57.32.57.151 0 .298-.064.443-.19a3.73 3.73 0 0 0 .499-.57c.037-.025.072-.022.103.01s.04.073.028.123c-.25.38-.546.696-.884.949-.34.253-.647.379-.923.379-.238 0-.404-.07-.498-.209a.928.928 0 0 1-.142-.53c0-.595.126-1.339.377-2.23.25-.892.586-1.834 1.007-2.827a30.15 30.15 0 0 1 1.459-2.97 23.406 23.406 0 0 1 1.722-2.665c.596-.79 1.195-1.433 1.798-1.926.601-.493 1.166-.74 1.693-.74a.72.72 0 0 1 .461.142zM6.947 27.72a.716.716 0 0 1-.245-.38 1.288 1.288 0 0 1-.019-.54c.032-.203.104-.405.216-.608.026-.025.057-.025.095 0a.181.181 0 0 1 .075.095c-.025.152.028.278.16.38.132.1.336.151.612.151.514 0 1.032-.193 1.553-.578.52-.386 1.025-.895 1.515-1.527.49-.633.947-1.36 1.374-2.182a20.723 20.723 0 0 0 1.854-5.142c.182-.86.273-1.645.273-2.353 0-.38-.107-.569-.32-.569-.151 0-.298.063-.443.19a3.74 3.74 0 0 0-.499.569c-.037.025-.072.022-.103-.01s-.04-.073-.028-.123c.251-.38.546-.696.884-.949.34-.253.647-.379.923-.379.238 0 .404.07.498.208a.93.93 0 0 1 .142.532c0 .594-.126 1.337-.377 2.23-.25.891-.586 1.833-1.007 2.826a30.15 30.15 0 0 1-1.459 2.97 23.422 23.422 0 0 1-1.722 2.665c-.596.79-1.195 1.433-1.797 1.926-.603.493-1.167.74-1.694.74a.719.719 0 0 1-.461-.142z" fill="#AEE33E" fill-rule="evenodd" stroke="#AEE33E"/></svg>