<svg xmlns="http://www.w3.org/2000/svg" width="32" height="32"><g fill="none" fill-rule="evenodd" transform="translate(4 5)"><path fill="#78909C" d="M12.17 22.843c2.62-9.35 2.544-9.392 4.437-16.059l.455.263c.248.142.45.026.45-.259V3.61c.503-1.757.896-3.114 1.012-3.522h2.051l3.408 3.151-2.238 1.93 1.692 1.827-11.153 15.848c-.055.09-.13.069-.113 0z"/><path fill="#D14748" d="M16.79.887l-3.031 1.746a.329.329 0 0 1 .056.182v1.63c0 .084-.033.16-.087.222L16.79 6.43c.208.12.38.022.38-.218V1.105c0-.24-.172-.338-.38-.218zm-6.583 3.557V2.815c0-.067.021-.128.056-.181L7.233.887c-.21-.12-.38-.022-.38.218v5.108c0 .24.17.339.38.218l3.06-1.765a.334.334 0 0 1-.086-.222zm3.182-1.754c.1 0 .183.056.183.125v1.63c0 .068-.082.124-.183.124h-2.755c-.101 0-.183-.056-.183-.125v-1.63c0-.068.082-.124.183-.124h2.755z"/><path fill="#78909C" d="M11.732 22.843h.113C9.226 13.493 9.3 13.451 7.408 6.784l-.455.263c-.247.142-.45.026-.45-.259V3.61C6.001 1.852 5.607.495 5.491.087h-2.05L.032 3.238l2.238 1.93L.578 6.996l11.154 15.848z"/><ellipse cx="11.925" cy="7.145" fill="#78909C" rx="1" ry="1"/><ellipse cx="11.925" cy="12.056" fill="#78909C" rx="1" ry="1"/><ellipse cx="11.925" cy="16.966" fill="#78909C" rx="1" ry="1"/></g></svg>