<svg xmlns="http://www.w3.org/2000/svg" width="32" height="32"><g fill="none"><path fill="#EE9D5C" d="M9.934 8.158h12.604v1.515h-2.419c-4.568.583-7.687 2.864-9.65 6.348-.807 1.432-1.357 2.97-1.697 4.51a15.924 15.924 0 0 0-.257 1.485 8.27 8.27 0 0 0-.052.537l-1.339-.069c.006-.123.024-.34.06-.638.06-.489.152-1.031.28-1.615.368-1.665.964-3.331 1.843-4.892 1.404-2.492 3.358-4.433 5.918-5.666h-5.29c-.303.883-1.119 1.516-2.078 1.516-1.216 0-2.202-1.018-2.202-2.273 0-1.256.986-2.273 2.202-2.273.96 0 1.775.632 2.077 1.515z"/><path fill="#F4BF75" d="M6.648 24.027v.035c0 .812.667 1.474 1.49 1.474.828 0 1.49-.66 1.49-1.474v-.035c0-.812-.667-1.474-1.49-1.474-.829 0-1.49.66-1.49 1.474zm-1.986 0c0-1.905 1.553-3.446 3.476-3.446 1.918 0 3.476 1.543 3.476 3.446v.035c0 1.905-1.553 3.445-3.476 3.445-1.918 0-3.476-1.543-3.476-3.445v-.035zM22.538 9.11v.035c0 .812.667 1.474 1.49 1.474.828 0 1.49-.66 1.49-1.474v-.035c0-.812-.668-1.474-1.49-1.474-.829 0-1.49.66-1.49 1.474zm-1.986 0c0-1.905 1.552-3.445 3.476-3.445 1.918 0 3.475 1.543 3.475 3.445v.035c0 1.905-1.552 3.446-3.475 3.446-1.918 0-3.476-1.543-3.476-3.446v-.035z"/></g></svg>