<svg xmlns="http://www.w3.org/2000/svg" width="32" height="32"><path fill="#D14748" d="M21.931 24.195c-2.8 1.648-6.65 1.817-10.524.126C8.271 22.962 5.668 20.583 4 17.865c.8.68 1.735 1.223 2.736 1.699 4 1.91 8 1.779 10.814.005l-.004-.005c-4.004-3.127-7.407-7.205-9.943-10.535-.534-.543-.934-1.223-1.334-1.835 3.07 2.855 7.94 6.457 9.675 7.477-3.67-3.943-6.94-8.836-6.806-8.7 5.805 5.98 11.21 9.38 11.21 9.38.18.102.318.187.429.264a9.06 9.06 0 0 0 .306-.944c.934-3.467-.134-7.409-2.47-10.67 5.405 3.33 8.609 9.582 7.274 14.815-.035.142-.073.281-.114.418.016.019.032.038.047.059 2.67 3.398 1.935 7 1.602 6.32-1.448-2.885-4.128-2.003-5.49-1.418h-.001z"/></svg>