<svg xmlns="http://www.w3.org/2000/svg" width="32" height="32"><path fill="#F4BF75" fill-rule="evenodd" d="M24.775 5.98c-.355-.663-.877-1.042-1.566-1.138-.689-.096-1.461.023-2.318.357-.13.042-.256.09-.379.145l-.39.174c-.754.369-1.538.85-2.35 1.442a23.906 23.906 0 0 0-2.35 1.96 26.696 26.696 0 0 0-2.105 2.23 18.876 18.876 0 0 0-1.656 2.28 10.059 10.059 0 0 1 0 1.8 2.996 2.996 0 0 1-.025.208 1.164 1.164 0 0 0-.014.178 3.03 3.03 0 0 0-.041.3l-.007.115-.004-.085v-.283a.127.127 0 0 0 .005-.064.203.203 0 0 1 .017-.094c-.021-.008-.028-.022-.02-.042l.01-.03a8.351 8.351 0 0 0-.12-.809 14.526 14.526 0 0 1-.13-.78c-.16.185-.306.365-.437.54l-.398.522c.08.54.09 1.13.027 1.775l-.094.966.007-.115v-.384c.001-.255-.041-.565-.127-.929a5.582 5.582 0 0 1-.148-.87 8.424 8.424 0 0 0-.613.926c-.137.25-.195.412-.177.486.032.166.046.365.041.596-.005.232-.013.49-.024.774-.065.62-.145 1.219-.238 1.796l-.143.864-.086.236c-.192.463-.37.937-.535 1.421-.164.484-.305.95-.422 1.396A26.03 26.03 0 0 0 7.6 25.51c-.09.5-.125.91-.103 1.23l.215-.023c.01-.596.103-1.245.279-1.947.176-.702.43-1.448.764-2.238.482-1.201 1.133-2.469 1.953-3.802.819-1.334 1.77-2.67 2.854-4.007a35.26 35.26 0 0 1 2.675-2.757 33.533 33.533 0 0 1 2.698-2.25 21.951 21.951 0 0 1 2.59-1.674c.843-.459 1.628-.8 2.353-1.025-.69.258-1.493.727-2.406 1.405a40.993 40.993 0 0 0-2.716 2.21 58.15 58.15 0 0 0-2.51 2.35c-.774.772-1.363 1.396-1.766 1.872a43.13 43.13 0 0 0-2.539 3.14 36.39 36.39 0 0 0-2.048 3.12c.724-.914 1.577-1.459 2.56-1.634l1.473-.263 1.058-.632 2.555-1.718c-.422-.042-.92-.095-1.493-.16a14.548 14.548 0 0 0-1.238-.1 18.37 18.37 0 0 0-.74.046l-.179.018 1.48-.227 2.966-.153a53.348 53.348 0 0 0 2.83-2.334 17.99 17.99 0 0 0 2.48-2.644c.69-.915 1.166-1.83 1.428-2.744.263-.915.163-1.779-.298-2.59h.001z"/></svg>