<svg xmlns="http://www.w3.org/2000/svg" width="32" height="32"><path fill="#2ECC71" fill-rule="evenodd" d="M2.014 10h8.428l.014 2.823h-.403c-.132-1.007-.51-1.688-1.135-2.044-.35-.196-.875-.303-1.572-.321v7.37c0 .514.09.856.27 1.025.18.168.555.252 1.124.252v.356H3.75v-.356c.547 0 .91-.085 1.09-.256.18-.17.27-.511.27-1.022v-7.369c-.683.018-1.207.125-1.572.321-.67.365-1.048 1.046-1.135 2.044H2L2.014 10zm9.194 12.46v-.355c.401-.013.686-.068.854-.164.26-.145.39-.419.39-.82v-6.774c0-.41-.134-.686-.403-.827-.155-.087-.435-.142-.841-.165V13h8.066v2.823h-.341c-.178-.902-.48-1.52-.906-1.852-.426-.333-1.202-.5-2.328-.5-.428 0-.7.045-.817.134-.116.089-.174.265-.174.53v3.24c.798.01 1.338-.136 1.62-.434.283-.299.5-.844.65-1.637h.355v4.73h-.355c-.1-.797-.305-1.359-.612-1.685-.308-.326-.86-.489-1.658-.489v3.391c0 .296.076.498.229.605.153.107.466.16.94.16.893 0 1.622-.173 2.187-.519.566-.346 1.067-.996 1.504-1.948h.39l-.567 2.912h-8.183zm9.338-3.355c.355-.063.61-.13.766-.198.25-.114.48-.305.69-.574l2.447-3.097-2.768-4.067c-.205-.296-.385-.502-.54-.619a1.048 1.048 0 0 0-.581-.195V10h4.846v.355c-.45.023-.75.06-.899.11-.148.05-.222.168-.222.355 0 .082.018.162.055.24.036.077.089.168.157.273l1.36 2.105c.766-1.07 1.226-1.729 1.381-1.975.155-.246.233-.451.233-.615 0-.2-.114-.338-.342-.41-.132-.042-.36-.069-.684-.083V10h3.5v.355c-.62.06-1.11.268-1.47.626-.36.358-1.118 1.35-2.276 2.977l2.543 3.951c.333.515.578.834.735.957.157.123.366.203.626.24v.355h-4.765v-.356c.41-.018.681-.045.813-.082.205-.059.308-.177.308-.355a.909.909 0 0 0-.065-.284 2.36 2.36 0 0 0-.229-.44l-1.408-2.27-.533.71a33.05 33.05 0 0 0-.916 1.272c-.265.406-.397.693-.397.862 0 .246.162.414.485.505.183.055.4.082.65.082v.356h-3.5v-.356z"/></svg>