<svg xmlns="http://www.w3.org/2000/svg" width="32" height="32"><g fill="none"><path fill="#6A9FB5" d="M9 17V5a1 1 0 0 0-2 0v12h2z"/><path fill="#7ACCEE" d="M11 19H5a1 1 0 0 0-1 1v4a1 1 0 0 0 1 1h2v2a1 1 0 0 0 2 0v-2h2a1 1 0 0 0 1-1v-4a1 1 0 0 0-1-1z"/><path fill="#6A9FB5" d="M17 7V5a1 1 0 0 0-2 0v2h2z"/><path fill="#7ACCEE" d="M20 10a1 1 0 0 0-1-1h-6a1 1 0 0 0-1 1v4a1 1 0 0 0 1 1h2v12a1 1 0 0 0 2 0V15h2a1 1 0 0 0 1-1v-4z"/><path fill="#6A9FB5" d="M25 17V5a1 1 0 0 0-2 0v12h2z"/><path fill="#7ACCEE" d="M27 19h-6a1 1 0 0 0-1 1v4a1 1 0 0 0 1 1h2v2a1 1 0 0 0 2 0v-2h2a1 1 0 0 0 1-1v-4a1 1 0 0 0-1-1z"/></g></svg>