<svg xmlns="http://www.w3.org/2000/svg" width="32" height="32"><path fill="#3965BD" fill-rule="evenodd" d="M29 3v26H3V3h26zM18.26 22.904l.003-.003-.53 1.915c.325.155.777.3 1.354.436a8.05 8.05 0 0 0 1.84.203c1.538 0 2.677-.316 3.417-.948.74-.633 1.11-1.38 1.11-2.244.001-.735-.235-1.35-.708-1.847-.473-.497-1.21-.912-2.21-1.247-.735-.259-1.264-.484-1.588-.677-.324-.194-.486-.451-.486-.774 0-.27.134-.506.402-.705.268-.2.677-.3 1.227-.3s1.022.058 1.418.175c.395.116.706.226.931.329l.572-1.877a7.03 7.03 0 0 0-1.216-.367 7.873 7.873 0 0 0-1.662-.155c-1.326.001-2.37.298-3.132.89-.762.592-1.143 1.327-1.143 2.204 0 .748.286 1.37.857 1.867.572.496 1.323.9 2.254 1.209.677.206 1.16.419 1.449.638.288.22.433.484.433.794 0 .335-.152.605-.455.812-.303.206-.744.31-1.323.31-.55 0-1.075-.065-1.576-.194a5.96 5.96 0 0 1-1.238-.444zm-6.056 2.55h2.242v-8.836h3.287v-1.8H8.91v1.8h3.295v8.837z"/></svg>