<svg xmlns="http://www.w3.org/2000/svg" width="32" height="32"><g fill="none"><path fill="#FFF" fill-opacity=".785" d="M23.962 21.129l-8.926 5.086-8.925-5.086V10.957l8.925-5.087 8.926 5.087z"/><path fill="#7ACCEE" d="M15.752 5.12c-.243 0-.475.067-.66.204l-9.148 5.074c-.37.194-.613.573-.613 1.007V21.69c0 .434.242.812.613 1.006l9.148 5.074c.185.137.417.205.66.205.243 0 .475-.068.66-.205l9.148-5.074c.37-.194.613-.572.613-1.006V11.405c0-.434-.242-.813-.613-1.007l-9.147-5.074a1.104 1.104 0 0 0-.66-.205zm0 2.457l8.105 4.502v2.404h-.018V20.4h.018v.616l-8.105 4.503-8.105-4.503V12.08l8.105-4.502zm0 2.377l-5.674 3.234 5.674 3.235 5.674-3.235-5.674-3.234zm-5.79 5.806v4.091l4.632 2.639v-4.092L9.963 15.76zm11.58 0l-4.632 2.638v4.092l4.632-2.639V15.76z"/><path fill="#3965BD" d="M15.752 9.954l-5.674 3.234 5.674 3.235 5.674-3.235-5.674-3.234zm-5.79 5.806v4.091l4.632 2.639v-4.092L9.963 15.76zm11.58 0l-4.632 2.638v4.092l4.632-2.639V15.76z"/></g></svg>